<?xml version="1.0" encoding="UTF-8"?><svg xmlns="http://www.w3.org/2000/svg" viewBox="0 0 315.41 412.61"><defs><style>.d{fill:#e5bb9e;}.e{fill:#959799;}.f,.g{fill:#a7a9ac;}.f,.h{stroke-width:.25px;}.f,.h,.i,.j,.k,.l,.m{stroke-miterlimit:10;}.f,.i{stroke:#58595b;}.n,.k{fill:#a8bcdb;}.o{isolation:isolate;}.p{fill:#be1e2d;}.q{fill:#67413a;}.r,.s,.t,.u,.v{fill:#9497a4;}.r,.t{mix-blend-mode:screen;}.r,.u,.w{opacity:.3;}.x{opacity:.15;}.x,.s,.u,.w,.y{mix-blend-mode:multiply;}.x,.a`{fill:#ffdfa7;}.h,.i,.l,.m{fill:none;}.h,.k{stroke:#414042;}.aa{fill:#896c50;}.ab{fill:#49332c;}.s,.t{opacity:.4;}.j{fill:#ceb02f;stroke:#7c4735;}.y{fill:#f4ca86;opacity:.6;}.k,.l{stroke-width:.5px;}.ac{fill:#e6e7e8;}.l{stroke:#231f20;}.ad{fill:#4a342d;}.m{stroke:#c6b06e;}.ae{fill:#f4c7a7;}.af{fill:#58595b;}</style></defs><g class="o"><g id="a"/><g id="b"><g id="c"><path class="ae" d="M237.64,192.02c-.36,1.07-22.22,23.66-32.38,32.73-16.37,14.59-32.93,25.59-25.98,37.02,6.06,9.96,19.45,10.45,35.95-8.54,14.22-16.37,28.09-55.16,28.09-55.16l-5.68-6.04Z"/><path class="d" d="M259.21,185.78s2.34,8.23-2.84,12.05c-2.57,1.9-9.38,1.33-13.53,.13-1.19-.76-3.27-1.87-3.29-3.22-.03-1.72,3.83-8.28,6.23-9.93,6.05,.04,11.15-1.6,13.45,.97Z"/><g><path class="v" d="M258.26,213.16h24.82c.43,0,.77-.33,.78-.74l.54-34.34c0-.44-.35-.8-.79-.8h-25.88c-.44,0-.8,.36-.79,.8l.54,34.34c0,.41,.36,.74,.78,.74Z"/><path class="v" d="M258.51,206.43c3.28,0,3.94-1.77,4.07-2.38l-3.95-.83c.11-.54,.48-.85,.63-.91-.68,.29-3.78-.02-6.3-1.8-2.31-1.63-3.42-3.95-3.32-6.89,.11-2.74,.86-6.22,3.85-7.23,2.1-.71,4.22,.11,4.56,.54l3.82-1.15c-.57-2.62-4.35-4.02-7.5-3.66-1.96,.17-8.39,1.51-8.77,11.36-.3,7.83,5.77,12.17,11.53,12.89,.5,.06,.95,.08,1.37,.08Z"/><path class="s" d="M254.18,182.11c1.01-.11,1.82-.04,2.85,.19l-.06-4.24c0-.43,.33-.77,.76-.77h7.68l.54,35.88h-7.68c-.42,0-.77-.35-.78-.77l-.09-6.01c-.12-.01-.23-.01-.35-.03-5.77-.72-11.64-5.06-11.45-12.89,.23-9.85,6.64-11.19,8.6-11.36Zm-1.42,18.4c1.54,1.08,3.28,1.62,4.57,1.81l-.24-15.76c-.84-.38-2.16-.7-3.73-.17-2.98,1.02-3.68,4.49-3.75,7.23-.06,2.94,.82,5.26,3.15,6.89Z"/><path class="u" d="M258.25,212.55h24.84c.42,0,.78-.33,.78-.74v.61c-.02,.41-.37,.74-.79,.74h-24.82c-.42,0-.77-.33-.78-.74v-.61c0,.41,.35,.74,.77,.74Z"/><path class="r" d="M257.73,177.28h25.88c.44,0,.8,.36,.79,.8v.78c0-.44-.36-.8-.8-.8h-25.85c-.44,0-.79,.36-.79,.8v-.78c-.02-.44,.33-.8,.78-.8Z"/><path class="t" d="M282.55,179.34h-10.99s2.73,16.69,6.57,16.83,4.41-16.83,4.41-16.83Z"/><path class="r" d="M278.41,198.74c-3.99,0-3.15,9.85,0,9.85s2.99-9.85,0-9.85Z"/><g class="w"><path class="v" d="M253.49,186.38c-2.91,.99-3.7,4.31-3.84,7.01,0-.25-.02-.49-.01-.75,.11-2.74,.86-6.22,3.85-7.23,1.34-.45,2.68-.29,3.57,0l.02,.97c-.89-.29-2.24-.46-3.58-.01Z"/><path class="v" d="M257.14,205.39c.08,.01,.16,.01,.23,.02v.96c-.07,0-.15-.01-.23-.02-5.76-.72-11.83-5.06-11.53-12.89,0-.06,0-.11,0-.16,.13,7.32,5.96,11.4,11.52,12.09Z"/></g></g><path class="ae" d="M242.58,185.09c1.66-1.87,3.61-3.26,6.32-3.73,2-.35,8.16-2.05,8.5-.09,.38,2.22-5.32,3.05-7.57,3.88-3.12,1.15-1.81,12.6-9.65,11.19-.68-.12-4.01-2.41-4.01-2.41,2.01-3.01,4.1-6.24,6.41-8.84Z"/><path class="ae" d="M260.08,192.67c-.41-2.11-4.08-.77-6.55-.52-2.47,.25-5.58-.07-6.06,1.19-.48,1.25,1.84,2.57,5.67,2.48,3.84-.09,7.49-.27,6.93-3.14Z"/><path class="ae" d="M257.83,196.99c-.08-1.77-3.18-1.16-5.19-1.29-2.01-.13-4.47-.79-5.01,.16-.54,.95,1.17,2.32,4.26,2.76,3.09,.44,6.05,.77,5.94-1.63Z"/><path class="ae" d="M214.52,216.25c4.44,7.1,9.62,9.84,9.62,9.84,7.59-10.68,17.31-29.1,17.31-29.1l1.47,.64,.4,.43s-6.17,17.26-14.5,33.61c-6.63-1.62-11.81-10.37-14.3-15.42Z"/><g><path class="ae" d="M153.09,202.78l23.91,50.48s17.96,2.05,29.66-1.77c11.71-3.82,18.11,6.27,18.34,3.77s-22-1-22-1c0,0-5.6-20.5-10.1-25.2-4.5-4.7-19.03-38.07-17.19-38.92s-20.82,7.56-22.62,12.64Z"/><path class="ae" d="M15.46,196.74l-3.6,55.74s14.71,10.51,26.79,12.85c12.09,2.34,12.79,14.27,14.2,12.19s-15.86-31.26-15.86-31.26c0,0,.65-.7-1-7-1.65-6.3,3.35-42.75,5.37-42.59s-21.87-3.5-25.91,.07Z"/><path class="ae" d="M78.08,107.14s.42,16.62-2.58,17.62,24.63,36,43.31,0c-.31-13-3.31-15.57,.19-18.29"/><g><path class="ae" d="M133.86,27.67s-57.14-1.81-62.54-3.04c-4.79-1.09-4.21,41.99-3.02,54.11,3.7,6.53,9.26,12.5,13.29,18,3.55,4.86,7.24,9.62,12,13.34,1.5,1.17,3.24,2.64,5.1,4.02,.41-.02,.82-.07,1.21-.19,1.35-.72,2.67-1.47,3.92-2.32,3.53-2.38,5.92-5.65,8.96-8.42,2.68-2.45,5.15-5.36,7.78-8,.07-.12,.14-.23,.23-.34,2.1-2.73,3.91-5.5,6.09-7.97,2.58-8.46,4.92-17.01,6.03-25.58,.76-5.9,1.77-11.7,1.88-17.64,.07-3.82,0-7.63,.08-11.43-.57-2.69-.99-4.53-.99-4.53Z"/><path d="M98.02,52.07c0,3.39-1.59,6.13-3.57,6.13s-3.61-2.77-3.61-6.19,1.62-6.17,3.61-6.13,3.57,2.8,3.57,6.19Z"/><path d="M125.51,54.24c0,3.27-1.49,5.92-3.33,5.92s-3.36-2.67-3.36-5.97,1.51-5.95,3.36-5.92,3.33,2.7,3.33,5.97Z"/><path class="m" d="M108.1,63.96s5.4,19.09-11.07,11.08"/><path class="ab" d="M78.82,42.99s2.67,2.91,2.16,3.31,13.1-3.34,15.75-2.79c-.6-3.62,.86-3.75,.86-3.75,0,0-9.9,.38-18.78,3.23Z"/><path class="ab" d="M113.04,40.24s1.17,3.53,.6,3.7,12.17,1.84,14.19,3.29c.82-3.4,2.09-2.99,2.09-2.99,0,0-8.42-3.27-16.87-4Z"/><path class="ad" d="M65.01,59.42s-3.94,20.08,3.41,28.47c2.69,10.28,5.22,18.07,9.71,19.76,2.37,5.66,12.42,12.14,15.92,12.48,3.46,.34,16.6,.25,20.74-4.67s17.82-18.16,16.01-21.65c3.6-2.81,6.29-13.77,.87-18.61-5.57-4.97-20.92,2.56-20.92,2.56,0,0-15.24-.89-18.37,.11s-16-3.11-19.03-2.49-.22-15.77-8.34-15.97Z"/><path class="j" d="M97.53,93.78s13.87-2.47,11.92-1.46"/><path class="ad" d="M69.21,63.61c-2.49-10.23-2.45-20.95,.11-31.08,.62-2.47,1.56-5.1,3.91-6.42,3.39-1.89,8-.13,11.21,2.19s6.04,5.25,9.83,6.19c.05-2.81-.61-5.65-1.92-8.25,6.77,5.33,14.58,9.21,22.65,11.33-2.55-3.96-5.88-7.52-9.8-10.45,8.31,4.82,17.15,8.31,26.04,10.34-1.99-3.18-4.43-6.13-7.24-8.74l21.92,11.04c-1.66-11.87-8.96-23.22-19.47-30.47C115.63,1.81,101.4-1.4,87.97,.57c-8.28,1.22-16.33,4.39-22.52,9.67-8.06,6.88-12.52,17.17-11.86,27.56,.66,10.38,13.91,43.43,22.59,49.6"/></g><path class="n" d="M10.94,207.49s.06,.05,.08,.07h0c-.01-.1-.03-.19-.03-.31-.03,.08-.04,.16-.06,.24Z"/><polygon class="n" points="11.02 207.57 11.03 207.57 11.03 207.56 11.02 207.57"/><g><line class="l" x1="77.46" y1="183.92" x2="67.59" y2="197.47"/><line class="l" x1="83.02" y1="186.68" x2="72.56" y2="200.68"/><line class="l" x1="67.59" y1="183.63" x2="88.5" y2="197.65"/><line class="l" x1="62.74" y1="190.46" x2="78.21" y2="200.7"/><path class="n" d="M161.95,154.7s-5.99-11.4-6.5-11.45c-.51-.05-8.45-8.86-12.67-10.42-4.29-1.59-22.94-12.86-22.94-12.86,0,0-.43,18.03-19.17,14.64-20.1-3.64-21.57-17.75-20.79-20.08,0,0-34.2,9.47-38.8,9.6-4.67,.13-10.41,6.04-10.41,6.04,0,0-7.87,21.41-11.67,24.07-3.84,2.7-1.16,20.27-18.99,36.01,3.42,3.05-1.04-.89,2.45,1.38,.03-.08,.04-.15,.08-.23,0,.11,.02,.2,.04,.3,2.95-.75,5.7-1.63,7.67-3.11-1.18,1.78-1.28,4.41-2.29,6.33h0c10.67,5.94,28.84,14.35,32.04,14.31,4.67-.07,6.4-23.07,6.4-23.07,0,0-7.97,97.25-7.4,102.07,.57,4.8,98.36-5.52,102.52-10.32,.55-6.23,.85-90.6,.85-90.6,0,0,5.04,14.86,4.99,15.9-.05,1.04,25.97-4.55,31.64-15.43-7.95-10.16-17.05-33.09-17.05-33.09Z"/><path class="k" d="M36.87,125.77s19.62,53.16,9.52,61.89"/><path class="k" d="M151.51,139.57s-19.48,42.47-9.15,50.53"/><path class="h" d="M53.89,204.76s-15.24,48.96-10.72,57.08"/><path class="h" d="M128.37,189.48c1.78,.7-7.21,39.71,4.86,45.49"/><path class="h" d="M141.73,274.28s-65.51,23.53-102.74,14.52"/><path class="h" d="M152.33,167.49s-13.32,9.52-9.97,21.09"/><path class="h" d="M36.87,165.48s14.1,13.24,11.29,17.59"/><path class="ae" d="M75.07,181.02l3.14-2.06s5.46,4.42,4.81,5.12-1.45,3.46-2.6,4.68-4.06,4.52-6.28,1.92c-2.24-2.62-2.76-5.87-3.57-6.96s4.51-2.7,4.51-2.7Z"/><line class="f" x1="118.89" y1="165.46" x2="110.96" y2="171.29"/><line class="f" x1="122.07" y1="167.73" x2="113.78" y2="173.94"/><line class="f" x1="114.95" y1="164.23" x2="122.07" y2="172.62"/><line class="f" x1="110.05" y1="168.08" x2="117.95" y2="175.25"/></g><path class="e" d="M110,283.26c-8.29,11.44-2,40,5,40,4.48,0,31,1,41.13-3.07,22.01-8.83,46.47-29.15,52.12-36.12,.5-.61,1.46-.42,1.68,.34,3.87,13.89,29.07,61.32,29.07,64.84,0,5,8.83,25.01,12.19,24.43,13.32-1.28,19.8-2.39,18.35-6.38-5.27-10.14-11.08-26.84-10.22-29.48-1.91-22.16-15.54-43.33-16.74-58.5-10.44-38.1-14.02-48.97-23.58-47.08-18.76,1.56-29.06,10.68-29.06,10.68-45.38,28.31-79.94,40.32-79.94,40.32Z"/><path class="g" d="M41,287.26c-2.14-.05-2.3,2.58-2.95,4.62-4.49,14.03,7.23,42.21,11.15,43.45,14.45,4.58,25.8,4.93,34.8,.93,18.36-8.16,42.07-23.26,52-30.89,2.65-2.04,6.5-.92,7.65,2.22,6.07,16.54,18.54,52.05,23.46,58.54,.56,.74,.93,1.6,1.02,2.53,.6,6.6,11.98,23.56,15.06,23.03,13.32-1.28,19.8-2.39,18.35-6.38-5.12-9.86-7.02-17.74-6.54-21.06,.04-.29-2.93-8.71-3-9-5-21-10.6-34.01-12-49-.03-.27-1.47-5.06-1.53-5.33-2.47-10.69-2.33-19.77-4.47-26.67-5.19-16.78-12.04-22.71-17-22-16.44,2.35-50.59,19.86-51,20-41,14-55.49,15.21-65,15Z"/><path class="af" d="M175.51,307.41c-.81,8.31,0,16.7,2.37,24.71,.07,.25,.46,.14,.39-.11-2.36-7.98-3.16-16.32-2.35-24.6,.02-.26-.38-.25-.4,0h0Z"/><path class="af" d="M258.45,336.71c-.55,7.35,.8,14.71,3.89,21.4,.11,.23,.45,.03,.35-.2-3.06-6.62-4.38-13.92-3.84-21.2,.02-.26-.38-.26-.4,0h0Z"/><path class="af" d="M172.2,366.97c.78,3.62,2.43,7,4.79,9.85,.16,.2,.45-.09,.28-.28-2.31-2.8-3.92-6.13-4.69-9.68-.05-.25-.44-.15-.39,.11h0Z"/><path class="af" d="M138.05,304.36c-1.08-1.03-2.9-1.16-4.1-.25-.2,.15,0,.5,.2,.35,1.06-.8,2.65-.73,3.61,.19,.19,.18,.47-.1,.28-.28h0Z"/><path class="af" d="M139.33,304.85c2.2-2.1,5.42-2.97,8.38-2.25,.25,.06,.36-.32,.11-.39-3.1-.75-6.46,.15-8.77,2.35-.19,.18,.1,.46,.28,.28h0Z"/><path class="af" d="M139.53,305.76c2.76-.49,5.61-.16,8.19,.92,.24,.1,.34-.29,.11-.39-2.65-1.11-5.57-1.42-8.4-.92-.25,.04-.15,.43,.11,.39h0Z"/><path class="af" d="M209.46,282.58l-3.85-.89c-.25-.06-.36,.33-.11,.39l3.85,.89c.25,.06,.36-.33,.11-.39h0Z"/><path class="af" d="M210.23,282.63c-.39-.53-.42-1.32,.01-1.84s1.15-.67,1.75-.42c.1,.04,.22-.04,.25-.14,.03-.11-.04-.2-.14-.25-.57-.23-1.26-.15-1.76,.19-.54,.36-.84,.99-.8,1.64,.02,.36,.14,.72,.35,1.01,.06,.09,.17,.13,.27,.07,.09-.05,.14-.19,.07-.27h0Z"/><g><path class="p" d="M245.82,367.06s-.48,1.92,.18,4.07c.46,2.68-.11,3.31-.11,3.31,0,0,.1,4.28-.23,4.55s1.65,1.45,2.51,1.46,12.75,3.31,12.75,3.31c0,0,12.84,3.64,13.86,3.58s3.62,1.6,15.82,1.14,22.5-4.15,22.48-4.41,2.29-1.81-2.82-3.45c-5.89-1.2-6.1-.93-7.97-1.72s-4.74-1.27-5.93-2.1c1.21-.71,1.12-2.38-.25-2.56s-12.98-4.37-12.98-4.37c0,0-9.83-5.57-10.29-5.67s-1.77,.87-1.77,.87c0,0-3.41-2.48-3.87-2.46s-3.9-.79-6.51,6.52c-.29,1.04,.21,2.04,.21,2.04,0,0-9.99-4.79-9.9-5.18s-5.18,1.07-5.18,1.07Z"/><path class="ac" d="M245.43,379.01s-.31,.74,.05,1.13,3.73,1.87,5.32,1.77c1.74,.67,5.65,1.47,5.65,1.47l8.2,2.1s9.05,3.09,10.43,3.13c1.97,.66,11.83,1.25,12.73,1.07s9.9-.84,10.34-1.12,8.04-1.24,9.27-1.7,5.77-.98,6.61-2.19c.84-1.21-.18-2.18-.48-1.97-.27,.85-.03,.97-1.6,1.58-1.56,.61-9.88,3.03-13.3,3.1-3.74,.48-7.13,1.19-8.85,1.16s-8.67,.12-10.86-.27-11.65-2.55-13.05-3.11-12.22-2.77-12.35-3.27-5.64-1.41-5.64-1.41c0,0-2.67-.94-2.46-1.46Z"/><path class="aa" d="M245.12,379.8s.22,3.77,.37,4.15c.17,.45,5.17,2.61,6.99,2.5s14.48,4.21,14.77,4.44,11.65,3.48,13.18,3.25c2.62,1,17.91,.24,19.92-.66,3.19-.19,12.89-2.69,13.21-2.97s1.85-1.66,1.85-1.66c0,0,.03-5.43-.77-5.38-.26,1.43-1.3,1.98-4.6,2.77-3.3,.79-12.31,2.38-14.26,2.67s-11.18,1.77-17.06,.29c-5.87-1.48-12.43-2.65-14.76-3.54-2.32-.9-11.57-3.58-13.17-3.74s-6.02-2.09-6.02-2.09"/></g><g><path class="p" d="M178.82,385.06s-.48,1.92,.18,4.07c.46,2.68-.11,3.31-.11,3.31,0,0,.1,4.28-.23,4.55s1.65,1.45,2.51,1.46,12.75,3.31,12.75,3.31c0,0,12.84,3.64,13.86,3.58s3.62,1.6,15.82,1.14,22.5-4.15,22.48-4.41,2.29-1.81-2.82-3.45c-5.89-1.2-6.1-.93-7.97-1.72s-4.74-1.27-5.93-2.1c1.21-.71,1.12-2.38-.25-2.56s-12.98-4.37-12.98-4.37c0,0-9.83-5.57-10.29-5.67s-1.77,.87-1.77,.87c0,0-3.41-2.48-3.87-2.46s-3.9-.79-6.51,6.52c-.29,1.04,.21,2.04,.21,2.04,0,0-9.99-4.79-9.9-5.18s-5.18,1.07-5.18,1.07Z"/><path class="ac" d="M178.43,397.01s-.31,.74,.05,1.13,3.73,1.87,5.32,1.77c1.74,.67,5.65,1.47,5.65,1.47l8.2,2.1s9.05,3.09,10.43,3.13c1.97,.66,11.83,1.25,12.73,1.07s9.9-.84,10.34-1.12,8.04-1.24,9.27-1.7,5.77-.98,6.61-2.19c.84-1.21-.18-2.18-.48-1.97-.27,.85-.03,.97-1.6,1.58-1.56,.61-9.88,3.03-13.3,3.1-3.74,.48-7.13,1.19-8.85,1.16s-8.67,.12-10.86-.27-11.65-2.55-13.05-3.11-12.22-2.77-12.35-3.27-5.64-1.41-5.64-1.41c0,0-2.67-.94-2.46-1.46Z"/><path class="aa" d="M178.12,397.8s.22,3.77,.37,4.15c.17,.45,5.17,2.61,6.99,2.5s14.48,4.21,14.77,4.44,11.65,3.48,13.18,3.25c2.62,1,17.91,.24,19.92-.66,3.19-.19,12.89-2.69,13.21-2.97s1.85-1.66,1.85-1.66c0,0,.03-5.43-.77-5.38-.26,1.43-1.3,1.98-4.6,2.77-3.3,.79-12.31,2.38-14.26,2.67s-11.18,1.77-17.06,.29c-5.87-1.48-12.43-2.65-14.76-3.54-2.32-.9-11.57-3.58-13.17-3.74s-6.02-2.09-6.02-2.09"/></g><path class="i" d="M74.89,289.59c8.11,7.67,7.11,26.67,7.11,26.67"/><g><polygon class="a`" points="178.04 291.54 82.72 297.24 86.23 227.65 175.56 232.99 178.04 291.54"/><polygon class="x" points="178.04 291.54 82.72 297.24 175.56 232.99 178.04 291.54"/><polygon class="y" points="175.65 233 176.87 289.77 84.65 294.94 86.36 227.66 82.85 297.23 178.14 291.53 175.65 233"/><g><path class="q" d="M98.64,242.44c.06-.06,.18-.13,.34-.21,.16-.07,.33-.1,.51-.08,.18,0,.35,.09,.52,.25,.15,.15,.27,.39,.35,.76,2.11-.69,3.9-1.08,5.38-1.15,1.48-.06,2.68,.1,3.6,.47,.91,.37,1.57,.91,1.96,1.63,.41,.72,.56,1.51,.5,2.39-.07,.88-.37,1.79-.88,2.74-.52,.96-1.26,1.85-2.19,2.69-.95,.84-2.08,1.58-3.42,2.23-1.36,.64-2.88,1.09-4.59,1.34,0,.23,0,.58,.01,1.06s.01,1.04,.03,1.64c.01,.61,.02,1.27,.04,1.95,0,.67,.01,1.32,.02,1.93,.02,.63,.03,1.19,.06,1.69,.02,.5,.05,.87,.08,1.11,.08,.73-.05,1.27-.4,1.58-.35,.32-.85,.44-1.47,.37l-.45-24.39Zm7.63,1.45c-.56-.02-1.2,.02-1.88,.15-.68,.12-1.32,.34-1.92,.67-.6,.33-1.09,.78-1.46,1.36-.39,.58-.56,1.3-.52,2.18v5.21c2.05-.47,3.72-1.02,5.02-1.66,1.29-.65,2.26-1.32,2.95-2.03,.68-.69,1.11-1.39,1.27-2.09,.16-.69,.11-1.32-.14-1.87-.24-.55-.65-1-1.24-1.36-.6-.35-1.28-.54-2.08-.56Z"/><path class="q" d="M113.1,236.29c.16-.23,.3-.45,.45-.66,.16-.21,.37-.31,.65-.29,.18,0,.35,.27,.5,.76s.29,1.15,.4,1.97c.11,.82,.21,1.73,.3,2.78,.08,1.04,.16,2.11,.21,3.23,.06,1.12,.1,2.23,.13,3.33,.03,1.11,.06,2.12,.08,3.04,.02,.92,.03,1.71,.04,2.37,.01,.66,.01,1.1,.01,1.33,0,.29-.06,.51-.16,.68-.11,.17-.23,.31-.4,.41-.16,.1-.35,.17-.55,.19-.2,.03-.4,.04-.58,.04-.02,0-.07,0-.11-.01-.06-.01-.09-.01-.1-.01,0-.41-.01-1.04-.03-1.88-.02-.84-.04-1.8-.07-2.87-.03-1.06-.06-2.18-.09-3.35-.02-1.16-.06-2.29-.09-3.36-.03-1.06-.08-2.02-.11-2.86-.03-.85-.06-1.48-.07-1.88,0-.11-.02-.31-.06-.6-.03-.28-.08-.58-.11-.89-.04-.31-.09-.62-.15-.9-.05-.28-.09-.48-.11-.58Z"/><path class="q" d="M117.32,251.64c-.12-1.27-.02-2.5,.32-3.7,.34-1.19,.86-2.23,1.54-3.14,.68-.89,1.5-1.6,2.47-2.09,.96-.51,2-.71,3.12-.65,.19,0,.45,.05,.76,.13,.32,.07,.65,.18,1.02,.33,.35,.14,.7,.32,1.05,.53,.34,.21,.64,.46,.9,.75,.25,.28,.46,.6,.59,.94,.13,.35,.16,.73,.1,1.16-.55,.43-1.18,.72-1.89,.87-.73,.15-1.46,.25-2.21,.29-.75,.05-1.49,.09-2.21,.12-.73,.04-1.36,.16-1.9,.38-.55,.22-.96,.58-1.26,1.08-.3,.5-.4,1.23-.27,2.17,.2,.87,.55,1.51,1.02,1.91,.47,.42,1.03,.67,1.65,.77,.62,.1,1.28,.07,1.98-.09,.7-.15,1.39-.34,2.05-.59,.66-.26,1.28-.53,1.87-.8,.57-.28,1.04-.52,1.42-.69,.17,0,.32,.08,.43,.23,.12,.15,.18,.32,.18,.51-.33,.66-.84,1.24-1.51,1.75-.69,.51-1.46,.92-2.31,1.24-.87,.31-1.77,.49-2.72,.56-.94,.06-1.83-.02-2.67-.27-.84-.25-1.58-.66-2.22-1.27-.64-.6-1.07-1.42-1.29-2.44Zm7.27-7.84c-.24,0-.54,.02-.9,.07-.35,.05-.69,.14-1.02,.29s-.61,.34-.85,.58c-.24,.24-.36,.56-.36,.94l5.05-.79c-.21-.37-.49-.65-.85-.81-.34-.17-.7-.26-1.09-.27Z"/><path class="q" d="M141.09,251.14c-.36,.67-.79,1.27-1.28,1.81-.49,.54-1.03,1-1.61,1.37-.58,.37-1.23,.65-1.92,.82-.69,.17-1.43,.21-2.2,.13-.28,0-.57-.04-.89-.12-.31-.09-.61-.21-.88-.39-.27-.16-.49-.39-.66-.66-.18-.28-.26-.62-.26-1.03-.15-.86-.12-1.72,.08-2.6,.21-.87,.54-1.71,.96-2.5,.44-.8,.97-1.54,1.6-2.21,.62-.67,1.3-1.23,2.01-1.68,.7-.46,1.43-.78,2.17-.95,.74-.19,1.46-.18,2.14-.02,.53,.02,.93,.24,1.23,.65s.52,.96,.66,1.64c.15,.68,.24,1.46,.28,2.32,.04,.88,.07,1.78,.09,2.71,.03,.93,.06,1.84,.11,2.74,.04,.9,.14,1.73,.29,2.48l-1.41-.02c-.06-.51-.11-.96-.14-1.35-.03-.39-.06-.76-.08-1.09-.03-.33-.06-.67-.11-.98-.04-.32-.1-.67-.18-1.06Zm-1.45-6.04c-.5-.06-1.02,0-1.55,.19-.53,.19-1.06,.46-1.55,.81-.5,.34-.97,.77-1.41,1.27s-.82,1.01-1.15,1.55c-.32,.55-.57,1.08-.75,1.61-.18,.54-.25,1.03-.22,1.49,.03,.46,.18,.85,.44,1.17,.27,.33,.68,.54,1.22,.66,.79,0,1.54-.22,2.25-.65,.72-.44,1.37-.97,1.92-1.62,.56-.64,1.03-1.34,1.39-2.09,.38-.74,.61-1.44,.72-2.08,.11-.64,.06-1.19-.14-1.62-.2-.45-.6-.67-1.17-.69Z"/><path class="q" d="M146.75,255.41c.88-.33,1.7-.72,2.47-1.16,.75-.44,1.39-.88,1.9-1.31s.86-.83,1.03-1.2c.17-.37,.13-.65-.15-.84-.27-.2-.82-.27-1.63-.22-.81,.04-1.97,.27-3.47,.69-.46-.03-.85-.14-1.21-.34-.36-.2-.66-.44-.92-.73-.25-.29-.44-.6-.57-.94-.13-.35-.2-.67-.2-.99,0-.48,.14-.96,.42-1.44,.29-.48,.67-.92,1.15-1.33,.48-.42,1.02-.79,1.65-1.12,.62-.32,1.27-.58,1.95-.76,.68-.19,1.37-.3,2.07-.34,.71-.04,1.38,.03,2.03,.19,.37,.01,.58,.22,.64,.6,.06,.4,.1,1.01,.1,1.88-.5-.3-1.04-.51-1.61-.64-.58-.14-1.17-.2-1.76-.2-.59,.02-1.16,.09-1.71,.25-.56,.15-1.05,.38-1.48,.66-.44,.29-.78,.66-1.06,1.1-.28,.43-.42,.93-.44,1.5,0,.31,.11,.52,.32,.62,.2,.1,.45,.15,.72,.15,.29,0,.57-.02,.88-.08,.31-.06,.55-.09,.74-.09,1.66-.38,2.95-.52,3.87-.43,.91,.09,1.53,.34,1.85,.74,.31,.4,.37,.91,.14,1.53-.22,.61-.65,1.26-1.26,1.94-.63,.67-1.43,1.33-2.4,1.96-.97,.64-2.05,1.19-3.24,1.63-.06,0-.13-.06-.21-.17-.07-.12-.15-.25-.24-.39-.08-.15-.15-.3-.21-.43-.07-.13-.12-.23-.15-.27Z"/><path class="q" d="M155.89,252.39c-.1-1.18-.02-2.32,.28-3.44,.3-1.11,.74-2.08,1.34-2.93,.59-.83,1.3-1.49,2.14-1.95,.83-.47,1.73-.67,2.7-.61,.17,0,.39,.05,.66,.12,.28,.07,.57,.17,.88,.31,.31,.13,.61,.3,.91,.49,.3,.19,.55,.43,.78,.7,.22,.26,.4,.56,.52,.88,.11,.32,.14,.68,.08,1.08-.48,.4-1.02,.67-1.64,.81-.63,.14-1.26,.24-1.91,.28-.65,.05-1.29,.09-1.92,.12-.63,.04-1.18,.15-1.65,.36-.47,.2-.83,.54-1.09,1.01-.26,.47-.34,1.14-.24,2.02,.17,.81,.47,1.4,.88,1.78,.41,.39,.89,.62,1.43,.71,.54,.09,1.11,.06,1.72-.09,.61-.14,1.2-.32,1.78-.55,.58-.24,1.11-.49,1.62-.74,.5-.26,.9-.48,1.23-.64,.15,0,.28,.07,.38,.21,.1,.14,.16,.3,.16,.48-.28,.62-.72,1.15-1.31,1.63-.6,.48-1.26,.86-2.01,1.15-.75,.29-1.54,.46-2.36,.53-.82,.06-1.59-.02-2.32-.25-.73-.23-1.36-.62-1.92-1.18-.55-.56-.93-1.32-1.12-2.27Zm6.29-7.31c-.21,0-.47,.02-.78,.06-.3,.05-.6,.13-.88,.27s-.53,.31-.73,.54c-.21,.22-.31,.52-.31,.87l4.38-.74c-.19-.35-.43-.61-.73-.75-.3-.16-.6-.24-.94-.25Z"/><path class="q" d="M102.46,275.65c-.26-.04-.49-.1-.68-.2-.2-.09-.29-.26-.29-.49,0-.22,.07-.42,.21-.64,.14-.21,.29-.43,.47-.65,.16-.22,.33-.45,.47-.7,.15-.26,.23-.53,.27-.82,.01-.2,.04-.52,.07-.97,.02-.45,.06-.95,.09-1.51,.03-.56,.07-1.15,.1-1.77,.02-.61,.06-1.21,.08-1.77,.04-.56,.06-1.06,.08-1.51,.02-.43,.03-.76,.03-.97,.09-.13,.23-.28,.41-.45,.16-.17,.34-.31,.52-.39,.19-.1,.35-.14,.51-.11,.16,.02,.29,.18,.37,.44l-.17,9.45c.06-.01,.27-.03,.61-.04s.77-.01,1.28-.04c.51,0,1.07-.05,1.68-.08,.61-.05,1.2-.11,1.78-.2,.57-.07,1.09-.18,1.55-.29,.47-.12,.83-.28,1.09-.47v-9.34c.03-.13,.15-.23,.3-.3,.16-.06,.35-.11,.56-.15,.21-.02,.41-.05,.63-.05s.36,.01,.47,.03c0,.36,.01,.92,.03,1.7,.02,.77,.04,1.63,.08,2.6,.02,.96,.06,1.97,.09,3.03,.03,1.07,.07,2.08,.1,3.04,.02,.96,.06,1.82,.08,2.59,.03,.76,.05,1.33,.07,1.7,.06,1.03,.18,2.04,.36,3.01,.18,.98,.5,1.92,.94,2.81-.37,.15-.73,.29-1.12,.4-.39,.11-.88,.18-1.48,.2-.49-1.35-.83-2.8-1.01-4.33-.18-1.54-.28-3.03-.3-4.47-.74,0-1.41,0-2.01,0-.6,.01-1.18,.04-1.76,.1-.57,.06-1.17,.18-1.77,.34-.62,.17-1.3,.4-2.06,.71-.1,1.16-.11,2.37-.03,3.62,.07,1.24,.23,2.52,.47,3.82l-2.17,1.28-.99-8.16Z"/><path class="q" d="M118.47,264.36c.36,.11,.86,.17,1.48,.19,.62,.02,1.31,.03,2.06,0,.75-.02,1.52-.04,2.33-.07,.81-.04,1.57-.06,2.3-.06s1.37,.02,1.96,.07c.58,.06,1.04,.15,1.38,.29v1.42c-.45,.08-1.07,.13-1.87,.15-.79,.03-1.63,.05-2.54,.06-.9,.02-1.81,.05-2.73,.12-.91,.06-1.72,.17-2.4,.35-.13,.64-.22,1.18-.27,1.61-.05,.42-.09,.79-.11,1.11-.02,.32-.03,.62-.02,.9,0,.28,.02,.58,.04,.9,.01,.31,.03,.68,.05,1.1,.02,.42,.03,.94,.03,1.54,.89-.02,1.74-.09,2.56-.2,.82-.13,1.64-.26,2.45-.41,.8-.14,1.61-.28,2.41-.39,.81-.11,1.63-.18,2.46-.2v1.55l-9.7,1.62,.14,4.78c1.3-.04,2.46-.12,3.49-.24,1.03-.12,2.01-.24,2.93-.37,.92-.12,1.83-.23,2.72-.35,.89-.11,1.83-.19,2.82-.23,0,.17-.04,.38-.12,.61-.08,.25-.19,.45-.32,.65-.13,.2-.27,.35-.44,.45-.17,.1-.33,.1-.48-.04-.92,.15-1.93,.31-3.05,.47-1.12,.15-2.26,.3-3.41,.47-1.17,.15-2.29,.31-3.38,.45-1.09,.14-2.06,.27-2.88,.38l.1-18.7Z"/><path class="q" d="M134.29,281.86c.15-.66,.26-1.51,.33-2.58,.08-1.07,.15-2.23,.19-3.47,.05-1.25,.07-2.54,.08-3.86v-3.77c0-1.18,0-2.22-.02-3.15s-.01-1.61-.01-2.07l1.95,.07-.24,16.6h12.52c.26,.06,.38,.22,.35,.46-.02,.23-.14,.47-.35,.71-.21,.23-.49,.43-.84,.59-.35,.15-.73,.2-1.12,.12l-12.85,.34Z"/><path class="q" d="M158.4,264.87c.18,0,.45,0,.8,.04,.36,.02,.75,.08,1.18,.17,.42,.08,.86,.19,1.31,.34,.45,.15,.85,.33,1.22,.55,.37,.22,.67,.51,.9,.83,.23,.33,.35,.71,.35,1.16,0,.97-.2,1.82-.62,2.54-.42,.74-.96,1.37-1.63,1.92-.67,.54-1.42,1-2.26,1.36-.85,.36-1.7,.66-2.55,.89-.87,.22-1.68,.39-2.46,.48-.78,.1-1.45,.16-1.98,.18l-.11,6.14c0,.14-.09,.22-.24,.28s-.35,.08-.56,.09-.42,0-.61-.01c-.19-.02-.33-.01-.4,0,0-1.06,0-2.11,0-3.15,0-1.04,0-2.12,0-3.26,.08-1.39,.15-2.62,.18-3.68,.03-1.06,.12-1.99,.24-2.77,.13-.77,.33-1.43,.6-1.95,.28-.52,.69-.94,1.23-1.25,.54-.33,1.25-.55,2.12-.68,.86-.13,1.96-.21,3.27-.21Zm-5.36,4.48c-.03,.22-.07,.49-.14,.79-.06,.32-.12,.63-.17,.96-.05,.34-.09,.65-.11,.97-.02,.33,0,.59,.09,.84,.07,.24,.2,.43,.39,.55,.19,.13,.46,.16,.81,.1,.36,0,.82-.04,1.38-.11,.56-.06,1.17-.16,1.8-.3,.63-.13,1.25-.31,1.89-.56,.63-.23,1.2-.53,1.7-.87,.51-.35,.91-.76,1.23-1.23,.32-.47,.48-1.02,.48-1.66-.08-.45-.27-.84-.57-1.17-.3-.32-.67-.57-1.12-.76-.44-.18-.93-.3-1.47-.37-.53-.05-1.08-.06-1.64-.01-.55,.04-1.1,.15-1.62,.29-.54,.16-1.01,.34-1.44,.59-.42,.25-.76,.53-1.03,.87-.27,.33-.43,.69-.45,1.09Z"/></g></g></g><path class="ae" d="M11.86,252.48c10.74,12.78,49.14,14.78,49.14,14.78l2-14-27.46-9"/><path class="ae" d="M64.24,251.01c-.17,.53-.91,.65-1.39,.71-.78,.09-1.53,.18-2.14,.71-.3,.25-.12,.73,.22,.84,.88,.27,1.79,.18,2.63-.18,.49-.21,.19-.91-.25-.93l-4.8-.27c-.64-.04-.64,.96,0,1l4.8,.27-.25-.93c-.59,.26-1.25,.26-1.86,.08l.22,.84c.57-.49,1.48-.36,2.17-.53,.72-.18,1.38-.59,1.62-1.33,.2-.61-.77-.88-.96-.27h0Z"/><path class="ae" d="M58.1,266.61c1.14,1.23,2.56,2.16,4.14,2.73,.25,.09,.55-.1,.62-.35,.08-.28-.09-.52-.35-.62-1.41-.51-2.68-1.38-3.7-2.48-.44-.47-1.14,.23-.71,.71h0Z"/><path class="ae" d="M65.16,250.99c-2.08,.34-4.12,.83-6.22,1.02s-4.13,.21-6.19,.07c-.64-.04-.64,.96,0,1,2.14,.15,4.29,.12,6.43-.09s4.16-.7,6.24-1.04c.63-.1,.36-1.07-.27-.96h0Z"/></g></g></g></svg>