<?xml version="1.0" encoding="UTF-8"?><svg xmlns="http://www.w3.org/2000/svg" viewBox="0 0 389.22 406.41"><defs><style>.d{fill:#009fb5;}.e{stroke-width:9px;}.e,.f,.g{fill:#ceccce;}.e,.g{stroke:#bcbec0;stroke-miterlimit:10;}.h{fill:#636263;}.i{fill:#dee0e0;}.j{fill:#e2b34b;}.k{fill:#cacccc;}.l{fill:#515051;}.g{stroke-width:5px;}.m{fill:#ededed;}.n{fill:#414042;}</style></defs><g id="a"/><g id="b"><g id="c"><g><rect class="m" x="174.93" y="70.49" width="84.98" height="235.54" transform="translate(186.8 -97.71) rotate(43)"/><rect class="e" x="235.13" y="24.73" width="43.42" height="235.54" transform="translate(166.19 -136.88) rotate(43)"/><rect class="f" x="262.49" y="41.41" width="141.42" height="21.22" rx="8.27" ry="8.27" transform="translate(121.79 -210.72) rotate(42.31)"/><rect class="f" x="232.11" y="88.4" width="132.25" height="16.53" rx="8.27" ry="8.27" transform="translate(142.73 -175.56) rotate(42.31)"/><rect class="g" x="267.28" y="81.69" width="0" height="4.27"/><path class="m" d="M106.03,245.41c-3.02,29.58,2.1,43.23,2.1,43.23l10.24,10.24s34.77,8.97,49.82,4.49"/><rect class="m" x="89.76" y="296.24" width="27.76" height="15.09" transform="translate(-184.45 162.26) rotate(-45)"/><rect class="n" x="294.93" y="94.17" width="3.17" height="57.08" transform="translate(590.77 -5.35) rotate(134)"/><rect class="n" x="264.64" y="124.47" width="3.17" height="57.08" transform="translate(561.22 67.78) rotate(134)"/><rect class="n" x="191.25" y="205.54" width="3.17" height="57.08" transform="translate(495.17 257.97) rotate(134)"/><rect class="n" x="223.67" y="170.55" width="3.17" height="57.08" transform="translate(524.95 175.35) rotate(134)"/><path class="j" d="M140.55,213.54l-31.15,31.15v45.34l-18.5,18.5,6.03,6.03,20.69-20.69,46.32,6.78,36.98-36.98c-1.49-9.17-60.37-50.13-60.37-50.13Z"/><g><rect class="l" x="137.73" y="228.05" width="82.04" height="7.71" rx="2.5" ry="2.5" transform="translate(206.18 -59.61) rotate(43)"/><rect class="l" x="129.19" y="236.57" width="82.04" height="7.71" rx="2.5" ry="2.5" transform="translate(209.69 -51.49) rotate(43)"/><rect class="h" x="138.46" y="234.27" width="72.33" height="4.27" rx="2.13" ry="2.13" transform="translate(208.14 -55.58) rotate(43)"/></g><polygon class="d" points="73.45 339.57 79.8 332.96 79.82 332.99 86.53 331.64 108.18 309.13 109.58 310.48 112.23 307.73 110.83 306.39 100.69 296.63 99.29 295.29 96.65 298.04 98.05 299.38 76.39 321.89 75.3 328.63 75.33 328.66 68.97 335.26 68.49 338.24 70.49 340.16 73.45 339.57"/><polygon class="k" points="68.17 338.24 0 406.41 6.56 404.1 70.6 340.05 68.17 338.24"/><polygon class="i" points="68.17 338.24 0 406.41 3.63 405.2 69.5 339.34 68.17 338.24"/></g></g></g></svg>