<?xml version="1.0" encoding="UTF-8"?><svg xmlns="http://www.w3.org/2000/svg" viewBox="0 0 342.59 421.27"><defs><style>.d{fill:#959799;}.e,.f{fill:#a7a9ac;}.e,.g,.h,.i,.j,.k,.l,.m{stroke-miterlimit:10;}.e,.g,.k{stroke-width:.25px;}.e,.h{stroke:#58595b;}.n{opacity:.31;}.o,.j{fill:#a8bcdb;}.p{isolation:isolate;}.q{fill:#be1e2d;}.r{fill:#67413a;}.s,.t,.u,.v,.w{fill:#9497a4;}.s,.u{mix-blend-mode:screen;}.s,.v,.x{opacity:.3;}.y{opacity:.15;}.y,.t,.v,.x,.a`{mix-blend-mode:multiply;}.y,.aa{fill:#ffdfa7;}.g,.h,.l,.m{fill:none;}.g,.j{stroke:#414042;}.ab{fill:#896c50;}.ac{fill:#49332c;}.ad{fill:#754c29;}.t,.u{opacity:.4;}.i{fill:#ceb02f;stroke:#7c4735;}.a`{fill:#f4ca86;opacity:.6;}.j,.l{stroke-width:.5px;}.k{stroke:#3c2415;}.k,.ae{fill:#f4c7a7;}.af{fill:#e6e7e8;}.l{stroke:#231f20;}.ag{fill:#4a342d;}.m{stroke:#c6b06e;}.ah{fill:#58595b;}</style></defs><g class="p"><g id="a"/><g id="b"><g id="c"><g><path class="ae" d="M191.84,341.8c2.33,9.46,17.45,45.73,17.45,45.73l13.8-2.81s-16.63-64.51-18.27-64.99-21.87,4.87-21.87,4.87l8.89,17.2Z"/><path class="ae" d="M263.3,337.8c2.45,9.46,18.36,45.73,18.36,45.73l14.52-2.81s-17.49-64.51-19.22-64.99-23,4.87-23,4.87l9.35,17.2Z"/><path class="ae" d="M223.1,384.72c3.02,9.16,31.35,21.22,34.67,23.42,5.97,1.08,6.31,2.74,6.31,2.74-.99,.78-4.2-.87-4.2-.87,6.86,2.63,5.88,6.28,1,2.1,3.44,2.75,3.89,4.96,.9,4.42s-4.1-3.19-4.1-3.19c3.55,3.3,5.21,5.84,1.01,4.97-1.09,3.1-5.51,4-13.48,1.59-9.17,.14-17.82-8.45-20.14-8.55-7.74-1.3-12.51-4.93-12.84-6.59-.25-6.85-2.93-17.23-2.93-17.23l13.8-2.81Z"/><path class="ae" d="M180.27,202.78l23.91,50.48s17.96,2.05,29.66-1.77c11.71-3.82,18.11,6.27,18.34,3.77s-22-1-22-1c0,0-5.6-20.5-10.1-25.2-4.5-4.7-19.03-38.07-17.19-38.92s-20.82,7.56-22.62,12.64Z"/><path class="ae" d="M42.64,196.74l-3.6,55.74s14.71,10.51,26.79,12.85c12.09,2.34,12.79,14.27,14.2,12.19s-15.86-31.26-15.86-31.26c0,0,.65-.7-1-7-1.65-6.3,3.35-42.75,5.37-42.59s-21.87-3.5-25.91,.07Z"/><path class="ae" d="M105.25,107.14s.42,16.62-2.58,17.62,24.63,36,43.31,0c-.31-13-3.31-15.57,.19-18.29"/><g><path class="ae" d="M161.04,27.67s-57.14-1.81-62.54-3.04c-4.79-1.09-4.21,41.99-3.02,54.11,3.7,6.53,9.26,12.5,13.29,18,3.55,4.86,7.24,9.62,12,13.34,1.5,1.17,3.24,2.64,5.1,4.02,.41-.02,.82-.07,1.21-.19,1.35-.72,2.67-1.47,3.92-2.32,3.53-2.38,5.92-5.65,8.96-8.42,2.68-2.45,5.15-5.36,7.78-8,.07-.12,.14-.23,.23-.34,2.1-2.73,3.91-5.5,6.09-7.97,2.58-8.46,4.92-17.01,6.03-25.58,.76-5.9,1.77-11.7,1.88-17.64,.07-3.82,0-7.63,.08-11.43-.57-2.69-.99-4.53-.99-4.53Z"/><path d="M125.19,52.07c0,3.39-1.59,6.13-3.57,6.13s-3.61-2.77-3.61-6.19,1.62-6.17,3.61-6.13,3.57,2.8,3.57,6.19Z"/><path d="M152.69,54.24c0,3.27-1.49,5.92-3.33,5.92s-3.36-2.67-3.36-5.97,1.51-5.95,3.36-5.92,3.33,2.7,3.33,5.97Z"/><path class="m" d="M135.27,63.96s5.4,19.09-11.07,11.08"/><path class="ac" d="M106,42.99s2.67,2.91,2.16,3.31,13.1-3.34,15.75-2.79c-.6-3.62,.86-3.75,.86-3.75,0,0-9.9,.38-18.78,3.23Z"/><path class="ac" d="M140.21,40.24s1.17,3.53,.6,3.7,12.17,1.84,14.19,3.29c.82-3.4,2.09-2.99,2.09-2.99,0,0-8.42-3.27-16.87-4Z"/><path class="ag" d="M92.19,59.42s-3.94,20.08,3.41,28.47c2.69,10.28,5.22,18.07,9.71,19.76,2.37,5.66,12.42,12.14,15.92,12.48,3.46,.34,16.6,.25,20.74-4.67s17.82-18.16,16.01-21.65c3.6-2.81,6.29-13.77,.87-18.61-5.57-4.97-20.92,2.56-20.92,2.56,0,0-15.24-.89-18.37,.11s-16-3.11-19.03-2.49-.22-15.77-8.34-15.97Z"/><path class="i" d="M124.71,93.78s13.87-2.47,11.92-1.46"/><path class="ag" d="M96.39,63.61c-2.49-10.23-2.45-20.95,.11-31.08,.62-2.47,1.56-5.1,3.91-6.42,3.39-1.89,8-.13,11.21,2.19s6.04,5.25,9.83,6.19c.05-2.81-.61-5.65-1.92-8.25,6.77,5.33,14.58,9.21,22.65,11.33-2.55-3.96-5.88-7.52-9.8-10.45,8.31,4.82,17.15,8.31,26.04,10.34-1.99-3.18-4.43-6.13-7.24-8.74l21.92,11.04c-1.66-11.87-8.96-23.22-19.47-30.47C142.81,1.81,128.58-1.4,115.15,.57c-8.28,1.22-16.33,4.39-22.52,9.67-8.06,6.88-12.52,17.17-11.86,27.56,.66,10.38,13.91,43.43,22.59,49.6"/></g><path class="o" d="M38.12,207.49s.06,.05,.08,.07h0c-.01-.1-.03-.19-.03-.31-.03,.08-.04,.16-.06,.24Z"/><polygon class="o" points="38.2 207.57 38.2 207.57 38.2 207.56 38.2 207.57"/><g><line class="l" x1="104.64" y1="183.92" x2="94.76" y2="197.47"/><line class="l" x1="110.2" y1="186.68" x2="99.74" y2="200.68"/><line class="l" x1="94.76" y1="183.63" x2="115.67" y2="197.65"/><line class="l" x1="89.92" y1="190.46" x2="105.39" y2="200.7"/><path class="o" d="M189.12,154.7s-5.99-11.4-6.5-11.45c-.51-.05-8.45-8.86-12.67-10.42-4.29-1.59-22.94-12.86-22.94-12.86,0,0-.43,18.03-19.17,14.64-20.1-3.64-21.57-17.75-20.79-20.08,0,0-34.2,9.47-38.8,9.6-4.67,.13-10.41,6.04-10.41,6.04,0,0-7.87,21.41-11.67,24.07-3.84,2.7-1.16,20.27-18.99,36.01,3.42,3.05-1.04-.89,2.45,1.38,.03-.08,.04-.15,.08-.23,0,.11,.02,.2,.04,.3,2.95-.75,5.7-1.63,7.67-3.11-1.18,1.78-1.28,4.41-2.29,6.33h0c10.67,5.94,28.84,14.35,32.04,14.31,4.67-.07,6.4-23.07,6.4-23.07,0,0-7.97,97.25-7.4,102.07,.57,4.8,98.36-5.52,102.52-10.32,.55-6.23,.85-90.6,.85-90.6,0,0,5.04,14.86,4.99,15.9-.05,1.04,25.97-4.55,31.64-15.43-7.95-10.16-17.05-33.09-17.05-33.09Z"/><path class="j" d="M64.05,125.77s19.62,53.16,9.52,61.89"/><path class="j" d="M178.69,139.57s-19.48,42.47-9.15,50.53"/><path class="g" d="M81.06,204.76s-15.24,48.96-10.72,57.08"/><path class="g" d="M155.55,189.48c1.78,.7-7.21,39.71,4.86,45.49"/><path class="g" d="M168.9,274.28s-65.51,23.53-102.74,14.52"/><path class="g" d="M179.51,167.49s-13.32,9.52-9.97,21.09"/><path class="g" d="M64.05,165.48s14.1,13.24,11.29,17.59"/><path class="ae" d="M102.25,181.02l3.14-2.06s5.46,4.42,4.81,5.12-1.45,3.46-2.6,4.68-4.06,4.52-6.28,1.92c-2.24-2.62-2.76-5.87-3.57-6.96s4.51-2.7,4.51-2.7Z"/><line class="e" x1="146.06" y1="165.46" x2="138.14" y2="171.29"/><line class="e" x1="149.25" y1="167.73" x2="140.95" y2="173.94"/><line class="e" x1="142.13" y1="164.23" x2="149.25" y2="172.62"/><line class="e" x1="137.23" y1="168.08" x2="145.13" y2="175.25"/></g><path class="d" d="M277.18,333.26c1-3-2-5-1-8,2.89,.96,5.79,2.16,8.8,2.91-4.12-18.57-14.19-35.89-15.22-48.84-10.44-38.1-14.02-48.97-23.58-47.08-18.76,1.56-29.06,10.68-29.06,10.68-45.38,28.31-79.94,40.32-79.94,40.32-8.29,11.44-2,40,5,40,4.48,0,31,1,41.13-3.07,22.01-8.83,46.47-29.15,52.12-36.12,.5-.61,1.46-.42,1.68,.34,2.66,9.55,15.41,34.97,23.12,51.06,4.77-3.64,10.86-4.82,16.96-2.21Z"/><path class="f" d="M184.18,340.26c5,0,8,4,13,3-2-3-4-6-4-10,4,3,8,6,13,8,0-2,0-6,2-5,2.26,.64,4.51,1.6,6.7,2.8-3.54-12.35-6.7-22.08-7.7-32.8-.03-.27-1.47-5.06-1.53-5.33-2.47-10.69-2.33-19.77-4.47-26.67-5.19-16.78-12.04-22.71-17-22-16.44,2.35-50.59,19.86-51,20-41,14-55.49,15.21-65,15-2.14-.05-2.3,2.58-2.95,4.62-4.49,14.03,7.23,42.21,11.15,43.45,14.45,4.58,25.8,4.93,34.8,.93,18.36-8.16,42.07-23.26,52-30.89,2.65-2.04,6.5-.92,7.65,2.22,3.32,9.04,8.55,23.75,13.41,36.3,0-1.31-.06-2.57-.06-3.63Z"/><path class="ah" d="M202.68,307.41c-.81,8.31,0,16.7,2.37,24.71,.07,.25,.46,.14,.39-.11-2.36-7.98-3.16-16.32-2.35-24.6,.02-.26-.38-.25-.4,0h0Z"/><path class="ah" d="M165.23,304.36c-1.08-1.03-2.9-1.16-4.1-.25-.2,.15,0,.5,.2,.35,1.06-.8,2.65-.73,3.61,.19,.19,.18,.47-.1,.28-.28h0Z"/><path class="ah" d="M166.51,304.85c2.2-2.1,5.42-2.97,8.38-2.25,.25,.06,.36-.32,.11-.39-3.1-.75-6.46,.15-8.77,2.35-.19,.18,.1,.46,.28,.28h0Z"/><path class="ah" d="M166.71,305.76c2.76-.49,5.61-.16,8.19,.92,.24,.1,.34-.29,.11-.39-2.65-1.11-5.57-1.42-8.4-.92-.25,.04-.15,.43,.11,.39h0Z"/><path class="ah" d="M236.64,282.58l-3.85-.89c-.25-.06-.36,.33-.11,.39l3.85,.89c.25,.06,.36-.33,.11-.39h0Z"/><path class="ah" d="M237.41,282.63c-.39-.53-.42-1.32,.01-1.84s1.15-.67,1.75-.42c.1,.04,.22-.04,.25-.14,.03-.11-.04-.2-.14-.25-.57-.23-1.26-.15-1.76,.19-.54,.36-.84,.99-.8,1.64,.02,.36,.14,.72,.35,1.01,.06,.09,.17,.13,.27,.07,.09-.05,.14-.19,.07-.27h0Z"/><g><path class="q" d="M272.99,367.06s-.48,1.92,.18,4.07c.46,2.68-.11,3.31-.11,3.31,0,0,.1,4.28-.23,4.55s1.65,1.45,2.51,1.46,12.75,3.31,12.75,3.31c0,0,12.84,3.64,13.86,3.58s3.62,1.6,15.82,1.14,22.5-4.15,22.48-4.41,2.29-1.81-2.82-3.45c-5.89-1.2-6.1-.93-7.97-1.72s-4.74-1.27-5.93-2.1c1.21-.71,1.12-2.38-.25-2.56s-12.98-4.37-12.98-4.37c0,0-9.83-5.57-10.29-5.67s-1.77,.87-1.77,.87c0,0-3.41-2.48-3.87-2.46s-3.9-.79-6.51,6.52c-.29,1.04,.21,2.04,.21,2.04,0,0-9.99-4.79-9.9-5.18s-5.18,1.07-5.18,1.07Z"/><path class="af" d="M272.6,379.01s-.31,.74,.05,1.13,3.73,1.87,5.32,1.77c1.74,.67,5.65,1.47,5.65,1.47l8.2,2.1s9.05,3.09,10.43,3.13c1.97,.66,11.83,1.25,12.73,1.07s9.9-.84,10.34-1.12,8.04-1.24,9.27-1.7,5.77-.98,6.61-2.19c.84-1.21-.18-2.18-.48-1.97-.27,.85-.03,.97-1.6,1.58-1.56,.61-9.88,3.03-13.3,3.1-3.74,.48-7.13,1.19-8.85,1.16s-8.67,.12-10.86-.27-11.65-2.55-13.05-3.11-12.22-2.77-12.35-3.27-5.64-1.41-5.64-1.41c0,0-2.67-.94-2.46-1.46Z"/><path class="ab" d="M272.3,379.8s.22,3.77,.37,4.15c.17,.45,5.17,2.61,6.99,2.5s14.48,4.21,14.77,4.44,11.65,3.48,13.18,3.25c2.62,1,17.91,.24,19.92-.66,3.19-.19,12.89-2.69,13.21-2.97s1.85-1.66,1.85-1.66c0,0,.03-5.43-.77-5.38-.26,1.43-1.3,1.98-4.6,2.77-3.3,.79-12.31,2.38-14.26,2.67s-11.18,1.77-17.06,.29c-5.87-1.48-12.43-2.65-14.76-3.54-2.32-.9-11.57-3.58-13.17-3.74s-6.02-2.09-6.02-2.09"/></g><path class="h" d="M102.07,289.59c8.11,7.67,7.11,26.67,7.11,26.67"/><g><polygon class="aa" points="74.27 397.01 0 393.15 11.64 352.96 74.63 362.33 74.27 397.01"/><polygon class="y" points="74.27 397.01 0 393.15 74.63 362.33 74.27 397.01"/><polygon class="a`" points="74.7 362.34 73.44 395.79 1.83 391.84 11.73 352.97 .11 393.15 74.34 397.01 74.7 362.34"/><g><path class="r" d="M18.84,361.86s.14-.06,.27-.09c.13-.03,.25-.03,.38,0,.13,.02,.24,.08,.35,.18,.09,.09,.15,.24,.17,.44,1.6-.23,2.93-.31,4.01-.24,1.08,.08,1.92,.25,2.55,.53,.62,.27,1.04,.62,1.26,1.05,.22,.43,.26,.88,.13,1.37-.13,.49-.45,.97-.91,1.47-.48,.5-1.1,.95-1.87,1.35-.78,.41-1.69,.74-2.74,1.01-1.06,.26-2.23,.41-3.51,.42-.03,.13-.06,.33-.11,.61s-.11,.6-.16,.94c-.06,.35-.12,.73-.19,1.12-.07,.39-.14,.76-.2,1.12-.05,.37-.11,.7-.15,.99-.04,.29-.06,.51-.07,.66-.02,.43-.18,.74-.48,.89-.3,.16-.68,.2-1.14,.11l2.42-13.93Zm5.36,1.36c-.41-.05-.87-.08-1.38-.05-.51,.02-.99,.09-1.46,.23-.47,.14-.87,.36-1.21,.65-.34,.29-.55,.69-.61,1.18l-.57,2.94c1.55-.11,2.84-.3,3.85-.57,1.01-.27,1.79-.58,2.36-.92,.57-.34,.95-.7,1.13-1.08,.18-.37,.22-.73,.09-1.05-.12-.32-.37-.61-.76-.85-.4-.24-.87-.39-1.45-.47Z"/><path class="r" d="M29.86,359.56c.13-.11,.26-.22,.38-.32,.13-.1,.29-.14,.49-.11,.13,.02,.22,.17,.29,.45s.1,.65,.11,1.1c0,.45,0,.96-.04,1.55-.04,.58-.08,1.18-.15,1.8-.07,.63-.14,1.25-.22,1.87-.08,.63-.16,1.19-.23,1.72-.07,.52-.14,.97-.19,1.34-.05,.38-.1,.63-.12,.76-.03,.16-.09,.29-.18,.38-.1,.09-.2,.16-.33,.2-.12,.04-.27,.07-.42,.07-.15,0-.3,0-.43-.02-.02,0-.05,0-.08-.02-.04-.01-.06-.01-.07-.02,.04-.24,.09-.59,.16-1.07,.07-.48,.14-1.03,.23-1.63,.08-.6,.17-1.23,.26-1.89,.1-.65,.18-1.28,.26-1.88,.08-.59,.13-1.12,.19-1.59,.06-.47,.1-.82,.13-1.04,.01-.06,.01-.17,.02-.33,0-.15,0-.32,0-.5,0-.18,0-.34-.02-.5,0-.15-.02-.27-.03-.32Z"/><path class="r" d="M31.47,368.39c.03-.73,.22-1.41,.58-2.06,.36-.64,.83-1.19,1.41-1.64,.57-.45,1.23-.77,1.97-.98,.73-.21,1.5-.25,2.31-.13,.14,.02,.32,.06,.54,.13,.23,.06,.46,.15,.71,.26,.24,.1,.48,.23,.71,.37,.23,.14,.42,.3,.59,.48,.16,.17,.28,.37,.35,.57,.06,.2,.05,.42-.02,.65-.43,.2-.91,.32-1.44,.35-.54,.03-1.08,.03-1.63,0-.55-.03-1.09-.06-1.62-.1-.53-.03-1-.01-1.42,.07-.42,.08-.75,.25-1.01,.51-.26,.26-.4,.66-.4,1.2,.06,.51,.26,.9,.57,1.16,.31,.27,.69,.46,1.13,.56,.44,.1,.93,.14,1.46,.1,.52-.03,1.05-.09,1.55-.18,.51-.1,.98-.2,1.43-.31,.44-.12,.8-.22,1.09-.29,.12,.01,.23,.07,.3,.16,.07,.09,.1,.19,.09,.31-.29,.35-.71,.64-1.25,.88-.55,.24-1.15,.41-1.8,.53-.66,.11-1.34,.15-2.05,.12-.7-.03-1.34-.15-1.94-.35-.6-.2-1.1-.5-1.51-.89-.41-.39-.65-.89-.72-1.49Zm5.98-3.86c-.17-.02-.39-.03-.65-.03-.25,0-.51,.02-.76,.08s-.47,.14-.66,.26c-.19,.12-.31,.28-.34,.5l3.73-.06c-.12-.22-.3-.4-.54-.51-.23-.12-.48-.19-.76-.23Z"/><path class="r" d="M48.85,369.88c-.31,.35-.67,.66-1.06,.93s-.83,.49-1.28,.66c-.46,.17-.95,.28-1.47,.33-.52,.05-1.06,.01-1.62-.09-.21-.02-.42-.07-.64-.14-.22-.07-.43-.17-.61-.29-.19-.11-.33-.26-.43-.43-.11-.17-.14-.37-.11-.61-.04-.5,.05-.99,.27-1.47,.22-.47,.53-.92,.9-1.34,.38-.42,.83-.79,1.33-1.12,.5-.33,1.03-.59,1.58-.79,.54-.2,1.09-.33,1.64-.37,.54-.05,1.07,0,1.55,.15,.38,.05,.66,.2,.84,.45s.31,.57,.36,.96c.06,.39,.07,.83,.04,1.32-.03,.5-.07,1.01-.12,1.53-.04,.53-.08,1.05-.11,1.57-.03,.52-.02,1,.04,1.44l-1.03-.12c0-.3-.01-.56,0-.78,0-.23,0-.44,.02-.63,0-.19,0-.38-.01-.57,0-.19-.03-.39-.06-.62Zm-.63-3.51c-.36-.07-.74-.07-1.14,0-.4,.06-.8,.18-1.18,.34-.39,.16-.76,.36-1.11,.61s-.67,.51-.96,.78c-.28,.28-.5,.57-.67,.85-.17,.29-.26,.57-.28,.83-.01,.26,.06,.5,.23,.7,.17,.21,.45,.36,.84,.47,.58,.06,1.15,0,1.7-.2,.56-.2,1.07-.45,1.52-.78,.46-.32,.85-.68,1.17-1.08,.33-.39,.54-.77,.67-1.12,.13-.35,.13-.66,.01-.92-.12-.26-.39-.42-.8-.47Z"/><path class="r" d="M52.7,372.75c.67-.12,1.29-.28,1.88-.48,.58-.2,1.07-.4,1.47-.61s.68-.41,.83-.61c.15-.2,.13-.36-.05-.49-.19-.14-.58-.22-1.17-.25-.59-.04-1.45,0-2.57,.13-.33-.05-.61-.14-.86-.29-.25-.14-.45-.3-.62-.48-.16-.18-.28-.37-.35-.57-.07-.21-.1-.39-.08-.57,.03-.27,.17-.53,.4-.78,.24-.25,.55-.47,.92-.66,.37-.2,.79-.37,1.26-.51,.47-.13,.96-.23,1.46-.28,.5-.05,1.01-.07,1.52-.04,.51,.03,.99,.12,1.45,.26,.26,.03,.41,.16,.43,.38,.02,.23,.01,.57-.04,1.06-.35-.2-.73-.36-1.13-.48-.41-.12-.83-.2-1.26-.24-.43-.03-.85-.04-1.26,.01-.42,.04-.79,.13-1.11,.26-.33,.13-.61,.31-.84,.54-.23,.22-.36,.49-.42,.81-.02,.17,.05,.3,.19,.37,.14,.07,.31,.12,.52,.14,.21,.03,.42,.03,.65,.02,.23-.01,.41-.01,.54,0,1.23-.09,2.18-.07,2.84,.05,.66,.12,1.09,.31,1.3,.56,.2,.25,.21,.55,.02,.88-.2,.33-.54,.67-1.04,1.01-.5,.34-1.12,.65-1.87,.95-.75,.3-1.58,.53-2.48,.7-.04,0-.09-.04-.14-.11-.04-.07-.09-.15-.15-.24-.05-.09-.09-.18-.12-.26-.04-.08-.07-.14-.09-.17Z"/><path class="r" d="M59.57,371.7c0-.68,.12-1.32,.4-1.93,.28-.61,.66-1.12,1.13-1.55,.47-.42,1.02-.74,1.65-.93,.62-.2,1.28-.25,1.98-.14,.12,.02,.28,.06,.47,.11,.2,.06,.4,.14,.62,.24,.22,.09,.43,.21,.63,.34,.2,.13,.38,.28,.53,.45,.15,.16,.26,.34,.33,.53,.06,.19,.07,.4,0,.61-.37,.19-.77,.3-1.23,.34-.46,.03-.93,.04-1.4,.01-.48-.02-.94-.05-1.4-.08-.46-.02-.86,0-1.21,.08-.35,.08-.63,.24-.85,.49-.21,.24-.31,.62-.28,1.13,.08,.47,.27,.84,.55,1.08,.28,.25,.62,.42,1,.52,.39,.09,.81,.12,1.26,.08,.45-.03,.9-.09,1.33-.18,.43-.09,.84-.2,1.22-.3,.38-.11,.68-.21,.93-.28,.11,.01,.2,.06,.26,.15,.07,.09,.1,.18,.09,.29-.24,.33-.58,.61-1.04,.84-.46,.23-.97,.4-1.52,.51-.57,.11-1.15,.15-1.76,.13-.6-.03-1.16-.13-1.68-.32-.52-.19-.97-.46-1.34-.82-.37-.36-.6-.83-.69-1.38Zm4.96-3.67c-.15-.02-.34-.02-.56-.02-.22,0-.44,.03-.65,.08s-.4,.14-.56,.25c-.16,.11-.25,.27-.27,.47l3.21-.09c-.12-.21-.28-.37-.49-.48-.21-.11-.43-.18-.67-.21Z"/><path class="r" d="M17.93,381.3c-.19-.05-.36-.1-.49-.17-.14-.07-.19-.18-.16-.32,.03-.13,.1-.25,.23-.37,.13-.11,.27-.23,.43-.35,.15-.12,.3-.25,.43-.38,.14-.14,.24-.3,.29-.47,.03-.12,.09-.31,.16-.57,.07-.26,.15-.56,.24-.89,.09-.33,.18-.67,.28-1.04,.09-.36,.18-.71,.26-1.04,.09-.33,.16-.62,.23-.88,.07-.25,.11-.44,.13-.56,.08-.07,.2-.15,.35-.23,.14-.08,.28-.15,.43-.19,.15-.05,.27-.06,.39-.03,.12,.03,.2,.12,.23,.29l-1.17,5.57s.2,0,.46,.03,.58,.05,.96,.08c.38,.03,.81,.05,1.27,.08,.46,.02,.91,.03,1.35,.02,.43,0,.84-.03,1.19-.06,.37-.04,.66-.1,.87-.2l.96-5.51c.04-.07,.13-.12,.25-.15,.12-.02,.27-.04,.43-.05,.16,0,.31,0,.47,.02s.26,.03,.35,.05c-.04,.21-.08,.54-.14,.99-.06,.45-.13,.96-.2,1.53-.08,.57-.16,1.17-.24,1.8-.08,.64-.16,1.24-.23,1.82-.08,.58-.14,1.1-.2,1.56-.05,.46-.09,.81-.12,1.03-.06,.63-.07,1.25-.04,1.85,.03,.61,.18,1.21,.43,1.79-.29,.06-.59,.12-.9,.16-.31,.04-.69,.04-1.15,.01-.23-.87-.34-1.78-.31-2.73,.03-.95,.11-1.85,.24-2.72-.56-.06-1.06-.11-1.51-.15-.45-.04-.89-.07-1.34-.08-.44,0-.9,.02-1.37,.07-.49,.05-1.02,.14-1.63,.27-.21,.69-.35,1.42-.44,2.19-.09,.76-.11,1.56-.08,2.37l-1.8,.62,.2-5.05Z"/><path class="r" d="M31.11,375.81c.26,.09,.62,.17,1.08,.23,.46,.06,.97,.12,1.53,.16,.56,.05,1.13,.09,1.74,.13,.6,.04,1.17,.09,1.71,.14s1.01,.12,1.45,.19c.43,.08,.76,.17,1,.27l-.12,.84c-.34,0-.81,0-1.4-.06-.59-.04-1.22-.1-1.9-.16-.67-.06-1.35-.11-2.04-.14-.69-.04-1.3-.03-1.82,.03-.16,.37-.27,.68-.36,.93-.08,.25-.14,.46-.19,.65-.05,.19-.08,.37-.1,.54-.03,.17-.04,.35-.05,.54-.02,.19-.04,.41-.06,.66-.02,.25-.07,.57-.12,.93,.67,.06,1.31,.08,1.95,.07,.63-.01,1.26-.03,1.88-.06,.62-.02,1.23-.04,1.84-.05,.62,0,1.24,.02,1.87,.07l-.13,.94-7.45,.23-.36,2.92c.99,.07,1.88,.12,2.67,.12,.8,0,1.55,0,2.26,0,.71,0,1.41,0,2.09,0,.68,0,1.41,.02,2.16,.08-.01,.1-.06,.23-.14,.36-.08,.14-.18,.26-.3,.38-.11,.11-.24,.19-.37,.24-.14,.05-.26,.03-.36-.06-.71,.02-1.5,.04-2.36,.06-.87,0-1.75,0-2.64,.02-.9,0-1.78,.01-2.62,.01-.85,0-1.59,0-2.23,.01l1.92-11.23Z"/><path class="r" d="M41.41,387.54c.17-.39,.32-.91,.47-1.56,.15-.65,.29-1.35,.43-2.1,.14-.75,.26-1.53,.38-2.32l.3-2.25c.09-.7,.17-1.32,.24-1.86s.12-.95,.16-1.22l1.44,.19-1.49,9.93,9.48,.96c.2,.07,.27,.17,.24,.32-.03,.14-.14,.28-.32,.41-.17,.13-.4,.22-.68,.3-.28,.07-.57,.07-.86,0l-9.79-.78Z"/><path class="r" d="M60.71,379.13c.13,.01,.34,.04,.59,.09,.27,.04,.56,.1,.86,.19,.31,.08,.63,.18,.96,.3,.33,.12,.61,.26,.88,.42,.26,.16,.47,.35,.63,.56,.16,.21,.23,.45,.2,.72-.05,.58-.25,1.07-.59,1.47-.35,.41-.79,.75-1.32,1.03-.53,.27-1.12,.5-1.77,.65-.66,.16-1.32,.27-1.97,.34-.67,.07-1.29,.11-1.88,.1-.59,0-1.1-.01-1.5-.04l-.48,3.75c0,.09-.08,.13-.2,.15s-.27,.02-.43,.01-.32-.03-.47-.05c-.15-.03-.25-.03-.3-.03,.07-.66,.13-1.3,.2-1.94,.06-.64,.13-1.3,.22-1.98,.15-.84,.28-1.57,.38-2.21,.09-.63,.22-1.18,.36-1.64,.14-.45,.34-.82,.57-1.12,.24-.28,.57-.5,.99-.65,.42-.15,.96-.23,1.62-.24,.65-.01,1.47,.03,2.44,.12Zm-4.25,2.25c-.04,.13-.08,.29-.15,.46-.06,.18-.13,.37-.19,.56-.06,.2-.11,.39-.14,.57-.04,.2-.03,.36,.01,.51,.04,.15,.13,.27,.26,.36,.14,.1,.34,.14,.6,.12,.27,.02,.62,.04,1.05,.04,.43,0,.89-.01,1.37-.05,.48-.03,.96-.09,1.45-.19,.49-.09,.93-.23,1.32-.39,.4-.17,.72-.39,.98-.65,.26-.26,.41-.58,.44-.96-.04-.28-.16-.52-.36-.74-.21-.21-.47-.39-.79-.53-.32-.14-.68-.25-1.07-.33-.39-.07-.8-.12-1.22-.13-.41-.02-.82,0-1.22,.05-.41,.05-.77,.13-1.11,.24-.33,.11-.6,.26-.82,.44-.22,.17-.36,.38-.41,.61Z"/></g></g><path class="ae" d="M131.9,265.06s1.86-.02,3.19-1.16c.91-2.12-20.39-6.79-20.39-6.79,0,0-3.79-1.12-5.05-1.75-1.22-.61-4.26-2.53-4.26-2.53,0,0,2.98-.91,5.36-1.21,.6-.07,1.18-.14,1.76-.21,2.66-2.14,1.66-5.14,.4-5.4-.39,.01-.69,.02-.83,.01-.77-.02-3.68,.56-4.12,.98-.44,.42-6.22,1.43-6.22,1.43-1.01-.74-8.65,1.79-10.19,2.47-1.54,.68-7.43,15.43-3.76,17.8,3.68,2.38,14.82,4.56,15.67,4.21,.85-.34,14.4,1.41,15.64,.68,1.24-.73,3.61-.36,2.43-1.99-.96-1.34,3.74,1.37,7.3-.1,3.56-1.47,1.91-3.11,1.91-3.11,0,0,1.29,.42,4.32,0,3.72-2.21-3.17-3.3-3.17-3.3Z"/><path class="ae" d="M39.04,252.48c10.74,12.78,49.14,14.78,49.14,14.78l2-14-27.46-9"/><path class="ae" d="M91.42,251.01c-.17,.53-.91,.65-1.39,.71-.78,.09-1.53,.18-2.14,.71-.3,.25-.12,.73,.22,.84,.88,.27,1.79,.18,2.63-.18,.49-.21,.19-.91-.25-.93l-4.8-.27c-.64-.04-.64,.96,0,1l4.8,.27-.25-.93c-.59,.26-1.25,.26-1.86,.08l.22,.84c.57-.49,1.48-.36,2.17-.53,.72-.18,1.38-.59,1.62-1.33,.2-.61-.77-.88-.96-.27h0Z"/><path class="ae" d="M85.27,266.61c1.14,1.23,2.56,2.16,4.14,2.73,.25,.09,.55-.1,.62-.35,.08-.28-.09-.52-.35-.62-1.41-.51-2.68-1.38-3.7-2.48-.44-.47-1.14,.23-.71,.71h0Z"/><path class="ae" d="M92.34,250.99c-2.08,.34-4.12,.83-6.22,1.02s-4.13,.21-6.19,.07c-.64-.04-.64,.96,0,1,2.14,.15,4.29,.12,6.43-.09s4.16-.7,6.24-1.04c.63-.1,.36-1.07-.27-.96h0Z"/><g><path class="w" d="M117.97,398.64l24.82-.32c.43,0,.77-.34,.77-.75l.09-34.34c0-.44-.36-.8-.8-.79l-25.87,.34c-.44,0-.79,.37-.78,.81l.98,34.33c.01,.41,.37,.74,.79,.73Z"/><path class="w" d="M118.13,391.91c3.28-.04,3.92-1.82,4.04-2.44l-3.97-.78c.11-.54,.47-.85,.62-.92-.67,.3-3.78,.03-6.32-1.72-2.33-1.6-3.48-3.91-3.41-6.85,.07-2.74,.78-6.23,3.76-7.28,2.09-.73,4.23,.05,4.57,.48l3.81-1.2c-.6-2.61-4.41-3.96-7.55-3.56-1.96,.19-8.37,1.62-8.62,11.47-.2,7.84,5.93,12.1,11.7,12.74,.5,.05,.95,.06,1.37,.06Z"/><path class="t" d="M113.49,367.64c1.01-.13,1.82-.07,2.85,.15l-.12-4.24c-.01-.42,.32-.77,.75-.78l7.68-.1,1.01,35.87-7.68,.1c-.42,0-.78-.34-.79-.76l-.17-6.01c-.12,0-.23-.01-.35-.02-5.78-.65-11.7-4.91-11.62-12.74,.1-9.85,6.49-11.27,8.45-11.47Zm-1.18,18.42c1.55,1.06,3.3,1.57,4.59,1.75l-.44-15.76c-.85-.37-2.17-.68-3.73-.12-2.96,1.05-3.62,4.54-3.65,7.28-.03,2.94,.88,5.25,3.24,6.85Z"/><path class="v" d="M117.96,398.03l24.84-.32c.42,0,.77-.34,.77-.75v.61c0,.41-.35,.74-.77,.75l-24.82,.32c-.42,0-.78-.32-.79-.73l-.02-.61c.01,.41,.37,.74,.79,.73Z"/><path class="s" d="M116.98,362.77l25.87-.34c.44,0,.8,.35,.8,.79v.78c0-.44-.36-.8-.8-.79l-25.85,.34c-.44,0-.79,.37-.78,.81l-.02-.78c-.01-.44,.34-.81,.78-.81Z"/><path class="u" d="M141.82,364.5l-10.99,.14s2.94,16.66,6.79,16.75c3.85,.09,4.19-16.89,4.19-16.89Z"/><path class="s" d="M137.93,383.96c-3.98,.05-3.02,9.89,.13,9.85s2.86-9.89-.13-9.85Z"/><g class="x"><path class="w" d="M112.85,371.93c-2.9,1.03-3.65,4.36-3.75,7.06-.01-.25-.03-.49-.02-.75,.07-2.74,.78-6.23,3.76-7.28,1.33-.47,2.67-.32,3.57-.04l.03,.97c-.89-.28-2.25-.43-3.58,.04Z"/><path class="w" d="M116.75,390.89c.08,0,.16,.01,.23,.02l.03,.96c-.08,0-.16,0-.25-.02-5.77-.65-11.9-4.91-11.7-12.74,0-.06,0-.11,0-.16,.23,7.32,6.11,11.32,11.68,11.94Z"/></g></g><g class="n"><path class="ad" d="M238.97,287.38c3.18-.42,6.48-.45,9.55,.48s5.92,2.94,7.37,5.8c1.49,2.93,1.46,6.56,3.4,9.21,1.01,1.38,2.47,2.37,3.62,3.63,2.75,3.01,3.56,7.66,1.98,11.43-.96,2.28-2.7,4.25-3.17,6.69-.52,2.73,.69,5.55,.36,8.31-.04,.33-.11,.67-.32,.91-.77,.88-2.12-.25-2.7-1.27-8.03-14.21-15.14-28.94-21.27-44.07"/></g><g class="n"><path class="ad" d="M337.62,380.8c-2.47,1.06-5.19,1.52-7.87,1.33-.53-.04-1.08-.1-1.59,.06-.41,.13-.76,.4-1.1,.66l-2.71,2.07-1.23,.94c-.18,.14-.38,.3-.44,.52-.08,.34,.2,.68,.53,.78s.69,.04,1.03-.02l15.13-2.92c.33-.06,.69-.14,.92-.39,.46-.5,.1-1.33-.42-1.76s-1.19-.7-1.57-1.26"/></g><path class="ag" d="M98.6,99.92c1.29,6.32,8.21,10.9,8.97,17.29,.33,2.78-.56,5.65,.24,8.34,1.54,5.19,8.98,9.11,7.05,14.19-.72,1.9-2.72,3.35-2.97,5.35-.43,3.51,4.38,5.38,6.74,8.2,1.9,2.26,2.21,5.27,3.49,7.86s4.53,4.95,7.35,3.7c1.51-.67,2.33-2.15,3.56-3.19,2.61-2.22,7.36-2.85,8-6.03,.34-1.65-.71-3.31-.58-4.99,.22-2.85,3.5-4.53,6.29-5.86s5.89-3.53,5.35-6.34c-.3-1.56-1.71-2.83-1.84-4.41-.2-2.29,2.34-4.29,1.93-6.55-.19-1.03-.96-1.89-1.59-2.77-2.89-4.1-2.51-9.86,.9-13.62,1.16-1.28,2.63-2.34,3.7-3.68,2.48-3.11,2.5-7.25,2.43-11.08-.01-.55-.04-1.16-.45-1.57-.52-.54-1.43-.53-2.22-.48-19.09,1.21-38.18,2.42-57.27,3.63"/><path class="ag" d="M95.18,10.52c-1.76,4.27-8.14,6.2-11.1,10.03-3.97,5.14-.69,11.82-1.94,17.75-.86,4.08-3.92,7.94-3.32,12.06,.58,4.02,4.58,7.45,4.57,11.49,0,2.69-1.82,5.29-1.37,7.96,.24,1.46,1.15,2.79,2.08,4.07,5.26,7.2,11.91,13.76,19.65,19.39,5.78-9.3-4.17-18.99-7.57-29-3.4-10.01-.16-21.82,2.77-31.92,.77-2.65,2.02-5.22,2.38-7.92,.75-5.57-2.66-11.38-8.53-14.53"/><g class="n"><path class="ad" d="M164.71,303.68c-3.78-.9-7.6-1.8-11.5-1.88s-7.97,.72-11.01,2.92c-2.12,1.53-3.63,3.66-5.74,5.21-1.68,1.24-3.77,2.15-4.92,3.81-.86,1.25-1.1,2.82-2.13,3.96-.94,1.04-2.39,1.58-3.59,2.38-1.62,1.08-2.8,2.68-3.25,4.44-.08,.32-.14,.69,.08,.96,.22,.29,.66,.36,1.04,.42,2.95,.4,6.18,.75,8.75-.61,2.34-1.23,3.58-3.6,5.51-5.31,1.96-1.73,4.57-2.72,7.02-3.83,6.68-3.04,12.58-7.25,18.43-11.43"/></g><g class="n"><path class="ad" d="M168.28,203.77c-3.34,2.19-6.93,4.73-7.9,8.6-1.09,4.38,1.59,9.01,.61,13.42-.44,1.99-1.6,3.76-2.14,5.73-.62,2.25-.38,4.73,.67,6.81,.62,1.24,1.55,2.38,2.8,2.96s2.86,.53,3.92-.37c1.38-1.18,1.42-3.27,1.33-5.09-.24-5.17-.53-10.38,.19-15.5,.67-4.8,2.23-9.63,1.32-14.39"/></g><path class="ae" d="M140.95,236.46c-13.78-9.21-11.78-10.21-13.78-9.21s-6.73,3.44-2.86,7.72,11.81,6.71,11.81,6.71l4.83-5.22Z"/><line class="ae" x1="104.18" y1="65.26" x2="106" y2="69.35"/><line class="k" x1="104.18" y1="69.35" x2="110.73" y2="65.63"/><line class="k" x1="155.73" y1="69.35" x2="149.18" y2="65.63"/></g></g></g></g></svg>