<?xml version="1.0" encoding="UTF-8"?><svg xmlns="http://www.w3.org/2000/svg" viewBox="0 0 224.31 574.09"><defs><style>.d{fill:#e5bb9e;}.e{stroke:#58595b;}.e,.f,.g{fill:#a7a9ac;}.e,.h,.i,.j,.k,.l,.g,.m{stroke-miterlimit:10;}.e,.h,.i,.g{stroke-width:.25px;}.n{opacity:.31;}.o,.k{fill:#a8bcdb;}.h,.i,.l,.m{fill:none;}.h,.l,.g{stroke:#231f20;}.p{isolation:isolate;}.q{fill:#be1e2d;}.r,.s,.t,.u,.v{fill:#9497a4;}.r,.t{mix-blend-mode:screen;}.r,.u,.w{opacity:.3;}.x{fill:#e2a67d;}.i,.k{stroke:#414042;}.y{fill:#896c50;}.a`{fill:#49332c;}.aa{fill:#754c29;}.s,.t{opacity:.4;}.s,.u,.w{mix-blend-mode:multiply;}.ab{fill:#c49a6c;}.j{fill:#ceb02f;stroke:#7c4735;}.k,.l{stroke-width:.5px;}.ac{fill:#e6e7e8;}.ad{fill:#4a342d;}.m{stroke:#c6b06e;}.ae{fill:#f4c7a7;}</style></defs><g class="p"><g id="a"/><g id="b"><g id="c"><g><path class="ae" d="M19.94,198.09l-11,57s-6.18,25.71-7,38c-1,15-2.14,38.31,0,37s14-2,14-2c0,0,13.91-74.58,15-81s14.22-39.98,16-39-21.84-11.58-27-10Z"/><path class="ae" d="M138.35,27.58s-57.91,1.01-62.91,.01c-4.38-.88-3.85,42.98-2.76,55.35,3.39,6.8,8.56,13.16,12.34,19.05,3.37,5.26,6.91,10.49,11.54,14.74,1.47,1.35,3.19,3.05,5.03,4.66,.41,.01,.81,0,1.2-.1,1.35-.65,2.67-1.35,3.93-2.16,3.57-2.28,6.02-5.64,9.14-8.43,2.78-2.49,5.37-5.52,8.13-8.26,.07-.12,.15-.25,.24-.36,2.23-2.89,4.16-5.86,6.5-8.5,2.8-9.31,5.34-18.78,6.55-28.35,.84-6.6,1.95-13.12,2.06-19.79,.07-4.28,0-8.56,.09-12.83-.63-2.99-1.09-5.04-1.09-5.04Z"/><ellipse cx="95.44" cy="58.59" rx="3.5" ry="6.5"/><path class="ae" d="M119.92,464.73c-.34,13,4.48,66.03,4.48,66.03l20.98,12.67,1.84-13.39s-5.35-55.73-3.4-62.68c1.96-6.95-22.91-6.6-22.91-6.6l-.99,3.98Z"/><path class="ae" d="M60.29,532.09c-1.13,9.58-26.49,27.05-29.3,29.87-5.64,2.25-5.64,3.94-5.64,3.94,1.13,.56,3.94-1.69,3.94-1.69-6.2,3.94-4.51,7.33-.56,2.25-2.82,3.38-2.82,5.64,0,4.51s3.38-3.94,3.38-3.94c-2.82,3.94-3.94,6.76,0,5.07,1.69,2.82,6.2,2.82,13.52-1.13,9.02-1.69,15.78-11.83,18.03-12.4,7.33-2.82,11.27-7.33,11.27-9.02-1.13-6.76-.56-17.47-.56-17.47h-14.09Z"/><path class="m" d="M111.05,68.09s5.56,20.79-11.11,11.7"/><path class="a`" d="M82.53,49.2s2.91,2.67,2.49,3.15,11.99-5.05,14.65-4.81c-1.11-3.73,.31-4.07,.31-4.07,0,0-9.51,1.69-17.45,5.73Z"/><path class="ae" d="M156.58,209.37c.16,.32,.35,.64,.61,.95,1.15,1.4,2.54,2,4.11,2.77,1.81,.9,3.43,2.11,5.24,3.02,3.51,1.77,7.23,3.62,11.05,4.64,2.45,1.3,4.07,2.13,4.07,2.13,0,0,.19,59.18,3.45,66.75,2.86,6.62,9.71,34.47,11.06,35.21,1.27,.69-2.88,6.1-6.23,9.25-3.75,3.52-23.44-41.17-24-44-.95-4.82-15.06-75.05-9.36-80.72Z"/><path class="a`" d="M116.61,43.33s.69,3.89,.07,4.01,12.6,3.26,14.57,5.07c1.39-3.64,2.71-3.05,2.71-3.05,0,0-8.58-4.43-17.35-6.03Z"/><path class="ae" d="M84.02,110.97s.42,16.62-2.58,17.62,24.63,36,43.31,0c-.31-13-3.31-15.57,.19-18.29"/><path class="ad" d="M69.69,63.24s-3.54,20.29,3.1,29.05c2.46,10.63,4.8,18.77,8.98,20.82,2.23,6.03,11.84,13.63,15.25,14.31s16.66,1.8,20.93-3.17c4.28-4.97,19.03-18.71,17.05-22.7,3.95-2.95,6.92-15.15,.95-20.74s-22.18,2.26-22.18,2.26c0,0-15.32-1.36-18.39-.38s-15.25-3.62-18.07-3.05-.2-16.2-7.63-16.4Z"/><path class="j" d="M100.44,97.59s14-2,12-1"/><line class="l" x1="81.22" y1="201.28" x2="71.92" y2="216.69"/><line class="l" x1="86.57" y1="204.24" x2="76.57" y2="220.24"/><line class="l" x1="71.92" y1="201.28" x2="91.94" y2="216.69"/><line class="l" x1="67.46" y1="208.98" x2="81.93" y2="220.24"/><path class="ad" d="M73.51,67.52c-2.26-10.42-2.23-21.34,.1-31.75,.57-2.55,1.43-5.29,3.59-6.74,3.15-2.12,7.48-.53,10.53,1.74,3.05,2.26,5.81,5.24,9.51,6.09,.05-2.97-.6-5.95-1.88-8.63,6.66,5.33,14.51,9.17,22.81,11.16-2.64-4.21-6.07-7.92-10.05-10.88,8.51,4.81,17.78,8.25,27.37,10.16-2.16-3.46-4.8-6.63-7.82-9.38l24.2,11.43c-1.88-13.46-10.09-25.83-21.58-33.1C118.82,.34,104.29-1.79,91.11,1.52c-7.89,1.98-15.37,5.9-21.02,11.74-7.21,7.47-11.14,18.01-10.56,28.37,.58,10.37,12.42,43.84,20.42,50.46"/><path class="f" d="M152.88,327.41c-.91-2.73-4.55-27.3-10.01-28.21,.91-4.55,0-19.11-3.64-19.11s-78.25,3.64-84.62,1.82c0,0-3.64,13.65-2.73,18.2-1.82,5.46-1.82,0-5.46,10.01s-.91,23.66-3.64,29.12c-2.73,5.46,0,42.77,1.82,50.96s-.91,31.85,.91,39.13,3.64,13.65,1.82,16.38c-1.82,2.73-.91,5.46,0,11.83,.91,6.37-.24,18.91,.79,29.02,1.03,10.11,5.58,21.03,2.85,30.13,0,10.92,3.64,14.96,3.64,14.96,0,0,20.93,4.15,22.75,1.42,1.82-2.73,1.82-11.83,1.82-11.83,0,0,2.73-16.38,1.82-17.29s0-21.84,.91-21.84,3.64-30.03,2.73-30.94c-.91-.91,7.28-26.39,6.37-31.85-.91-5.46,5.46-37.31,10.01-34.58,4.55,2.73,7.28,30.03,7.28,30.03,0,0,0,19.11,3.64,26.39,2.73,5.46,2.39,19.11,2.81,26.74,.98-.06,1.96-.1,2.95-.13,1.09-1.74,2.67-3.46,4.25-2.66,.55,.55,1.41,1.71,2.24,2.65,3.26,.08,6.51,.29,9.77,.56,3.72-1.31,7.11-2.86,12,.8,0,1,2-3,3-3,1.55-.52,2.57,.31,3.61,1.5,.4-2.79,.82-4.6,1.24-4.6,1.82,0-1.82-12.44,0-13.04s0-11.53-.91-11.53c3.64-3.64,1.82-40.95,3.64-42.77s-2.73-65.51-3.64-68.24Z"/><path class="o" d="M16.88,211.33s.06,.05,.08,.07h0c-.01-.1-.03-.19-.03-.31-.03,.08-.04,.16-.06,.24Z"/><path class="o" d="M173.85,160.25s-7.46-13.97-8.09-13.97-10.25-10.09-15.25-11.44c-5.01-1.35-26.01-12.25-26.01-12.25,0,0-.47,21.83-20.3,20.17-20-1.67-21.41-17.47-20.67-20.23,0,0-31.29,15.18-35.26,15.88-3.98,.7-8.8,7.62-8.8,7.62,0,0-11.14,17.43-14.16,20.48-3.03,3.06-2.69,20.41-16.37,37.01,2.57,2.97,5.26,5.56,7.94,7.8,.02-.08,.03-.16,.06-.24,0,.11,.02,.21,.03,.31,2.28-.81,4.43-1.76,5.97-3.31-.92,1.85-1,4.54-1.8,6.52h0c8.47,6.04,16.13,8.58,18.79,8.53,3.92-.07,12.93-18.45,12.93-18.45,0,0-7.18,110.72-6.69,115.94,.4,4.24,64.92,2.46,91.64-1.21,.23-1.09,.87-2.28,1.17-3.38-.24-.58-.29-1.23-.05-1.95,3.13-4.69,5.65-8.76,10.42-11.27,.43-30.56,.66-99.61,.66-99.61,0,0,2.98,20.56,2.92,21.88-.06,1.32,33.5,3.59,41-11-10.48-13.1-20.1-53.85-20.1-53.85Z"/><polygon class="o" points="16.97 211.4 16.97 211.4 16.97 211.4 16.97 211.4"/><path class="k" d="M44.69,140.65s17.11,55.83,8.18,65.64"/><path class="k" d="M160.94,142.09s-22.87,54.93-10.93,64.58"/><path class="i" d="M59.47,224.75s-13.27,52.19-9.4,61.27"/><path class="i" d="M133.94,206.29c2,.81-8,48.25,5.5,56.03"/><path class="i" d="M149.27,312.09s-69.25,17.66-102.79,2.33"/><path class="i" d="M161.94,177.57s-15.84,12.88-11.92,27.2"/><path class="i" d="M44.69,182.91s12.2,13.56,9.73,18.37"/><path class="ae" d="M78.94,198.09l2.99-2.44s5.27,4.81,4.64,5.63-1.41,3.98-2.52,5.4-3.89,5.2-6,2.31-2.6-6.52-3.36-7.7,4.25-3.19,4.25-3.19Z"/><line class="e" x1="123.46" y1="177.57" x2="114.94" y2="185.09"/><line class="e" x1="126.94" y1="180.09" x2="117.94" y2="188.09"/><line class="e" x1="119.2" y1="176.39" x2="126.94" y2="186.02"/><line class="e" x1="113.98" y1="181.33" x2="122.44" y2="189.43"/><path class="h" d="M101.28,322.43s2.29,54.45-3.65,62.2"/><path class="g" d="M145.94,430.09s1.69,18.7,7.84,19.85"/><path class="g" d="M48.01,443.63c12.94,18.46,22.94,24.46,25.94,21.46"/><g><path class="q" d="M124.48,530.94s-.6,1.89-.06,4.08c.3,2.7-.3,3.3-.3,3.3,0,0-.15,4.27-.5,4.53s1.56,1.54,2.42,1.6,12.54,4.05,12.54,4.05c0,0,12.61,4.38,13.63,4.38s3.52,1.81,15.72,2.06c12.21,.26,22.7-2.84,22.7-3.09s2.39-1.67-2.62-3.6c-5.81-1.54-6.03-1.29-7.85-2.19-1.82-.9-4.66-1.54-5.8-2.44,1.25-.64,1.26-2.31-.1-2.57s-12.7-5.12-12.7-5.12c0,0-9.49-6.13-9.94-6.26s-1.82,.77-1.82,.77c0,0-3.26-2.68-3.72-2.68s-3.85-1.02-6.88,6.13c-.35,1.02,.09,2.05,.09,2.05,0,0-9.7-5.37-9.58-5.75s-5.23,.77-5.23,.77Z"/><path class="ac" d="M123.4,542.84s-.35,.72-.02,1.13,3.61,2.08,5.21,2.08c1.7,.77,5.56,1.8,5.56,1.8l8.06,2.57s8.86,3.61,10.22,3.74c1.93,.77,11.74,1.94,12.65,1.81s9.93-.26,10.39-.52,8.1-.77,9.36-1.16,5.82-.64,6.73-1.8-.05-2.19-.37-2c-.32,.84-.09,.97-1.69,1.48s-10.04,2.45-13.46,2.32c-3.77,.26-7.19,.77-8.9,.64s-8.67-.39-10.83-.9-11.49-3.22-12.85-3.87-12.03-3.47-12.14-3.99-5.55-1.73-5.55-1.73c0,0-2.61-1.09-2.37-1.6Z"/><path class="y" d="M123.05,543.61s0,3.78,.13,4.17c.15,.46,5.01,2.9,6.83,2.9s14.21,5.05,14.48,5.3,11.43,4.15,12.97,4.01c2.56,1.15,17.87,1.28,19.92,.5,3.2,0,13.02-1.94,13.36-2.2s1.94-1.55,1.94-1.55c0,0,.34-5.42-.46-5.42-.34,1.42-1.42,1.9-4.76,2.49-3.34,.6-12.43,1.66-14.39,1.84s-11.27,1.12-17.04-.71c-5.77-1.82-12.26-3.37-14.52-4.4-2.27-1.03-11.34-4.25-12.93-4.5s-5.88-2.44-5.88-2.44"/></g><g><path class="d" d="M206.47,342.3s-6.54,5.51-12.15,2.36c-2.79-1.57-5.07-8-5.69-12.28,.21-1.39,.36-3.75,1.58-4.33,1.56-.73,9.12,.09,11.61,1.59,2.45,5.53,6.05,9.5,4.65,12.65Z"/><g><path class="v" d="M181.11,352.7l10.2,22.63c.17,.39,.62,.57,1,.41l31.52-13.63c.41-.18,.59-.65,.41-1.05l-10.64-23.59c-.18-.4-.66-.58-1.06-.39l-31.08,14.61c-.37,.17-.53,.63-.35,1.02Z"/><path class="v" d="M187.35,350.15c1.35,2.99,3.23,2.86,3.85,2.73l-.87-3.95c.54-.12,.97,.09,1.09,.2-.54-.5-1.54-3.45-.95-6.48,.54-2.78,2.2-4.75,4.92-5.86,2.54-1.03,6.02-1.77,8.18,.54,1.51,1.62,1.64,3.89,1.38,4.38l2.62,3.01c2.15-1.59,1.87-5.62,.25-8.34-.96-1.72-4.83-7.03-13.96-3.33-7.26,2.95-8.72,10.26-7.01,15.81,.15,.48,.32,.9,.49,1.28Z"/><path class="s" d="M207.75,336.21c.52,.88,.79,1.65,1,2.67l3.84-1.8c.38-.18,.84-.01,1.01,.37l3.16,7-32.48,15.24-3.16-7c-.17-.39,0-.85,.38-1.03l5.44-2.55c-.04-.11-.08-.22-.12-.34-1.72-5.56-.17-12.69,7.04-15.74,9.07-3.84,12.93,1.45,13.89,3.17Zm-17.36,6.27c-.35,1.85-.12,3.65,.23,4.91l14.27-6.7c0-.92-.25-2.26-1.38-3.47-2.15-2.3-5.61-1.51-8.13-.44-2.71,1.15-4.46,2.91-4.99,5.7Z"/><path class="u" d="M181.67,352.44l10.21,22.64c.17,.39,.62,.57,1,.41l-.56,.24c-.37,.16-.82-.02-.99-.41l-10.21-22.63c-.17-.39-.02-.84,.35-1.01l.55-.26c-.37,.17-.53,.63-.35,1.02Z"/><path class="r" d="M213.6,337.46l10.64,23.59c.18,.4,0,.87-.41,1.05l-.72,.31c.41-.18,.59-.65,.41-1.05l-10.63-23.57c-.18-.4-.65-.58-1.05-.39l.71-.33c.4-.19,.87-.01,1.06,.39Z"/><path class="t" d="M221.93,360.93l-4.52-10.02s-14.1,9.35-12.64,12.91c1.45,3.57,17.16-2.9,17.16-2.9Z"/><path class="r" d="M202.54,365.13c-1.64-3.63-10.27,1.18-8.98,4.05s10.21-1.33,8.98-4.05Z"/><g class="w"><path class="v" d="M203.56,337.34c-2.1-2.25-5.45-1.6-7.97-.62,.22-.11,.44-.22,.68-.32,2.54-1.03,6.02-1.77,8.18,.54,.96,1.03,1.36,2.32,1.46,3.25l-.87,.41c-.1-.93-.5-2.23-1.46-3.27Z"/><path class="v" d="M187.74,348.48c.02,.08,.05,.15,.08,.22l-.87,.41c-.03-.08-.06-.15-.08-.23-1.71-5.55-.25-12.87,7.01-15.81,.05-.02,.1-.04,.15-.06-6.62,3.13-7.94,10.12-6.29,15.48Z"/></g></g><path class="ae" d="M200.26,326.86c2.39,.75,4.46,1.95,6,4.23,1.14,1.68,5.23,6.59,3.58,7.71-1.86,1.26-4.97-3.6-6.65-5.3-2.33-2.37-12.23,3.53-14.17-4.19-.17-.67,.55-4.65,.55-4.65,3.57,.59,7.37,1.17,10.69,2.21Z"/><path class="ae" d="M200.54,345.92c1.76-1.24-.98-4.03-2.22-6.18-1.24-2.15-2.23-5.11-3.57-5.04-1.34,.07-1.58,2.73,.08,6.19,1.66,3.46,3.33,6.72,5.72,5.03Z"/><path class="ae" d="M195.68,345.66c1.58-.8-.25-3.38-.96-5.26-.71-1.89-1.11-4.4-2.2-4.5-1.09-.1-1.64,2.02-.76,5.02,.87,3,1.78,5.83,3.93,4.74Z"/></g><path class="ab" d="M29.75,564.05c.53-.02,1.05-.34,1.27-.83,.05-.12,.04-.27-.09-.34-.11-.06-.28-.04-.34,.09-.02,.05-.05,.09-.07,.14-.02,.02-.03,.05-.05,.07-.02,.03,.04-.05,0,0l-.02,.03s-.07,.08-.11,.11l-.03,.03s-.06,.04,0,0c-.02,.01-.04,.03-.06,.05-.04,.03-.09,.05-.13,.08l-.04,.02s-.01,0,0,0c-.02,0-.05,.02-.07,.03-.05,.02-.1,.03-.16,.04-.01,0-.03,0-.04,0,.02,0,.05,0,.01,0-.03,0-.06,0-.09,0-.13,0-.26,.11-.25,.25s.11,.25,.25,.25h0Z"/><path class="ab" d="M30.28,566.69l1.27-1.17c.1-.09,.1-.26,0-.35-.1-.09-.25-.09-.35,0l-1.27,1.17c-.1,.09-.1,.26,0,.35,.1,.09,.25,.09,.35,0h0Z"/><path class="ab" d="M31.82,569.44c.92-.42,1.74-1.06,2.37-1.85,.08-.11,.1-.25,0-.35-.09-.09-.27-.11-.35,0-.61,.76-1.39,1.36-2.27,1.77-.12,.06-.15,.23-.09,.34,.07,.13,.22,.15,.34,.09h0Z"/><path class="ab" d="M34.87,570.69c1.81-.24,3.53-.92,4.98-2.03,.25-.19,0-.63-.25-.43-1.38,1.05-3.01,1.73-4.73,1.96-.31,.04-.32,.54,0,.5h0Z"/><rect x="115.94" y="60.09" width="11" height="2" rx=".92" ry=".92"/><g class="n"><path class="aa" d="M84.56,457.92c-1.81-1.14-4.21,.26-5.46,1.99s-2.04,3.89-3.77,5.14c-2.45,1.77-6.07,1.22-8.42,3.11-2.28,1.83-2.65,5.4-5.06,7.06-.96,.66-2.23,1.02-2.72,2.07-.66,1.42,.61,3.02,2,3.73,2.72,1.4,6.27,.98,8.6-1,1.64-1.4,2.74-3.5,4.73-4.33,1.8-.75,4.04-.3,5.58-1.5,1.01-.78,1.44-2.07,1.83-3.28l3.8-11.93"/></g><path class="ad" d="M81.21,112.6c-2.48,5.78-2.67,12.43-.5,18.33,.52,1.42,1.22,2.85,2.47,3.75,2.24,1.6,5.93,.65,7.04-1.81,.67-1.5,.24-3.54-1.28-4.25-1.39-.65-3.16,.03-4.07,1.23-.91,1.2-1.11,2.76-1.04,4.24,.21,4.67,2.75,8.94,5.51,12.8,2.41,3.36,5.5,6.84,9.73,7.3,4.62,.51,7.83,6.09,9.98,2.15,.62-1.14,1.13-2.39,1-3.67s-1.09-2.55-2.42-2.7c-1.44-.16-2.74,1.05-3.09,2.39s.02,2.76,.48,4.07c1.26,3.62,4.17-1.98,6.64,1.02,.95,1.15,2.03,2.27,3.44,2.84,2.39,.96,5.22,.09,7.29-1.41,4.93-3.57,6.53-10.1,6.04-16-.17-2.06-.6-4.2-1.94-5.82-1.34-1.62-3.84-2.51-5.74-1.53-2.23,1.14-2.48,4.52-.66,6.21,1.81,1.69,4.97,1.59,6.95,.08,1.75-1.33,2.63-3.52,2.69-5.66,.07-2.61-.94-5.12-1.94-7.54-.56-1.37-1.2-2.82-2.49-3.62s-3.41-.48-3.84,.93c-.47,1.57,1.62,2.95,3.27,2.55s2.77-1.84,3.67-3.22c3.33-5.16,5.53-10.93,7.08-16.81,.51-1.95,.89-4.22-.41-5.79-1.39-1.69-4.04-1.75-6.25-1.38-9.25,1.54-17.13,7.71-26.39,9.16-6.98,1.09-14.59-.53-20.91,2.52"/><path class="ad" d="M101.13,115.93c3.22,0,3.22-5,0-5s-3.22,5,0,5h0Z"/><path class="ae" d="M106.94,228.09c-12,12-9,8-9,8,2,1,4,5,4,5l9-3c-3-4-4-10-4-10Z"/><path class="ae" d="M15.76,373.03c3.32,.43,5.05-1.44,6.2-8.8,1.59-1.3,1.15-3.03,.87-3.46-.87-3.17-4.96-11.73-4.93-12.79-.84-7.69-.55-20.24-.55-20.24,.87-4.9-2.74-7.21-2.74-7.21-3.89-1.44-9.81-1.15-14.28,1.59,2.16,14.13,1.87,25.09,1.59,27.11-2.31,6.49-2.31,13.84-1.15,14.85,1.59,1.59,4.04,2.16,4.04,2.16,.87,2.6,3.03,3.32,4.04,2.88,.72,1.59,3.03,3.03,4.33,2.02,1.44,1.87,2.6,1.87,2.6,1.87Z"/><path class="x" d="M14.53,365.09c1.23,.68,2.65,.91,4.03,.67,.32-.06,.18-.54-.13-.48-1.24,.22-2.54,0-3.64-.61-.28-.16-.53,.28-.25,.43h0Z"/><path class="x" d="M8.56,362.36c.68,.7,1.63,1.11,2.6,1.11,.32,0,.32-.5,0-.5-.85,0-1.66-.36-2.25-.97-.22-.23-.58,.12-.35,.35h0Z"/><path class="x" d="M4.32,359.6c.6,.76,1.42,1.32,2.33,1.62,.13,.04,.27-.05,.31-.17,.04-.14-.05-.26-.17-.31-.84-.28-1.57-.8-2.11-1.49-.08-.11-.27-.09-.35,0-.1,.1-.08,.25,0,.35h0Z"/></g></g></g></g></svg>