<?xml version="1.0" encoding="utf-8"?>
<!-- Generator: Adobe Illustrator 26.2.1, SVG Export Plug-In . SVG Version: 6.00 Build 0)  -->
<svg version="1.1" id="Layer_1" xmlns="http://www.w3.org/2000/svg" xmlns:xlink="http://www.w3.org/1999/xlink" x="0px" y="0px"
	 viewBox="0 0 646 517.5" style="enable-background:new 0 0 646 517.5;" xml:space="preserve">
<style type="text/css">
	.st0{fill:url(#SVGID_1_);}
	.st1{display:none;fill:#758998;}
	.st2{display:none;}
	.st3{display:inline;}
	.st4{clip-path:url(#SVGID_00000158004219895752898580000004543841984005413538_);fill:#758998;}
	.st5{fill:#FFFFFF;}
</style>
<linearGradient id="SVGID_1_" gradientUnits="userSpaceOnUse" x1="117.5013" y1="258.75" x2="529.811" y2="258.75">
	<stop  offset="0" style="stop-color:#FFFFFF"/>
	<stop  offset="2.417015e-02" style="stop-color:#FFFFFF"/>
	<stop  offset="5.539248e-02" style="stop-color:#EFF1F3"/>
	<stop  offset="0.1505" style="stop-color:#C4CCD3"/>
	<stop  offset="0.2424" style="stop-color:#A1AFB9"/>
	<stop  offset="0.3293" style="stop-color:#899AA7"/>
	<stop  offset="0.409" style="stop-color:#7A8D9C"/>
	<stop  offset="0.4748" style="stop-color:#758998"/>
	<stop  offset="0.6968" style="stop-color:#758998"/>
	<stop  offset="1" style="stop-color:#758998"/>
</linearGradient>
<rect x="117.5" y="83.9" class="st0" width="411" height="349.7"/>
<g>
	<path class="st1" d="M317.7,433.6l14.1-316.9c0,0,99-21.5,196.8-32v348.9H317.7z"/>
	<g class="st2">
		<g class="st3">
			<defs>
				<polygon id="SVGID_00000050651238980755681820000007215097106547947444_" points="494.5,196.1 490.8,433.6 236.3,433.6 
					234.1,386.6 				"/>
			</defs>
			<use xlink:href="#SVGID_00000050651238980755681820000007215097106547947444_"  style="overflow:visible;fill:#758998;"/>
			<clipPath id="SVGID_00000018949992684889450650000012700107471597873827_">
				<use xlink:href="#SVGID_00000050651238980755681820000007215097106547947444_"  style="overflow:visible;"/>
			</clipPath>
			
				<rect x="234.1" y="196.1" style="clip-path:url(#SVGID_00000018949992684889450650000012700107471597873827_);fill:#758998;" width="260.4" height="237.5"/>
			<path style="clip-path:url(#SVGID_00000018949992684889450650000012700107471597873827_);fill:#758998;" d="M495.2,303.9v71.5
				v28.3h3.4c-1.1,3.2-2.3,6.3-3.6,9.5c-2.5,6.3-5.3,12.6-8.3,18.9c-1.5,3.1-3.1,6.3-4.7,9.4v-6.7H233.4V302H231
				c1.4-1.3,2.7-2.6,4.1-3.9c5.6-5.1,11.3-10.1,17.2-14.9c11.8-9.6,24.2-18.4,37.1-26.2c51.8-31.4,102.3-41.9,142-33.4
				c19.9,4.2,37.1,13.2,50.4,26.7c6.7,6.7,12.4,14.6,16.9,23.5h-3.7V303.9z"/>
			<path style="clip-path:url(#SVGID_00000018949992684889450650000012700107471597873827_);fill:#758998;" d="M495.2,305.4v70.7
				v18.6h4.1c-2,6.2-4.2,12.5-6.7,18.7c-2.5,6.2-5.2,12.5-8.2,18.7c-1.5,3.1-3.1,6.2-4.7,9.3v-6.7H233.4V303.6h-1.8
				c1.4-1.3,2.7-2.6,4.1-3.8c5.5-5.1,11.2-10,17-14.7c11.7-9.4,23.9-18.1,36.7-25.9c51.2-31.1,101.1-41.5,140.4-33.1
				c19.6,4.2,36.6,13.1,49.8,26.4c6.6,6.7,12.2,14.4,16.7,23.3h-1.2V305.4z"/>
			<path style="clip-path:url(#SVGID_00000018949992684889450650000012700107471597873827_);fill:#758998;" d="M495.2,306.9v69.9
				v18.4h1.6c-1.9,6.2-4.1,12.3-6.6,18.5c-2.5,6.2-5.2,12.4-8.1,18.5c-1.5,3.1-3,6.1-4.6,9.2v-6.6h-244V305.1h-1.2
				c1.3-1.3,2.7-2.5,4-3.8c5.4-5,11-9.9,16.8-14.5c11.5-9.3,23.7-17.9,36.3-25.6c50.6-30.7,100-41,138.8-32.7
				c19.4,4.1,36.2,12.9,49.2,26.1c6.5,6.6,12.1,14.3,16.6,23c2.2,4.4,4.2,9,5.9,13.9h-4.7V306.9z"/>
			<path style="clip-path:url(#SVGID_00000018949992684889450650000012700107471597873827_);fill:#758998;" d="M495.2,308.4v69.1
				h4.1c-2.7,12.1-6.6,24.3-11.5,36.5c-2.4,6.1-5.1,12.2-8.1,18.3c-1.5,3-3,6.1-4.6,9.1v-6.6H233.4V310.5h-4.6
				c2.6-2.6,5.2-5.1,7.9-7.6c5.4-5,10.9-9.8,16.6-14.4c11.4-9.2,23.4-17.7,35.9-25.3c50-30.4,98.8-40.5,137.2-32.3
				c19.2,4.1,35.8,12.8,48.7,25.8c6.4,6.5,11.9,14.1,16.4,22.7c2.2,4.3,4.2,8.9,5.8,13.8h-2.2V308.4z"/>
			<path style="clip-path:url(#SVGID_00000018949992684889450650000012700107471597873827_);fill:#758998;" d="M495.2,310v68.3h1.5
				c-2.7,11.9-6.5,24-11.3,36.1c-2.4,6-5.1,12.1-8,18.1c-1.4,3-3,6-4.5,9v-6.6H233.4V312h-3.9c2.6-2.5,5.2-5,7.8-7.5
				c5.3-4.9,10.8-9.6,16.4-14.2c11.3-9.1,23.1-17.5,35.5-25c98.9-60.1,192.8-40,209.7,44.7H495.2z"/>
			<path style="clip-path:url(#SVGID_00000018949992684889450650000012700107471597873827_);fill:#758998;" d="M495.2,311.5v32.8
				h3.7c-0.4,11.3-2,22.9-4.6,34.7c-2.7,11.8-6.4,23.7-11.2,35.7c-2.4,6-5,11.9-7.9,17.9c-1.4,3-2.9,5.9-4.5,8.9v-6.6H233.4V313.5
				H230c2.5-2.5,5.1-5,7.7-7.4c5.2-4.8,10.7-9.5,16.2-14c11.1-9,22.8-17.3,35.1-24.7c97.8-59.4,190.6-39.6,207.2,44.2H495.2z"/>
			<path style="clip-path:url(#SVGID_00000018949992684889450650000012700107471597873827_);fill:#758998;" d="M493.8,313
				c4.1,20.7,3.2,43.4-2.1,66.7c-2.6,11.7-6.4,23.5-11.1,35.2c-2.3,5.9-4.9,11.8-7.8,17.7c-1.4,2.9-2.9,5.9-4.4,8.8v-6.5h-235V315
				h-2.7c2.5-2.5,5.1-4.9,7.7-7.3c5.2-4.8,10.5-9.4,16-13.9c11-8.9,22.6-17.1,34.6-24.4C385.6,210.7,477.3,230.3,493.8,313z"/>
			<path style="clip-path:url(#SVGID_00000018949992684889450650000012700107471597873827_);fill:#758998;" d="M491.2,314.5
				c4.1,20.4,3.1,42.9-2.1,65.9c-2.6,11.5-6.3,23.2-10.9,34.8c-2.3,5.8-4.9,11.6-7.7,17.4c-1.4,2.9-2.9,5.8-4.4,8.7v-6.5H233.4
				V316.5h-2.1c2.5-2.4,5-4.8,7.6-7.2c5.1-4.7,10.4-9.3,15.8-13.7c10.9-8.8,22.3-16.9,34.2-24.2
				C384.3,213.5,474.9,232.8,491.2,314.5z"/>
			<path style="clip-path:url(#SVGID_00000018949992684889450650000012700107471597873827_);fill:#758998;" d="M488.6,316.1
				c4,20.2,3.1,42.3-2.1,65.1c-2.6,11.4-6.2,22.9-10.8,34.4c-2.3,5.8-4.8,11.5-7.6,17.2c-1.4,2.9-2.8,5.7-4.3,8.6v-6.5H233.4V318
				h-1.5c2.5-2.4,4.9-4.8,7.5-7.1c5.1-4.7,10.3-9.2,15.6-13.5c10.7-8.7,22-16.7,33.8-23.9C383.1,216.2,472.6,235.3,488.6,316.1z"/>
			<path style="clip-path:url(#SVGID_00000018949992684889450650000012700107471597873827_);fill:#758998;" d="M486.1,317.6
				c4,19.9,3,41.8-2,64.3c-2.5,11.2-6.1,22.6-10.7,34c-2.3,5.7-4.8,11.4-7.5,17c-1.4,2.8-2.8,5.6-4.3,8.5v-6.5H233.4V319.5h-0.9
				c2.4-2.4,4.9-4.7,7.4-7c5-4.6,10.2-9.1,15.4-13.4c10.6-8.6,21.8-16.5,33.4-23.6C381.8,219,470.2,237.8,486.1,317.6z"/>
			<path style="clip-path:url(#SVGID_00000018949992684889450650000012700107471597873827_);fill:#758998;" d="M483.5,319.1
				c3.9,19.7,3,41.3-2,63.5c-2.5,11.1-6,22.3-10.5,33.5c-2.2,5.6-4.7,11.2-7.4,16.8c-1.3,2.8-2.7,5.6-4.2,8.4v-6.4h-226V321h-0.3
				c2.4-2.3,4.8-4.7,7.3-6.9c4.9-4.6,10-9,15.3-13.2c10.5-8.5,21.5-16.3,33-23.3C380.6,221.7,467.8,240.3,483.5,319.1z"/>
			<path style="clip-path:url(#SVGID_00000018949992684889450650000012700107471597873827_);fill:#758998;" d="M481,320.6
				c3.9,19.4,3,40.8-2,62.7c-2.5,10.9-6,22-10.4,33.1c-2.2,5.5-4.6,11.1-7.3,16.6c-1.3,2.8-2.7,5.5-4.1,8.2v-6.4H233.4V326h-3.2
				c1.2-1.2,2.3-2.3,3.5-3.5c2.4-2.3,4.8-4.6,7.2-6.9c4.9-4.5,9.9-8.8,15.1-13c10.3-8.4,21.2-16.1,32.6-23
				C379.3,224.5,465.5,242.9,481,320.6z"/>
			<path style="clip-path:url(#SVGID_00000018949992684889450650000012700107471597873827_);fill:#758998;" d="M478.4,322.2
				c3.8,19.2,2.9,40.2-2,61.9c-2.4,10.8-5.9,21.8-10.3,32.7c-2.2,5.5-4.6,10.9-7.2,16.4c-1.3,2.7-2.7,5.4-4.1,8.1v-6.4H233.4V327.4
				h-2.5c1.1-1.2,2.3-2.3,3.5-3.5c2.3-2.3,4.7-4.5,7.1-6.8c4.8-4.4,9.8-8.7,14.9-12.9c10.2-8.3,20.9-15.9,32.1-22.7
				C378.1,227.2,463.1,245.4,478.4,322.2z"/>
			<path style="clip-path:url(#SVGID_00000018949992684889450650000012700107471597873827_);fill:#758998;" d="M475.9,323.7
				c3.8,18.9,2.9,39.7-1.9,61.1c-2.4,10.7-5.8,21.5-10.1,32.3c-2.2,5.4-4.5,10.8-7.1,16.2c-1.3,2.7-2.6,5.4-4,8v-6.4H233.4v-106
				h-1.8c1.1-1.1,2.3-2.3,3.4-3.4c2.3-2.3,4.6-4.5,7-6.7c4.7-4.4,9.6-8.6,14.7-12.7c10.1-8.2,20.7-15.7,31.7-22.4
				C376.8,230,460.8,247.9,475.9,323.7z"/>
			<path style="clip-path:url(#SVGID_00000018949992684889450650000012700107471597873827_);fill:#758998;" d="M473.3,325.2
				c3.7,18.7,2.9,39.2-1.9,60.3c-2.4,10.5-5.7,21.2-10,31.9c-2.1,5.3-4.5,10.6-7,15.9c-1.3,2.6-2.6,5.3-4,7.9v-6.4h-217V333.7h-4.5
				c17.5-18.3,37.6-34.7,59.4-48C375.6,232.8,458.4,250.4,473.3,325.2z"/>
			<path style="clip-path:url(#SVGID_00000018949992684889450650000012700107471597873827_);fill:#758998;" d="M470.8,326.7
				c3.7,18.4,2.8,38.7-1.9,59.4c-2.4,10.4-5.7,20.9-9.9,31.4c-2.1,5.3-4.4,10.5-6.9,15.7c-1.3,2.6-2.6,5.2-3.9,7.8v-6.3H233.4v-99.7
				h-3.8c17.3-18.1,37.1-34.3,58.6-47.4C374.3,235.5,456.1,252.9,470.8,326.7z"/>
			<path style="clip-path:url(#SVGID_00000018949992684889450650000012700107471597873827_);fill:#758998;" d="M468.2,328.3
				c3.6,18.2,2.8,38.2-1.9,58.6c-2.3,10.2-5.6,20.6-9.7,31c-2.1,5.2-4.3,10.4-6.8,15.5c-1.2,2.6-2.5,5.2-3.9,7.7v-6.3H233.4v-98.3
				h-3.1c17.1-17.8,36.6-33.8,57.8-46.7C373.1,238.3,453.7,255.5,468.2,328.3z"/>
			<path style="clip-path:url(#SVGID_00000018949992684889450650000012700107471597873827_);fill:#758998;" d="M465.6,329.8
				c3.6,17.9,2.7,37.6-1.8,57.8c-2.3,10.1-5.5,20.3-9.6,30.6c-2,5.1-4.3,10.2-6.7,15.3c-1.2,2.5-2.5,5.1-3.8,7.6v-6.3H233.4V338H231
				c16.8-17.6,36.1-33.4,57-46.1C371.8,241,451.3,258,465.6,329.8z"/>
			<path style="clip-path:url(#SVGID_00000018949992684889450650000012700107471597873827_);fill:#758998;" d="M463.1,331.3
				c3.5,17.7,2.7,37.1-1.8,57c-2.3,10-5.4,20.1-9.5,30.2c-2,5-4.2,10.1-6.6,15.1c-1.2,2.5-2.5,5-3.8,7.5v-6.3h-208v-95.5h-1.7
				c16.6-17.4,35.6-32.9,56.2-45.4C370.6,243.8,449,260.5,463.1,331.3z"/>
			<path style="clip-path:url(#SVGID_00000018949992684889450650000012700107471597873827_);fill:#758998;" d="M460.5,332.8
				c3.5,17.5,2.7,36.6-1.8,56.2c-2.2,9.8-5.4,19.8-9.3,29.7c-2,5-4.2,9.9-6.6,14.9c-1.2,2.5-2.4,4.9-3.7,7.4v-6.2H233.4v-94h-1
				c16.4-17.1,35.1-32.4,55.4-44.8C369.3,246.5,446.6,263,460.5,332.8z"/>
			<path style="clip-path:url(#SVGID_00000018949992684889450650000012700107471597873827_);fill:#758998;" d="M458,334.4
				c3.4,17.2,2.6,36.1-1.8,55.4c-2.2,9.7-5.3,19.5-9.2,29.3c-2,4.9-4.1,9.8-6.5,14.7c-1.2,2.4-2.4,4.9-3.7,7.3v-6.2H233.4v-92.6
				h-0.3c16.1-16.9,34.6-32,54.6-44.2C368,249.3,444.3,265.6,458,334.4z"/>
			<path style="clip-path:url(#SVGID_00000018949992684889450650000012700107471597873827_);fill:#758998;" d="M455.4,335.9
				c3.4,17,2.6,35.5-1.7,54.6c-2.2,9.5-5.2,19.2-9.1,28.9c-1.9,4.8-4,9.7-6.4,14.5c-1.2,2.4-2.4,4.8-3.6,7.2v-6.2H233.4v-88.1h-2.5
				c1-1.1,2-2.1,3-3.1c15.9-16.6,34.1-31.5,53.9-43.5C366.8,252.1,441.9,268.1,455.4,335.9z"/>
			<path style="clip-path:url(#SVGID_00000018949992684889450650000012700107471597873827_);fill:#758998;" d="M452.9,337.4
				c3.3,16.7,2.5,35-1.7,53.8c-2.1,9.4-5.1,18.9-8.9,28.5c-1.9,4.8-4,9.5-6.3,14.2c-1.1,2.4-2.3,4.7-3.6,7.1v-6.2h-199v-83.6h-4.6
				c1.9-2.1,3.8-4.2,5.8-6.2c15.7-16.4,33.6-31,53.1-42.9C365.5,254.8,439.6,270.6,452.9,337.4z"/>
			<path style="clip-path:url(#SVGID_00000018949992684889450650000012700107471597873827_);fill:#758998;" d="M450.3,338.9
				c3.3,16.5,2.5,34.5-1.7,53c-2.1,9.3-5.1,18.7-8.8,28c-1.9,4.7-3.9,9.4-6.2,14c-1.1,2.3-2.3,4.7-3.5,7v-6.2H233.4v-82.3h-3.9
				c1.9-2.1,3.8-4.1,5.7-6.1c15.4-16.1,33.1-30.6,52.3-42.2C364.3,257.6,437.2,273.1,450.3,338.9z"/>
			<path style="clip-path:url(#SVGID_00000018949992684889450650000012700107471597873827_);fill:#758998;" d="M447.8,340.5
				c3.2,16.2,2.5,34-1.7,52.2c-2.1,9.1-5,18.4-8.7,27.6c-1.8,4.6-3.9,9.2-6.1,13.8c-1.1,2.3-2.3,4.6-3.5,6.9v-6.1H233.4v-81h-3.1
				c1.8-2,3.7-4,5.6-6c15.2-15.9,32.6-30.1,51.5-41.6C363,260.3,434.8,275.6,447.8,340.5z"/>
			<path style="clip-path:url(#SVGID_00000018949992684889450650000012700107471597873827_);fill:#758998;" d="M445.2,342
				c3.2,16,2.4,33.4-1.6,51.4c-2,9-4.9,18.1-8.5,27.2c-1.8,4.5-3.8,9.1-6,13.6c-1.1,2.3-2.2,4.5-3.4,6.8v-6.1H233.4v-79.6h-2.3
				c1.8-2,3.6-4,5.5-5.9c15-15.6,32.1-29.6,50.7-41C361.8,263.1,432.5,278.2,445.2,342z"/>
			<path style="clip-path:url(#SVGID_00000018949992684889450650000012700107471597873827_);fill:#758998;" d="M442.6,343.5
				c3.1,15.7,2.4,32.9-1.6,50.6c-2,8.8-4.8,17.8-8.4,26.8c-1.8,4.5-3.8,8.9-5.9,13.4c-1.1,2.2-2.2,4.4-3.4,6.7v-6.1h-190v-78.3h-1.5
				c1.8-2,3.6-3.9,5.4-5.8c14.7-15.4,31.6-29.2,49.9-40.3C360.5,265.8,430.1,280.7,442.6,343.5z"/>
			<path style="clip-path:url(#SVGID_00000018949992684889450650000012700107471597873827_);fill:#758998;" d="M440.1,345
				c3.1,15.5,2.4,32.4-1.6,49.8c-2,8.7-4.7,17.5-8.3,26.3c-1.8,4.4-3.7,8.8-5.8,13.2c-1.1,2.2-2.2,4.4-3.3,6.6v-6.1H233.4v-77h-0.7
				c1.7-1.9,3.5-3.9,5.3-5.8c14.5-15.2,31.1-28.7,49.1-39.7C359.3,268.6,427.8,283.2,440.1,345z"/>
			<path style="clip-path:url(#SVGID_00000018949992684889450650000012700107471597873827_);fill:#758998;" d="M437.5,346.6
				c3,15.2,2.3,31.9-1.6,49c-1.9,8.6-4.7,17.2-8.1,25.9c-1.7,4.3-3.6,8.7-5.7,13c-1,2.2-2.1,4.3-3.2,6.4v-6H233.4V362h-2.5
				c0.8-1,1.7-1.9,2.6-2.9c1.7-1.9,3.5-3.8,5.3-5.7c14.3-14.9,30.6-28.3,48.3-39C358,271.4,425.4,285.7,437.5,346.6z"/>
			<path style="clip-path:url(#SVGID_00000018949992684889450650000012700107471597873827_);fill:#758998;" d="M435,348.1
				c3,15,2.3,31.4-1.5,48.2c-1.9,8.4-4.6,17-8,25.5c-1.7,4.3-3.6,8.5-5.6,12.8c-1,2.1-2.1,4.2-3.2,6.3v-6H233.4v-68.7h-4.1
				c3.3-3.8,6.6-7.6,10.1-11.3c14-14.7,30.1-27.8,47.5-38.4C356.8,274.1,423,288.2,435,348.1z"/>
			<path style="clip-path:url(#SVGID_00000018949992684889450650000012700107471597873827_);fill:#758998;" d="M432.4,349.6
				c2.9,14.7,2.2,30.8-1.5,47.4c-1.9,8.3-4.5,16.7-7.9,25.1c-1.7,4.2-3.5,8.4-5.5,12.5c-1,2.1-2.1,4.2-3.1,6.2v-6h-181v-67.4h-3.2
				c3.2-3.8,6.5-7.5,10-11.1c13.8-14.4,29.6-27.3,46.7-37.8C355.5,276.9,420.7,290.8,432.4,349.6z"/>
			<path style="clip-path:url(#SVGID_00000018949992684889450650000012700107471597873827_);fill:#758998;" d="M429.9,351.1
				c2.9,14.5,2.2,30.3-1.5,46.6c-1.8,8.1-4.4,16.4-7.7,24.6c-1.6,4.1-3.5,8.2-5.4,12.3c-1,2-2,4.1-3.1,6.1v-6H233.4v-66.2H231
				c3.1-3.7,6.4-7.4,9.8-10.9c13.6-14.2,29.1-26.9,45.9-37.1C354.3,279.6,418.3,293.3,429.9,351.1z"/>
			<path style="clip-path:url(#SVGID_00000018949992684889450650000012700107471597873827_);fill:#758998;" d="M427.3,352.6
				c2.8,14.2,2.2,29.8-1.5,45.8c-1.8,8-4.4,16.1-7.6,24.2c-1.6,4-3.4,8.1-5.3,12.1c-1,2-2,4-3,6v-6H233.4v-65h-1.5
				c3.1-3.7,6.3-7.2,9.6-10.7c13.3-13.9,28.6-26.4,45.1-36.5C353,282.4,416,295.8,427.3,352.6z"/>
			<path style="clip-path:url(#SVGID_00000018949992684889450650000012700107471597873827_);fill:#758998;" d="M424.7,354.2
				c2.8,14,2.1,29.3-1.4,45c-1.8,7.9-4.3,15.8-7.5,23.8c-1.6,4-3.3,8-5.2,11.9v0H233.4v-63.8h-0.6c3-3.6,6.2-7.1,9.5-10.5
				c13.1-13.7,28.1-25.9,44.4-35.8C351.8,285.1,413.6,298.3,424.7,354.2z"/>
			<path style="clip-path:url(#SVGID_00000018949992684889450650000012700107471597873827_);fill:#758998;" d="M422.2,355.7
				c2.7,13.7,2.1,28.7-1.4,44.2c-1.7,7.7-4.2,15.5-7.3,23.4c-1.6,3.9-3.3,7.8-5.1,11.7v-0.1H233.4v-57.2h-4.1
				c1.4-1.8,2.9-3.6,4.4-5.3c3-3.5,6.1-7,9.3-10.3c12.9-13.4,27.6-25.5,43.6-35.2C350.5,287.9,411.3,300.9,422.2,355.7z"/>
			<path style="clip-path:url(#SVGID_00000018949992684889450650000012700107471597873827_);fill:#758998;" d="M419.6,357.2
				c2.7,13.5,2.1,28.2-1.4,43.4c-1.7,7.6-4.1,15.3-7.2,22.9c-1.5,3.8-3.2,7.7-5.1,11.5v-0.2H233.4v-56.1h-3.2
				c1.4-1.8,2.8-3.5,4.3-5.2c2.9-3.5,6-6.8,9.1-10.1c12.6-13.2,27.1-25,42.8-34.6C349.3,290.7,408.9,303.4,419.6,357.2z"/>
			<path style="clip-path:url(#SVGID_00000018949992684889450650000012700107471597873827_);fill:#758998;" d="M417.1,358.7
				c2.6,13.2,2,27.7-1.4,42.6c-1.7,7.4-4.1,15-7.1,22.5c-1.5,3.8-3.2,7.5-5,11.3v-0.3H233.4v-55h-2.2c1.4-1.7,2.8-3.4,4.2-5.1
				c2.9-3.4,5.9-6.7,9-10c12.4-13,26.6-24.6,42-33.9C348,293.4,406.5,305.9,417.1,358.7z"/>
			<path style="clip-path:url(#SVGID_00000018949992684889450650000012700107471597873827_);fill:#758998;" d="M414.5,360.3
				c2.6,13,2,27.2-1.3,41.8c-1.7,7.3-4,14.7-6.9,22.1c-1.5,3.7-3.1,7.4-4.9,11.1v-0.4h-168V381h-1.3c1.3-1.7,2.7-3.4,4.1-5
				c2.8-3.3,5.8-6.6,8.8-9.8c12.2-12.7,26.1-24.1,41.2-33.3C346.8,296.2,404.2,308.4,414.5,360.3z"/>
			<path style="clip-path:url(#SVGID_00000018949992684889450650000012700107471597873827_);fill:#758998;" d="M412,361.8
				c2.5,12.7,1.9,26.7-1.3,41c-1.6,7.2-3.9,14.4-6.8,21.7c-1.4,3.6-3,7.2-4.8,10.8v-0.4H233.4v-47.7h-4.2
				c5.1-6.8,10.6-13.3,16.6-19.6c11.9-12.5,25.6-23.6,40.4-32.6C345.5,298.9,401.8,310.9,412,361.8z"/>
			<path style="clip-path:url(#SVGID_00000018949992684889450650000012700107471597873827_);fill:#758998;" d="M409.4,363.3
				c2.5,12.5,1.9,26.1-1.3,40.2c-1.6,7-3.8,14.1-6.7,21.2c-1.4,3.6-3,7.1-4.7,10.6v-0.5H233.4v-46.6h-3.2c5-6.6,10.4-13.1,16.2-19.2
				c11.7-12.2,25.1-23.2,39.6-32C344.2,301.7,399.5,313.5,409.4,363.3z"/>
			<path style="clip-path:url(#SVGID_00000018949992684889450650000012700107471597873827_);fill:#758998;" d="M406.9,364.8
				c2.4,12.2,1.9,25.6-1.3,39.4c-1.6,6.9-3.8,13.8-6.5,20.8c-1.4,3.5-2.9,7-4.6,10.4v-0.6H233.4v-45.6h-2.1
				c4.9-6.5,10.2-12.8,15.9-18.8c11.5-12,24.6-22.7,38.8-31.4C343,304.4,397.1,316,406.9,364.8z"/>
			<path style="clip-path:url(#SVGID_00000018949992684889450650000012700107471597873827_);fill:#758998;" d="M404.3,366.4
				c2.4,12,1.8,25.1-1.2,38.6c-1.5,6.7-3.7,13.6-6.4,20.4c-1.4,3.4-2.9,6.8-4.5,10.2v-0.7H233.4v-44.6h-1.1
				c4.8-6.4,10-12.6,15.6-18.4c11.2-11.7,24.1-22.2,38-30.7C341.7,307.2,394.8,318.5,404.3,366.4z"/>
			<path style="clip-path:url(#SVGID_00000018949992684889450650000012700107471597873827_);fill:#758998;" d="M401.7,367.9
				c2.3,11.7,1.8,24.6-1.2,37.8c-1.5,6.6-3.6,13.3-6.3,20c-1.3,3.3-2.8,6.7-4.4,10v-0.8H233.4v-43.6h-0.1c4.7-6.2,9.8-12.3,15.3-18
				c11-11.5,23.5-21.8,37.2-30.1C340.5,309.9,392.4,321,401.7,367.9z"/>
			<path style="clip-path:url(#SVGID_00000018949992684889450650000012700107471597873827_);fill:#758998;" d="M399.2,369.4
				c2.3,11.5,1.7,24-1.2,37c-1.5,6.5-3.5,13-6.1,19.5c-1.3,3.3-2.7,6.5-4.3,9.8v-0.9H233.4v-37.9H231c1.1-1.6,2.2-3.1,3.3-4.6
				c4.6-6.1,9.6-12,14.9-17.7c10.8-11.2,23-21.3,36.4-29.4C339.2,312.7,390,323.5,399.2,369.4z"/>
			<path style="clip-path:url(#SVGID_00000018949992684889450650000012700107471597873827_);fill:#758998;" d="M396.6,370.9
				c2.2,11.2,1.7,23.5-1.1,36.2c-1.4,6.3-3.4,12.7-6,19.1c-1.3,3.2-2.7,6.4-4.2,9.6v-0.9H233.4v-32.4H229c2-3.1,4.1-6.1,6.4-9.1
				c4.5-6,9.4-11.8,14.6-17.3c10.5-11,22.5-20.8,35.6-28.8C338,315.5,387.7,326.1,396.6,370.9z"/>
			<path style="clip-path:url(#SVGID_00000018949992684889450650000012700107471597873827_);fill:#758998;" d="M394.1,372.5
				c2.2,11,1.7,23-1.1,35.3c-1.4,6.2-3.4,12.4-5.9,18.7c-1.2,3.1-2.6,6.2-4.1,9.4v-1H233.4v-31.6h-3.2c2-3,4-6,6.2-8.9
				c4.4-5.9,9.1-11.5,14.3-16.9c10.3-10.8,22-20.4,34.8-28.2C336.7,318.2,385.3,328.6,394.1,372.5z"/>
			<path style="clip-path:url(#SVGID_00000018949992684889450650000012700107471597873827_);fill:#758998;" d="M391.5,374
				c2.1,10.7,1.6,22.5-1.1,34.5c-1.4,6-3.3,12.2-5.7,18.3c-1.2,3.1-2.6,6.1-4,9.1v-1.1H233.4v-30.8h-2.1c1.9-2.9,4-5.8,6.1-8.7
				c4.3-5.7,8.9-11.2,14-16.5c10.1-10.5,21.5-19.9,34.1-27.5C335.5,321,383,331.1,391.5,374z"/>
			<path style="clip-path:url(#SVGID_00000018949992684889450650000012700107471597873827_);fill:#758998;" d="M389,375.5
				c2.1,10.5,1.6,21.9-1.1,33.7c-1.3,5.9-3.2,11.9-5.6,17.8c-1.2,3-2.5,6-3.9,8.9v-1.2h-145v-29.9h-0.9c1.9-2.9,3.9-5.7,5.9-8.5
				c4.2-5.6,8.7-11,13.6-16.1c9.8-10.3,21-19.5,33.3-26.9C334.2,323.7,380.6,333.6,389,375.5z"/>
			<path style="clip-path:url(#SVGID_00000018949992684889450650000012700107471597873827_);fill:#758998;" d="M386.4,377
				c2,10.2,1.6,21.4-1,32.9c-1.3,5.8-3.1,11.6-5.5,17.4c-1.2,2.9-2.4,5.8-3.8,8.7v-1.3H233.4V410H231c0.9-1.4,1.8-2.8,2.7-4.2
				c1.8-2.8,3.8-5.6,5.8-8.3c4.1-5.5,8.5-10.7,13.3-15.7c9.6-10,20.5-19,32.5-26.2C333,326.5,378.3,336.2,386.4,377z"/>
			<path style="clip-path:url(#SVGID_00000018949992684889450650000012700107471597873827_);fill:#758998;" d="M383.9,378.6
				c2,10,1.5,20.9-1,32.1c-1.3,5.6-3.1,11.3-5.3,17c-1.1,2.8-2.4,5.7-3.7,8.5v-1.4H233.4v-20h-3.6c12.6-22.3,32.1-43.2,55.4-57.3
				C331.7,329.2,375.9,338.7,383.9,378.6z"/>
			<path style="clip-path:url(#SVGID_00000018949992684889450650000012700107471597873827_);fill:#758998;" d="M381.3,380.1
				c1.9,9.7,1.5,20.4-1,31.3c-1.2,5.5-3,11-5.2,16.6c-1.1,2.8-2.3,5.5-3.7,8.3v-1.4H233.4v-19.4h-2.3c12.3-21.8,31.3-42.1,54-55.9
				C330.5,332,373.5,341.2,381.3,380.1z"/>
			<path style="clip-path:url(#SVGID_00000018949992684889450650000012700107471597873827_);fill:#758998;" d="M378.7,381.6
				c1.9,9.5,1.4,19.9-1,30.5c-1.2,5.3-2.9,10.7-5.1,16.1c-1.1,2.7-2.3,5.4-3.6,8.1v-1.5H233.4v-18.7h-1c12-21.2,30.5-41,52.6-54.5
				C329.2,334.8,371.2,343.7,378.7,381.6z"/>
			<path style="clip-path:url(#SVGID_00000018949992684889450650000012700107471597873827_);fill:#758998;" d="M376.2,383.1
				c1.8,9.2,1.4,19.3-0.9,29.7c-1.2,5.2-2.8,10.5-4.9,15.7c-1,2.6-2.2,5.3-3.5,7.9v-1.6H233.4v-10.3h-3.8c1.3-2.6,2.6-5.2,4.1-7.8
				c11.7-20.7,29.7-40,51.2-53C328,337.5,368.8,346.2,376.2,383.1z"/>
			<path style="clip-path:url(#SVGID_00000018949992684889450650000012700107471597873827_);fill:#758998;" d="M373.6,384.7
				c1.8,9,1.4,18.8-0.9,28.9c-1.1,5.1-2.8,10.2-4.8,15.3c-1,2.6-2.1,5.1-3.4,7.7v-1.7H233.4v-9.9H231c1.2-2.5,2.6-5.1,4-7.6
				c11.4-20.1,28.9-38.9,49.9-51.6C326.7,340.3,366.5,348.8,373.6,384.7z"/>
			<path style="clip-path:url(#SVGID_00000018949992684889450650000012700107471597873827_);fill:#758998;" d="M371.1,386.2
				c1.7,8.7,1.3,18.3-0.9,28.1c-1.1,4.9-2.7,9.9-4.7,14.9c-1,2.5-2.1,5-3.3,7.4v-1.8H233.4v-2.1h-4.3c2-5,4.4-9.9,7.1-14.8
				c11.1-19.5,28.1-37.8,48.5-50.2C325.5,343,364.1,351.3,371.1,386.2z"/>
			<path style="clip-path:url(#SVGID_00000018949992684889450650000012700107471597873827_);fill:#758998;" d="M368.5,387.7
				c1.7,8.5,1.3,17.8-0.9,27.3c-1.1,4.8-2.6,9.6-4.5,14.4c-1,2.4-2,4.8-3.2,7.2v-1.9H233.4V433h-2.8c1.9-4.8,4.3-9.7,6.9-14.4
				c10.8-19,27.3-36.7,47.1-48.7C324.2,345.8,361.8,353.8,368.5,387.7z"/>
			<path style="clip-path:url(#SVGID_00000018949992684889450650000012700107471597873827_);fill:#758998;" d="M366,389.2
				c1.6,8.2,1.3,17.2-0.8,26.5c-1,4.6-2.5,9.3-4.4,14c-0.9,2.3-2,4.7-3.1,7v-1.9H233.4v-1.7h-1.3c1.9-4.7,4.1-9.4,6.7-14
				c10.4-18.4,26.5-35.6,45.7-47.3C322.9,348.5,359.4,356.3,366,389.2z"/>
			<path style="clip-path:url(#SVGID_00000018949992684889450650000012700107471597873827_);fill:#758998;" d="M363.4,390.8
				c1.6,8,1.2,16.7-0.8,25.7c-1,4.5-2.5,9-4.3,13.6c-0.9,2.3-1.9,4.5-3,6.8v-2h-122l-2.2,5.3c0.7-2.3,1.5-4.5,2.4-6.8
				c1.8-4.5,4-9.1,6.5-13.6c10.1-17.9,25.7-34.6,44.3-45.9C321.7,351.3,357,358.8,363.4,390.8z"/>
			<path style="clip-path:url(#SVGID_00000018949992684889450650000012700107471597873827_);fill:#758998;" d="M360.8,392.3
				c1.5,7.7,1.2,16.2-0.8,24.9c-1,4.4-2.4,8.8-4.1,13.2c-0.9,2.2-1.8,4.4-2.9,6.6v-2.1H233.4l-0.6,5.3c0.7-2.2,1.5-4.4,2.4-6.6
				c1.8-4.4,3.9-8.8,6.3-13.1c9.8-17.3,24.9-33.5,42.9-44.4C320.4,354.1,354.7,361.4,360.8,392.3z"/>
			<path style="clip-path:url(#SVGID_00000018949992684889450650000012700107471597873827_);fill:#758998;" d="M358.3,393.8
				c3,15-1.4,32.8-10.9,49.5v-8.5H234.3v5.3c0.7-2.1,1.4-4.3,2.3-6.4c1.7-4.3,3.8-8.5,6.1-12.7c9.5-16.7,24.1-32.4,41.5-43
				C319.2,356.8,352.3,363.9,358.3,393.8z"/>
			<path style="clip-path:url(#SVGID_00000018949992684889450650000012700107471597873827_);fill:#758998;" d="M355.7,395.3
				c2.9,14.5-1.4,31.7-10.5,47.9v-8.4H235.9v5.3c0.6-2.1,1.4-4.1,2.2-6.2c1.6-4.1,3.6-8.2,5.9-12.3c9.2-16.2,23.3-31.3,40.2-41.6
				C317.9,359.6,350,366.4,355.7,395.3z"/>
			<path style="clip-path:url(#SVGID_00000018949992684889450650000012700107471597873827_);fill:#758998;" d="M353.2,396.9
				c2.8,14-1.3,30.6-10.2,46.2v-8.3H237.5v5.2c0.6-2,1.3-4,2.1-6c1.6-4,3.5-7.9,5.7-11.9c8.9-15.6,22.5-30.2,38.8-40.1
				C316.7,362.3,347.6,368.9,353.2,396.9z"/>
			<path style="clip-path:url(#SVGID_00000018949992684889450650000012700107471597873827_);fill:#758998;" d="M350.6,398.4
				c2.7,13.5-1.3,29.5-9.8,44.6v-8.1H239.1v5.2c0.6-1.9,1.3-3.8,2-5.7c1.5-3.8,3.4-7.7,5.5-11.4c8.5-15.1,21.7-29.2,37.4-38.7
				C315.4,365.1,345.3,371.4,350.6,398.4z"/>
			<path style="clip-path:url(#SVGID_00000018949992684889450650000012700107471597873827_);fill:#758998;" d="M348.1,399.9
				c2.6,13-1.2,28.4-9.4,42.9v-8h-98v5.2c0.6-1.8,1.2-3.7,2-5.5c1.5-3.7,3.3-7.4,5.3-11c8.2-14.5,20.9-28.1,36-37.3
				C314.2,367.8,342.9,374,348.1,399.9z"/>
			<path style="clip-path:url(#SVGID_00000018949992684889450650000012700107471597873827_);fill:#758998;" d="M345.5,401.4
				c2.5,12.5-1.2,27.3-9.1,41.3v-7.9h-94.2v5.2c0.6-1.8,1.2-3.5,1.9-5.3c1.4-3.6,3.1-7.1,5.1-10.6c7.9-14,20.1-27,34.6-35.8
				C312.9,370.6,340.5,376.5,345.5,401.4z"/>
			<path style="clip-path:url(#SVGID_00000018949992684889450650000012700107471597873827_);fill:#758998;" d="M343,402.9
				c2.4,12-1.1,26.2-8.7,39.6v-7.7h-88.6v0.1c1.4-3.4,3-6.8,4.9-10.2c7.6-13.4,19.3-25.9,33.2-34.4C311.7,373.4,338.2,379,343,402.9
				z"/>
			<path style="clip-path:url(#SVGID_00000018949992684889450650000012700107471597873827_);fill:#758998;" d="M340.4,404.5
				c2.3,11.5-1.1,25.1-8.3,38v-7.6h-84.9v0.2c1.3-3.3,2.9-6.5,4.7-9.7c7.3-12.8,18.5-24.8,31.8-33
				C310.4,376.1,335.8,381.5,340.4,404.5z"/>
			<path style="clip-path:url(#SVGID_00000018949992684889450650000012700107471597873827_);fill:#758998;" d="M337.8,406
				c2.2,11-1,24.1-8,36.3v-7.5h-81.3v0.4c1.2-3.1,2.8-6.2,4.5-9.3c7-12.3,17.7-23.8,30.5-31.5C309.2,378.9,333.5,384.1,337.8,406z"
				/>
			<path style="clip-path:url(#SVGID_00000018949992684889450650000012700107471597873827_);fill:#758998;" d="M335.3,407.5
				c2.1,10.5-1,23-7.6,34.7v-7.4h-77.6v0.6c1.2-3,2.6-6,4.3-8.9c6.6-11.7,16.9-22.7,29.1-30.1C307.9,381.6,331.1,386.6,335.3,407.5z
				"/>
			<path style="clip-path:url(#SVGID_00000018949992684889450650000012700107471597873827_);fill:#758998;" d="M332.7,409
				c2,10-0.9,21.9-7.3,33v-7.2h-73.9v0.8c1.1-2.8,2.5-5.7,4.1-8.5c6.3-11.2,16.1-21.6,27.7-28.7C306.7,384.4,328.8,389.1,332.7,409z
				"/>
			<path style="clip-path:url(#SVGID_00000018949992684889450650000012700107471597873827_);fill:#758998;" d="M330.2,410.6
				c1.9,9.5-0.9,20.8-6.9,31.4v-7.1h-70.2v1c1.1-2.7,2.4-5.4,3.9-8c6-10.6,15.3-20.5,26.3-27.2C305.4,387.1,326.4,391.6,330.2,410.6
				z"/>
			<path style="clip-path:url(#SVGID_00000018949992684889450650000012700107471597873827_);fill:#758998;" d="M327.6,412.1
				c1.8,9-0.8,19.7-6.5,29.7v-7h-66.5v1.2c1-2.6,2.3-5.1,3.7-7.6c5.7-10,14.5-19.4,24.9-25.8C304.2,389.9,324,394.1,327.6,412.1z"/>
			<path style="clip-path:url(#SVGID_00000018949992684889450650000012700107471597873827_);fill:#758998;" d="M325.1,413.6
				c1.7,8.5-0.8,18.6-6.2,28.1v-6.9h-62.8v1.4c1-2.4,2.1-4.8,3.5-7.2c5.4-9.5,13.6-18.4,23.5-24.4
				C302.9,392.7,321.7,396.7,325.1,413.6z"/>
			<path style="clip-path:url(#SVGID_00000018949992684889450650000012700107471597873827_);fill:#758998;" d="M322.5,415.1
				c1.6,8-0.7,17.5-5.8,26.4v-6.7h-61.2v8.4c1-4.5,2.9-9.1,5.4-13.6c5.1-8.9,12.8-17.3,22.2-22.9
				C301.7,395.4,319.3,399.2,322.5,415.1z"/>
			<path style="clip-path:url(#SVGID_00000018949992684889450650000012700107471597873827_);fill:#758998;" d="M319.9,416.7
				c1.5,7.5-0.7,16.4-5.4,24.8v-6.6h-57.4v8.2c1-4.2,2.7-8.5,5.1-12.7c4.7-8.4,12-16.2,20.8-21.5C300.4,398.2,317,401.7,319.9,416.7
				z"/>
			<path style="clip-path:url(#SVGID_00000018949992684889450650000012700107471597873827_);fill:#758998;" d="M317.4,418.2
				c1.4,7-0.7,15.3-5.1,23.1v-6.5h-53.6v7.9c0.9-3.9,2.5-8,4.7-11.9c4.4-7.8,11.2-15.1,19.4-20.1
				C299.1,400.9,314.6,404.2,317.4,418.2z"/>
			<path style="clip-path:url(#SVGID_00000018949992684889450650000012700107471597873827_);fill:#758998;" d="M314.8,419.7
				c1.3,6.5-0.6,14.2-4.7,21.5v-6.3h-49.7v7.7c0.8-3.6,2.3-7.4,4.4-11c4.1-7.3,10.4-14,18-18.6C297.9,403.7,312.3,406.7,314.8,419.7
				z"/>
			<path style="clip-path:url(#SVGID_00000018949992684889450650000012700107471597873827_);fill:#758998;" d="M312.3,421.2
				c1.2,6-0.6,13.1-4.4,19.8v-6.2H262v7.5c0.8-3.4,2.1-6.8,4-10.2c3.8-6.7,9.6-13,16.6-17.2C296.6,406.4,309.9,409.3,312.3,421.2z"
				/>
			<path style="clip-path:url(#SVGID_00000018949992684889450650000012700107471597873827_);fill:#758998;" d="M309.7,422.8
				c1.1,5.5-0.5,12-4,18.2v-6.1h-42.1v7.2c0.7-3.1,2-6.3,3.7-9.3c3.5-6.1,8.8-11.9,15.2-15.8C295.4,409.2,307.5,411.8,309.7,422.8z"
				/>
			<path style="clip-path:url(#SVGID_00000018949992684889450650000012700107471597873827_);fill:#758998;" d="M307.2,424.3
				c1,5-0.5,10.9-3.6,16.5v-6h-38.3v7c0.6-2.8,1.8-5.7,3.4-8.5c3.2-5.6,8-10.8,13.8-14.3C294.1,412,305.2,414.3,307.2,424.3z"/>
			<path style="clip-path:url(#SVGID_00000018949992684889450650000012700107471597873827_);fill:#758998;" d="M304.6,425.8
				c0.9,4.5-0.4,9.8-3.3,14.9v-5.8h-34.4v6.8c0.6-2.5,1.6-5.1,3-7.6c2.8-5,7.2-9.7,12.5-12.9C292.9,414.7,302.8,416.8,304.6,425.8z"
				/>
			<path style="clip-path:url(#SVGID_00000018949992684889450650000012700107471597873827_);fill:#758998;" d="M302.1,427.3
				c0.8,4-0.4,8.7-2.9,13.2v-5.7h-30.6v6.5c0.5-2.2,1.4-4.6,2.7-6.8c2.5-4.5,6.4-8.6,11.1-11.5C291.6,417.5,300.5,419.4,302.1,427.3
				z"/>
			<path style="clip-path:url(#SVGID_00000018949992684889450650000012700107471597873827_);fill:#758998;" d="M299.5,428.9
				c0.7,3.5-0.3,7.7-2.5,11.6v-5.6h-24.4v0.4c2.2-3.9,5.6-7.6,9.7-10C290.4,420.2,298.1,421.9,299.5,428.9z"/>
			<path style="clip-path:url(#SVGID_00000018949992684889450650000012700107471597873827_);fill:#758998;" d="M296.9,430.4
				c0.6,3-0.3,6.6-2.2,9.9v-5.5h-20.9v1c1.9-3.3,4.8-6.5,8.3-8.6C289.1,423,295.8,424.4,296.9,430.4z"/>
			<path style="clip-path:url(#SVGID_00000018949992684889450650000012700107471597873827_);fill:#758998;" d="M294.4,431.9
				c0.5,2.5-0.2,5.5-1.8,8.3v-5.3h-17.4v1.6c1.6-2.8,4-5.4,6.9-7.2C287.9,425.7,293.4,426.9,294.4,431.9z"/>
			<path style="clip-path:url(#SVGID_00000018949992684889450650000012700107471597873827_);fill:#758998;" d="M291.8,433.4
				c0.4,2-0.2,4.4-1.5,6.6v-5.2h-14v2.2c1.3-2.2,3.2-4.3,5.5-5.7C286.6,428.5,291,429.4,291.8,433.4z"/>
			<path style="clip-path:url(#SVGID_00000018949992684889450650000012700107471597873827_);fill:#758998;" d="M289.3,434.8H284
				h-7.4v7.8c-0.6-3,1.8-7.1,5.2-9.3c3.5-2.1,6.8-1.4,7.4,1.6V434.8z"/>
			<path style="clip-path:url(#SVGID_00000018949992684889450650000012700107471597873827_);fill:#758998;" d="M286.7,434.8h-3.5
				h-1.4v0.6c2.3-1.4,4.5-0.9,4.9,1.1V434.8z"/>
			<path style="clip-path:url(#SVGID_00000018949992684889450650000012700107471597873827_);fill:#758998;" d="M284.2,434.8h-1.7
				H284.2z"/>
		</g>
	</g>
	<path class="st5" d="M236.3,433.6c0,0,143.2-106.8,174.9-135.9c30.3-27.8,89.6-86.4,82.7-104.6c-7.8-20.3-149.3-49.8-155.9-66.8
		c-6.2-15.7,190.5-41.6,190.5-41.6S369.7,99.4,323,112.8c-86.2,24.8,105.7,71.8,101,79.3c-28.9,45.6-306.5,90.2-306.5,90.2v151.3
		H236.3z"/>
</g>
</svg>
