<?xml version="1.0" encoding="UTF-8"?><svg xmlns="http://www.w3.org/2000/svg" viewBox="0 0 342.28 588.06"><defs><style>.d{fill:#959799;}.e{fill:#eb2e24;}.f{fill:#a8bcdb;stroke:#4a342d;stroke-miterlimit:10;stroke-width:.25px;}.g{fill:#9b8579;}.h{fill:#be1e2d;}.i{fill:#824e2a;}.j{fill:#896c50;}.k{fill:#49332c;}.l{fill:#96acce;}.m{fill:#e6e7e8;}.n{fill:#4a342d;}.o{fill:#f4c7a7;}.p{fill:#58595b;}</style></defs><g id="a"/><g id="b"><g id="c"><g><g><path class="h" d="M262.23,543.18s-.86,1.67,.18,3.59c.68,2.36-.28,2.92-.28,2.92,0,0,.04,3.77-.52,4.03s2.67,1.2,4.06,1.16c1.37-.03,18.4,2,18.4,2,0,0,15.26,1.88,16.36,1.77s3.77,.87,15.27-.24c9.88-.95,17.2-3.52,17.19-3.67s1.52-1.08-1.91-1.87c-4.19-.57-4.35-.41-5.74-.84s-3.67-.68-4.62-1.18c.98-.45,.92-1.47-.19-1.57s-11.37-2.88-11.37-2.88c0,0-9.93-4.12-10.43-4.22s-1.97,.55-1.97,.55c0,0-3.88-1.98-4.41-1.99s-4.73-.84-8.2,4.68c-.4,.81,.23,1.59,.23,1.59,0,0-13.97-4.18-13.81-4.51s-8.25,.66-8.25,.66Z"/><path class="m" d="M261.23,553.74s-.54,.67,.05,1,6.01,1.42,8.49,1.24c2.62,.46,8.26,.88,8.26,.88l10.76,1.11s10.46,1.63,11.94,1.56c2.07,.32,11.67,0,12.49-.17,.81-.18,8.41-1.14,8.76-1.34s6.1-1.15,6.99-1.47c.87-.32,3.99-.8,4.56-1.51s-.11-1.21-.31-1.09c-.18,.49-.03,.54-1.08,.94s-7.1,2.16-9.75,2.38c-3.03,.49-5.89,1.14-7.38,1.22s-8.07,.64-10.25,.52-12.77-1.04-14.44-1.37-16.25-1.42-16.44-1.84-8.64-.89-8.64-.89c0,0-4.37-.69-4.01-1.17Z"/><path class="j" d="M260.69,554.46s.27,3.35,.5,3.68c.27,.38,8.25,1.82,11.02,1.57,2.69-.25,19.31,2.01,19.65,2.16s12.78,1.39,14.33,1.08c2.55,.43,15.92-1.37,17.5-2.06,2.43-.33,9.29-2.37,9.51-2.54s1.22-1.02,1.22-1.02c0,0,.03-3.01-.49-2.96-.18,.81-.87,1.15-3.12,1.72-2.33,.6-9.17,2-10.74,2.29-1.61,.3-9.82,1.88-15.55,1.3-6.19-.62-13.74-1.01-16.58-1.52-2.94-.54-15.75-2.12-18.17-2.16-2.49-.04-9.66-1.5-9.66-1.5"/></g><g><path class="h" d="M125.5,541.93s-1.57,1.56-1.55,4.18c-.52,2.98-1.64,3.23-1.64,3.23,0,0-1.77,4.34-2.39,4.41s1.83,2.45,3.09,2.98c1.24,.52,15.54,9.75,15.54,9.75,0,0,12.78,8.33,13.83,8.65s2.96,2.52,13.81,5.91c9.31,2.91,17.11,2.93,17.17,2.77s1.88-.62-.82-2.92c-3.49-2.35-3.71-2.23-4.75-3.29s-2.97-2.27-3.58-3.22c1.09-.12,1.52-1.31,.58-1.88s-8.82-7.9-8.82-7.9c0,0-6.94-8.75-7.34-9.05s-2.03-.17-2.03-.17c0,0-2.53-3.84-3.01-4.07s-3.84-2.88-9.58,2.04c-.75,.76-.55,1.92-.55,1.92,0,0-10.53-10.45-10.23-10.76s-7.71-2.58-7.71-2.58Z"/><path class="m" d="M119.57,553.62s-.81,.55-.43,1.17,4.71,4.06,7.02,4.87c2.13,1.59,6.99,4.35,6.99,4.35l9.12,5.63s8.6,6.11,9.96,6.63c1.71,1.2,10.46,4.73,11.28,4.86,.81,.12,8.08,2.1,8.5,2.02s6.02,1.15,6.97,1.14c.94-.01,3.96,.7,4.8,.12s.48-1.44,.24-1.37c-.4,.48-.28,.61-1.41,.64s-7.4-.4-9.87-1.23c-2.95-.66-5.82-1.08-7.2-1.59s-7.54-2.54-9.44-3.55c-1.96-1.05-10.95-6.36-12.29-7.42-1.37-1.08-13.89-8.22-13.86-8.77s-7.32-4.52-7.32-4.52c0,0-3.59-2.57-3.04-2.97Z"/><path class="j" d="M118.74,554.22s-1.36,3.95-1.31,4.42c.06,.55,6.53,5.43,9.14,6.26,2.53,.8,16.35,10.13,16.59,10.44s10.8,6.77,12.33,7.04c2.08,1.53,14.92,4.88,16.67,4.73,2.34,.6,9.46,1.05,9.74,.94s1.58-.67,1.58-.67c0,0,1.47-3.44,.98-3.59-.54,.85-1.33,.96-3.62,.71-2.38-.26-9.17-1.43-10.73-1.73-1.59-.31-9.7-1.83-14.56-4.81-5.25-3.22-11.84-6.72-14.14-8.46-2.38-1.8-13.11-8.81-15.26-9.84-2.21-1.06-7.95-5.63-7.95-5.63"/></g><path class="o" d="M252.09,50.79c-2.27,12.89,10.61,39.42,8.34,40.18s-8.88-1.35-8.61,9.18-1.25,24.93-5.04,26.45-34.12,6.82-46.25-19.71c-39.42-49.28-19.71-90.97,3.79-96.28,23.5-5.31,45.49,7.58,45.49,7.58l2.27,32.6Z"/><ellipse cx="244.13" cy="55.34" rx="4.17" ry="7.58"/><path class="o" d="M204.8,102.16c-5.24,20.96-14.17,35.81-14.17,35.81,20.28,3.49,39.5,15.33,39.5,15.33,4.37-13.59,20.48-31.06,20.48-31.06l-45.81-20.09Z"/><path class="k" d="M230.58,44.86s3.43,2.58,2.97,3.11,13.34-6.16,16.28-6.11c-1.36-3.74,.18-4.18,.18-4.18,0,0-10.5,2.37-19.43,7.17Z"/><path class="n" d="M187.77,81.26c-.27,3.91-.54,7.9,.49,11.68s3.61,7.37,7.36,8.52l1.8-3.53c1.07,8.27,4.67,16.2,10.2,22.46,1.38-.94,2.32-2.5,2.49-4.16,1.27,4.32,3.76,8.27,7.11,11.29,1.63,1.47,3.71,2.78,5.88,2.42,2.16-.36,3.79-3.27,2.28-4.86l5.97,6.55c1.82,2,3.7,4.04,6.1,5.28s5.47,1.56,7.74,.08,3.1-5.05,1.22-6.99l9.28,3.2c.4,.14,.82,.27,1.23,.17,.53-.14,.87-.67,1.08-1.18,1.85-4.45-1.76-9.19-2.34-13.97-.45-3.74,.98-7.41,2.39-10.9,1.14,.82,2.23-1.12,2.32-2.53,.24-3.88,.12-8.55-3.17-10.63-3.49-2.21-7.93,.02-11.81,1.44-6.36,2.34-13.56,2.35-19.92,.03-3.28-1.2-6.48-3.02-9.97-3.01-2.3,0-4.53,.83-6.82,1.09s-4.92-.22-6.22-2.12c-.55-.8-.82-1.82-1.57-2.44-.84-.69-2.03-.69-3.11-.69-5.61-.02-12.54-2.31-13.14-7.89"/><path class="n" d="M213.1,92.17c-4.93-.09-9.13-3.63-11.05-7.73s-2.02-8.68-2.01-13.13c.02-13.04,.77-26.5,6.91-38.3,1.52-2.92,3.4-5.75,6.06-7.91,9.54-7.72,24.44-4.16,36.47-.17l-4.05-7.58c10.5,2.35,20.66,5.93,30.14,10.63C264.01,10.55,240.77,1.83,218.33,.21c-16.12-1.16-35.02,2.25-42.55,15.18-6.72,11.53-1.61,25.45,1.59,38.16,2.41,9.57,3.69,19.44,7.76,28.54,4.06,9.1,11.59,17.61,22.05,20.26l.48-8.44"/><path class="d" d="M164.71,329.15c0,20.92,7.54,37.28,7.54,37.28-11.84,46.39-3.25,53.64-7.54,64.16-4.3,10.53-8.6,30.21-15.77,41.29-7.17,11.07-14.33,33.22-14.33,43.06s-14.33,29.53-14.33,29.53c5.73,11.07,34.4,13.53,34.4,13.53,7.17-14.76,38.7-68.9,37.26-77.51s24.37-87.36,28.66-95.97c14.33,16,44.43,59.06,45.86,71.36,1.43,12.3-8.6,84.53-4.3,92.1,17.2-1.05,28.66,2.64,32.96-3.51,7.17-30.76,10.03-87.36,10.03-87.36,2.87-13.53-50.16-123.04-50.16-123.04-38.7-8.61-90.29-4.92-90.29-4.92Z"/><path class="o" d="M150.41,193.05c-12.76,27.67-16.4,113.33-21.87,116.97-7.29,3.64-7.29,18.22-10.93,21.87-3.64,3.64-7.29,5.47-7.29,7.29s12.76-5.47,12.76-7.29c0,7.29-9.11,12.76-9.11,14.58,1.82,3.64,10.93-7.29,10.93-7.29-1.82,5.47-7.29,12.76-5.47,14.58,7.29,0,12.76-16.4,12.76-16.4,1.82,1.82-3.64,18.22-3.64,20.05,1.82,7.29,10.93-12.76,14.58-12.76,3.64-25.51,7.29-32.8,5.47-32.8,7.29-20.05,23.69-71.08,23.69-71.08v-36.6s-12.98-18.25-17.43-16.34-4.44,5.22-4.44,5.22Z"/><path class="l" d="M179.57,154c-25.51,27.34-29.16,38.27-29.16,38.27,2.73,2.05,5.14,4.1,7.26,6.07,9.18,8.57,12.79,15.79,12.79,15.79,23.69-25.51,29.16-34.63,29.16-34.63l-20.05-25.51Z"/><path class="f" d="M194.28,132c-30.16,27.28-34.45,84.14-34.45,84.14-11.49,47.39,0,119.56,0,119.56,37.34,9.68,95.45-1.7,95.45-1.7-24.41-66.43-12.16-172.43-27.96-185.35-14.04-11.65-33.04-16.65-33.04-16.65Z"/><path class="p" d="M229.31,339.54c.32,4.12-1.21,7.92-2.91,11.59s-3.32,7.08-4.26,10.93c-1.96,7.97-1.82,16.37-4.83,24.09-.29,.75,.92,1.07,1.21,.33,3.06-7.86,2.87-16.42,4.94-24.52,1.02-4,2.88-7.61,4.56-11.36,1.57-3.5,2.85-7.16,2.55-11.06-.06-.8-1.31-.8-1.25,0h0Z"/><path class="f" d="M187.94,162.03c-18.62,33.63,21.92,69.9,21.92,69.9,21.74-10.4,33.18-22.75,33.18-22.75-35.3-47.04-55.1-47.15-55.1-47.15Z"/><path class="o" d="M217.91,227.76c9.37,9.24,30.14,29.42,33.37,29.24,24-3,46-26.24,50-30,10-7,17-18,17-18-13-9-13-8-13-8-6.07,9.23-26.68,22.92-33.83,30.12-2.89,2.91-7.45,3.38-10.84,1.07-10.29-7-20.65-20.03-20.65-20.03l-22.05,15.6Z"/><polygon class="i" points="342.28 209.22 74.81 47 67.28 55.39 336.03 214.3 342.28 209.22"/><path class="e" d="M76.27,23.84c-1.01,33.25,3.41,36.78-6.7,38.12C42.86,70.74-4.31,131.86,.32,146.34c63.67,28.63,90.44,21.16,97.82,11.49,10.27-61.78-5.32-88.31-5.32-88.31,0,0,6.58-16.19,15.1-14.54-17.28-15.07-20.99-11.11-20.99-11.11-1.62-10.56-10.66-20.03-10.66-20.03Z"/><path class="g" d="M74.38,46.66c.39,4.01,2.03,7.83,4.72,10.83,1.56,1.73,3.4,3.21,5.15,4.73l5.55,4.83,1.6,1.39c.44,.39,.89,.86,1.42,1.13,.76,.39,1.81,.18,2.03-.74,.15-.63-.82-.89-.96-.27-.13,.56-.92-.09-1.12-.26-.45-.37-.88-.76-1.32-1.14l-2.35-2.04-4.8-4.17c-1.48-1.29-3.01-2.54-4.34-3.99-1.21-1.32-2.2-2.81-2.97-4.43-.87-1.84-1.41-3.84-1.61-5.86-.06-.63-1.06-.64-1,0h0Z"/><path class="g" d="M99.1,59.74c-2.27,.75-4.54,1.52-6.81,2.24s-4.47,1.34-6.79,1.53c-4.11,.33-8.78-.85-10.78-4.8-.29-.57-1.15-.07-.86,.5,2.04,4.03,6.74,5.53,11,5.34,2.47-.11,4.89-.73,7.24-1.46s4.85-1.58,7.27-2.38c.61-.2,.35-1.17-.27-.96h0Z"/><path class="o" d="M305.28,201c-3-3-2.28-6.06-3.64-7.03s22.57,13.34,22.57,13.34l-5.93,1.69-13-8Z"/><path class="o" d="M310.46,194.44c.7-.23,1-1.06,1.06-1.79s-.03-1.51,.29-2.18c.94,.34,1.82,.85,2.58,1.49,.3,.26,.59,.54,.76,.91,.53,1.17-.45,2.47-.45,3.76l1.44-4.01c.15-.41,.32-.85,.7-1.06,.65-.37,1.45,.16,1.89,.75,1.48,1.98,1.26,4.7,.98,7.16,.11-1.44,.32-2.87,.65-4.27,.05-.24,.18-.53,.42-.53,.1,0,.19,.05,.27,.11,1.78,1.17,2.67,3.54,2.09,5.59,.25-1.11,.93-2.15,1.95-2.65s2.37-.35,3.13,.5c1.02,1.13,.67,2.92,.08,4.32-.93,2.22-2.54,4.41-4.89,4.96-1.49,.34-3.04-.03-4.53-.41l-1.96-.5c-1.36-.34-2.72-.69-3.97-1.31s-2.4-1.55-3.03-2.79c-.53-1.04-.67-2.24-.66-3.4,.02-1.69,.4-3.47,1.55-4.7"/></g></g></g></svg>