<?xml version="1.0" encoding="UTF-8"?><svg xmlns="http://www.w3.org/2000/svg" viewBox="0 0 103.88 226.44"><defs><style>.d{fill:none;}.d,.e,.f,.g{stroke:#231f20;stroke-miterlimit:10;}.e{fill:#ff9c1d;stroke-width:3px;}.h{fill:#603813;}.i{fill:#301404;}.j{fill:#fff200;}.f{fill:#5a3311;}.g{opacity:.76;stroke-width:2px;}.g,.k{fill:#f15a24;}.k{opacity:.44;}</style></defs><g id="a"/><g id="b"><g id="c"><g><g><path class="e" d="M35.17,64.97c-5.37,5.88-22.26,14-29.35,18.27-2.15,1.29-3.55,3.51-3.8,6.01-1.93,19.55,2.08,102.96,3.35,128.07,.21,4.1,3.54,7.34,7.65,7.43,20.14,.44,61.88,.02,78.09-.17,4.01-.05,7.34-3.11,7.71-7.11,2.57-27.82,4.68-126.46,2.92-129.98s-26.05-10.38-31.81-21.1c-1.32-2.46-3.99-3.9-6.78-3.9h-22.27c-2.16,0-4.25,.87-5.71,2.47Z"/><line class="d" x1="70.23" y1="217" x2="32.23" y2="217"/><path class="k" d="M10.44,93.09c-2.12,23.14,.82,103.99,1.61,124.27,.11,2.79,2.25,5.07,5.03,5.33,15.84,1.44,53.8,.11,67.83-.46,3.14-.13,5.72-2.51,6.1-5.63,3.44-28.18,6.59-107.45,5.56-120.72-.08-1-1.02-1.69-2-1.49-8.4,1.7-23.37,2.22-29.13-3.18-.13-.13-.28-.23-.45-.31-6.06-2.67-18.66,4.03-25.6,5.09-.1,.02-.2,.02-.3,.02-7.02-.06-18.88-4.01-22.85-6l-.12-.06c-2.47-1.23-5.42,.39-5.68,3.15Z"/><rect class="h" x="19.73" y="95.5" width="66" height="114" rx="12" ry="12"/><polygon class="j" points="51.73 108.26 53.86 112.57 58.62 113.26 55.18 116.62 55.99 121.36 51.73 119.12 47.48 121.36 48.29 116.62 44.84 113.26 49.61 112.57 51.73 108.26"/><rect class="i" x="34.73" y="141.5" width="8" height="48" rx="1.56" ry="1.56"/><rect class="i" x="47.73" y="141.5" width="8" height="48" rx="1.56" ry="1.56"/><rect class="i" x="59.73" y="141.5" width="8" height="48" rx="1.56" ry="1.56"/><path class="i" d="M21.73,197.5h59s-4,10-9,10H31.73c-5-1-10-10-10-10Z"/><path class="e" d="M36.23,63c5-5,20-8,33-1"/><rect class="g" x="43.23" y="51" width="17" height="6"/><path class="f" d="M38.73,1.5s-1,42,0,42h24.24c.97,0,1.76-.79,1.76-1.76V2.26c0-.97-.79-1.76-1.76-1.76h-24.24V1.5"/><path class="f" d="M38.62,38.5h25.93c0,2,1.19,5-.81,5h-25c-1-1-.11-5-.11-5Z"/><line class="f" x1="44.23" y1="1" x2="44.23" y2="38"/><line class="f" x1="60.23" y1="1" x2="60.23" y2="38"/><line class="f" x1="52.23" y1="1" x2="52.23" y2="38"/></g><path class="f" d="M39.73,43.5c1,2,3,6,3,7h19s-2,4,0,0,1.78-7.22,2.89-7.11-24.89,.11-24.89,.11"/></g></g></g></svg>