<?xml version="1.0" encoding="UTF-8"?><svg xmlns="http://www.w3.org/2000/svg" viewBox="0 0 687.11 601.08"><defs><style>.e{fill:#fdc695;}.f{fill:#a97b54;}.g{fill:#dda675;}</style></defs><g id="a"/><g id="b"><g id="c"><g transform="matrix( 1, 0, 0, 1, 205.45,-1017.45) "><g id="d"><path class="f" d="M130.62,484.23c2.38-.63,4.79-1.26,7.24-1.89,3.08,3.43,6.5,6.89,10.28,10.38-.77-6.08-1.5-12.17-2.2-18.25-7.41-64.68-9.48-130.24-6.19-196.68-7.9,57.27-11.12,119.48-9.65,186.61,.14,6.57,.31,13.18,.52,19.83m162.59,11.96c-.07-5.03-.17-10.03-.31-15-1.68-75.1-7.41-146.29-17.2-213.57-8.39,44.39-16.6,129.19,3.88,221.33,.98,4.62,2.06,9.27,3.25,13.95,3.43-2.1,6.89-4.34,10.38-6.71m147.48-163.22c.14-26.29-2.38-48.88-7.55-67.76-4.9,18.25-7.8,40.52-8.71,66.82,6.85,86.29,8.22,143.04,4.09,170.24-1.26,8.11-2.97,13.6-5.14,16.47,7.06-4.06,14.13-8.95,21.19-14.69,8.53,2.73,23.32,6.85,44.37,12.38-7.41-4.48-13.95-10.91-19.62-19.3-20.35-29.86-29.9-84.58-28.64-164.16Z"/><path class="g" d="M596.25,142.37c-6.99-105.66-53.6-135.31-139.82-88.95-47.27-72.03-104.58-71.22-171.92,2.41-55.1-36.92-103.5-23.81-145.17,39.34-54.83-13.64-95.03,7.83-120.63,64.41C-.18,244.54-4.77,338.7,4.96,442.06c9.3,46.5,51.19,60.56,125.66,42.17-.21-6.64-.38-13.25-.52-19.83-1.47-67.13,1.75-129.34,9.65-186.61-3.29,66.43-1.22,131.99,6.19,196.68,.7,6.08,1.43,12.17,2.2,18.25,39.09,37.27,83.99,40.66,134.68,10.18-1.19-4.69-2.27-9.34-3.25-13.95-18.04-82.24-6.8-155.06-3.88-221.33,9.79,67.27,15.52,138.46,17.2,213.57,.14,4.97,.24,9.96,.31,15,18.46,16.78,36.89,27.83,55.28,33.15-21.89,36.78-17.24,59.06,13.95,66.82,65.17-5.52,132.8-3.88,202.87,4.93,36.99-7.69,74.93-50.56,113.81-128.6,22.45-41.82-2.34-127.52-74.37-257.1-2.38-23.15-5.21-47.48-8.5-73.01m-6.5,63.46c.35,3.22,.66,6.43,.94,9.65,10.14,102.24,13.08,177.97,8.81,227.2-4.83,55.87-44.27,75.04-118.32,57.48-22.66-31.89-33.36-87.62-32.1-167.2,.14-26.29-5.07-57.06-15.63-92.31-10.7,34.62-16.5,65.07-17.41,91.36,6.85,86.22,6.57,145.24-.84,177.06-2.24,1.12-4.76,2.38-7.55,3.78-14.27,6.99-32.13,7.66-53.6,1.99-18.32-4.89-35.8-13.74-52.45-26.54-1.89-79.86-10.42-162.83-25.59-248.92-21.26,84.13-23.01,168.81-5.24,254.06-43.15,20.21-81.36,16.92-114.65-9.86l-13.32-239.26c-16.99,71.75-24.37,145.8-22.13,222.17-58.6,11.89-91.36-.59-98.29-37.45-7.62-86.15-2.2-168.99,16.26-248.5,15.24-55.17,49.79-75.94,103.64-62.31,40.98-63.15,88.53-76.26,142.66-39.34,66.15-73.64,122.45-74.44,168.88-2.41,84.76-46.36,130.07-3.25,135.94,129.34m-156.61,59.37c5.17,18.88,7.69,41.47,7.55,67.76-1.26,79.58,8.29,134.3,28.64,164.16,5.66,8.39,12.2,14.83,19.62,19.3,71.33,18.74,111.22,.45,119.69-54.86,7.55-51.47,7.24-123.36-.94-215.66,59.16,112.59,78.43,188.11,57.8,226.57-41.54,71.96-78.15,111.22-109.82,117.8-60.14-7.55-118.15-8.95-174.02-4.2-25.73-6.36-30.42-24.13-14.06-53.29,16.71,1.12,33.36-2.48,49.93-10.8,.49-.28,1.01-.56,1.57-.84,1.4-.77,2.83-1.57,4.3-2.41,2.17-2.87,3.88-8.36,5.14-16.47,4.13-27.2,2.76-83.95-4.09-170.24,.91-26.29,3.81-48.57,8.71-66.82Z"/><path class="e" d="M367.58,532.79c-16.36,29.16-11.68,46.92,14.06,53.29,55.87-4.76,113.88-3.36,174.02,4.2,31.68-6.57,68.29-45.84,109.82-117.8,20.63-38.46,1.36-113.99-57.8-226.57,8.18,92.31,8.5,164.2,.94,215.66-8.46,55.31-48.36,73.6-119.69,54.86-21.05-5.52-35.84-9.65-44.37-12.38-7.06,5.73-14.13,10.63-21.19,14.69-1.26,1.68-2.69,2.48-4.3,2.41-.56,.28-1.08,.56-1.57,.84-16.57,8.32-33.22,11.92-49.93,10.8m223.11-317.31c-.28-3.22-.59-6.43-.94-9.65-5.87-132.59-51.19-175.7-135.94-129.34C407.37,4.47,355.33-.55,289.18,73.08c-59.57-32.27-105.78-14.59-156.85,43.77-54.71-8.21-78.46,8.53-93.7,63.7-18.46,79.51-23.88,162.34-16.26,248.5,6.92,36.85,39.69,49.34,98.29,37.45-2.24-76.36,5.14-150.42,22.13-222.17l13.32,239.26c33.29,26.78,71.5,30.07,114.65,9.86-17.76-85.24-16.01-169.93,5.24-254.06,15.17,86.08,23.71,169.06,25.59,248.92,16.64,12.8,34.13,21.64,52.45,26.54,21.47,5.66,39.34,5,53.6-1.99,2.8-1.4,5.31-2.66,7.55-3.78,7.41-31.82,7.69-90.84,.84-177.06,.91-26.29,6.71-56.75,17.41-91.36,10.56,35.24,15.77,66.01,15.63,92.31-1.26,79.58,9.44,135.31,32.1,167.2,74.06,17.55,113.5-1.61,118.32-57.48,4.27-49.23,1.33-124.96-8.81-227.2Z"/></g></g></g></g></svg>