<?xml version="1.0" encoding="UTF-8"?><svg id="a" xmlns="http://www.w3.org/2000/svg" viewBox="0 0 414 313"><defs><style>.b{fill:#165b16;}.c{fill:#555655;}.d{fill:#565656;}.e{fill:#104910;}.f{fill:#306330;}.g{fill:#0a4c0a;}.h{fill:#134913;}.i{fill:#e6ea3b;}.j{fill:#4b4c4b;}.k{fill:#3d3f3d;}.l{fill:#006800;}.m{fill:#2d2d2d;}.n{fill:#125612;}.o{fill:#005200;}.p{fill:#231f20;}.q{fill:#484948;}.r{fill:#0c600c;}</style></defs><polygon class="r" points="21.3 85.44 25.37 232.71 293.92 275.34 296.47 106.9 21.3 85.44"/><polygon class="h" points="379 53 294.8 106.9 292.18 275.34 376.89 232.47 379 53"/><path class="l" d="M314.3,115.2l59.53-19.17c5.55,2.02,12.11,19.67,12.11,19.67,4.54,13.62-.5,34.81-.5,34.81-8.07,12.11-16.65,17.66-16.65,17.66l-52.51,19.86,10.95-13.87-.32-43.82-12.61-15.13Z"/><path class="o" d="M310.23,138.38l-.53-22.45,17.2,14.4,.32,43.82-13.87,16.79-.73-19.71h10.15v-32.86s-13.18,0-12.54,0Z"/><path class="f" d="M326.91,130.33l57.97-16.67c2.22,2.81,5.45,27.08,.55,36.85-2.71,8.31-16.65,17.66-16.65,17.66-19.65,7.44-54.7,22.78-54.7,22.78l13.87-18.25c0-20.44-1.05-42.36-1.05-42.36Z"/><path d="M30.79,233.03c2.19,5.11,4.38,14.6,4.38,14.6,184,28.48,257.01,42.35,257.01,42.35,2.92-5.11,1.46-15.33,1.46-15.33-12.68-1.15-262.85-41.62-262.85-41.62Z"/><path d="M292,290l81.23-43.37c0-3.65,3.7-16.16,3.7-16.16-23.42,13.24-83.29,43.18-83.29,43.18l-1.64,16.36Z"/><polygon class="i" points="361.55 81.43 361.55 96.03 376.88 88 376.88 72.66 361.55 81.43"/><polygon class="h" points="24.22 128.89 293.81 156.93 293.81 166.45 23.49 137.65 24.22 128.89"/><polygon class="h" points="25.68 180.73 292.91 215.77 292.91 224.86 25.68 189.49 25.68 180.73"/><path class="e" d="M384.18,27.4c-1.46,0-2.92,1.46-3.65,5.11s-.73,9.49-.73,9.49l-83.24,49.65,.32,14.6c1.87-.73,5.19-4.3,6.81-4.71s81.3-50.55,81.3-50.55l.64-19.22c0-1.46-1.46-4.38-1.46-4.38Z"/><path class="n" d="M384.18,27.4c-5.84,0-6.57,1.46-6.57,1.46,0,1.46-.73,3.65-.73,3.65l-.73,8.76-81.05,48.19L19.84,70.47v-1.46l-5.84,2.19,282.57,20.44,83.24-49.65,.73-10.95,3.65-3.65Z"/><path class="b" d="M126.44,18.63c-2.92-3.65-5.68,3.73-5.76,6.98,4.3-2.6,7.22-2.6,7.22-2.6l-1.46-4.38Z"/><polygon class="m" points="125.97 22 16.91 67.38 16.91 70.46 295.87 92 378.22 41.23 378.97 32 125.97 22"/><path class="d" d="M377.61,28.86s-248.98-10.22-251.17-10.22-3.65,3.65-3.65,3.65l254.09,10.22,.73-3.65Z"/><polygon class="j" points="127.88 22.8 20.57 66.09 295.1 84.35 376.15 36.16 127.88 22.8"/><polygon class="c" points="127.9 23.01 37.36 59.52 52.7 60.25 141.77 24.48 127.9 23.01"/><polygon class="q" points="32.98 63.9 37.36 59.52 52.7 60.25 54.89 65.36 32.98 63.9"/><polygon class="k" points="141.77 24.48 52.7 60.25 55.62 65.36 146.16 25.21 141.77 24.48"/><g><polygon class="c" points="149.81 24.48 59.27 60.98 74.6 61.71 163.68 25.94 149.81 24.48"/><polygon class="q" points="54.89 65.36 59.27 60.98 74.6 61.71 76.79 66.82 54.89 65.36"/><polygon class="k" points="163.68 25.94 74.6 61.71 77.52 66.82 168.06 26.67 163.68 25.94"/></g><g><polygon class="c" points="174.47 24.4 85.49 64.55 100.84 64.66 188.39 25.29 174.47 24.4"/><polygon class="q" points="81.29 69.11 85.49 64.55 100.84 64.66 103.24 69.68 81.29 69.11"/><polygon class="k" points="188.39 25.29 100.84 64.66 103.97 69.65 192.8 25.84 188.39 25.29"/></g><g><polygon class="c" points="203.56 25.93 118.22 66.59 132.96 66.73 216.93 26.87 203.56 25.93"/><polygon class="q" points="114.2 71.21 118.22 66.59 132.96 66.73 135.27 71.84 114.2 71.21"/><polygon class="k" points="216.93 26.87 132.96 66.73 135.97 71.82 221.16 27.44 216.93 26.87"/></g><g><polygon class="c" points="234.22 28.36 148.88 69.01 163.62 69.16 247.59 29.3 234.22 28.36"/><polygon class="q" points="144.86 73.64 148.88 69.01 163.62 69.16 165.93 74.27 144.86 73.64"/><polygon class="k" points="247.59 29.3 163.62 69.16 166.63 74.24 251.83 29.87 247.59 29.3"/></g><g><polygon class="c" points="300.67 32.01 215.33 72.66 230.06 72.81 314.04 32.95 300.67 32.01"/><polygon class="q" points="211.3 77.29 215.33 72.66 230.06 72.81 232.38 77.92 211.3 77.29"/><polygon class="k" points="314.04 32.95 230.06 72.81 233.08 77.89 318.27 33.52 314.04 32.95"/></g><g><polygon class="c" points="326.95 34.2 241.61 74.86 256.35 75 340.32 35.14 326.95 34.2"/><polygon class="q" points="237.59 79.48 241.61 74.86 256.35 75 258.66 80.11 237.59 79.48"/><polygon class="k" points="340.32 35.14 256.35 75 259.36 80.08 344.55 35.71 340.32 35.14"/></g><g><polygon class="c" points="270 29.09 184.66 69.74 199.4 69.89 283.37 30.03 270 29.09"/><polygon class="q" points="180.64 74.37 184.66 69.74 199.4 69.89 201.71 75 180.64 74.37"/><polygon class="k" points="283.37 30.03 199.4 69.89 202.41 74.97 287.6 30.6 283.37 30.03"/></g><g><polygon class="c" points="349.59 34.93 264.25 75.59 278.98 75.73 362.96 35.87 349.59 34.93"/><polygon class="q" points="260.22 80.21 264.25 75.59 278.98 75.73 281.3 80.84 260.22 80.21"/><polygon class="k" points="362.96 35.87 278.98 75.73 282 80.81 367.19 36.44 362.96 35.87"/></g><polygon class="b" points="297.7 91.53 14.73 71.2 14.73 85.81 298.03 109.17 297.7 91.53"/><path class="g" d="M24.67,212.56c19.33,10.44,17.33,20.44,23.33,22.44-13-1-22.63-2.29-22.63-2.29l-.7-20.16Z"/><path class="g" d="M374.22,199.28c.64,0,.64-1,0-1s-.64,1,0,1h0Z"/><polygon class="p" points="377.33 190.56 372.5 192.5 373.5 195.5 369.5 199.5 372.5 199.5 368.5 204.5 374.5 200.5 373.5 197.5 376.5 195.5 375.5 192.5 377.33 190.56"/></svg>