<?xml version="1.0" encoding="UTF-8"?><svg xmlns="http://www.w3.org/2000/svg" xmlns:xlink="http://www.w3.org/1999/xlink" viewBox="0 0 875.93 506.78"><defs><style>.ai{fill:url(#t);}.aj{fill:url(#r);}.ak{fill:url(#y);}.al{fill:url(#l);}.am{fill:url(#af);}.an{fill:url(#u);}.ao{fill:url(#ah);}.ap{fill:url(#v);}.aq{fill:url(#a`);}.ar{fill:url(#m);}.as{fill:url(#f);}.at{fill:url(#ae);}.au{fill:url(#p);}.av{fill:url(#g);}.aw{fill:url(#ad);}.ax{fill:url(#ab);}.ay{fill:url(#i);}.b`{fill:url(#h);}.ba{fill:url(#d);}.bb{fill:url(#e);}.bc{fill:url(#x);}.bd{fill:url(#aa);}.be{fill:url(#s);}.bf{fill:url(#n);}.bg{fill:url(#ac);}.bh{fill:url(#w);}.bi{fill:url(#j);}.bj{fill:url(#o);}.bk{fill:url(#q);}.bl{fill:url(#ag);}.bm{fill:url(#k);}</style><linearGradient id="d" x1="0" y1="253.39" x2="875.93" y2="253.39" gradientTransform="matrix(1, 0, 0, 1, 0, 0)" gradientUnits="userSpaceOnUse"><stop offset="0" stop-color="#545454"/><stop offset=".33" stop-color="#5d5d5d"/><stop offset=".51" stop-color="#585858"/><stop offset=".72" stop-color="#6e6f72"/><stop offset="1" stop-color="#737373"/></linearGradient><linearGradient id="e" x1="27.5" y1="237.64" x2="194.93" y2="237.64" gradientTransform="matrix(1, 0, 0, 1, 0, 0)" gradientUnits="userSpaceOnUse"><stop offset="0" stop-color="#545454"/><stop offset=".33" stop-color="#a9a9a9"/><stop offset=".51" stop-color="#585858"/><stop offset=".72" stop-color="#6e6f72"/><stop offset="1" stop-color="#737373"/></linearGradient><linearGradient id="f" x1="226.91" y1="125.49" x2="411.16" y2="125.49" xlink:href="#e"/><linearGradient id="g" x1="680.99" y1="237.64" x2="848.42" y2="237.64" xlink:href="#e"/><linearGradient id="h" x1="464.77" y1="125.49" x2="649.01" y2="125.49" xlink:href="#e"/><linearGradient id="i" x1="235.93" y1="342.51" x2="640.01" y2="342.51" xlink:href="#e"/><linearGradient id="j" x1="150.07" y1="476.64" x2="715.96" y2="476.64" xlink:href="#e"/><linearGradient id="k" x1="646.73" y1="399.08" x2="699.96" y2="399.08" xlink:href="#e"/><linearGradient id="l" x1="596.35" y1="432.69" x2="671.96" y2="432.69" xlink:href="#e"/><linearGradient id="m" x1="833.63" y1="194.96" x2="870.33" y2="194.96" xlink:href="#e"/><linearGradient id="n" x1="656.94" y1="111.14" x2="732.96" y2="111.14" xlink:href="#e"/><linearGradient id="o" x1="580.96" y1="34.78" x2="642.3" y2="34.78" xlink:href="#e"/><linearGradient id="p" x1="437.96" y1="474.54" x2="598.67" y2="474.54" xlink:href="#e"/><linearGradient id="q" x1="400.96" y1="59.37" x2="474.96" y2="59.37" xlink:href="#e"/><linearGradient id="r" x1="654.28" y1="166.81" x2="692.3" y2="166.81" xlink:href="#e"/><linearGradient id="s" x1="604.66" y1="240.69" x2="648.97" y2="240.69" xlink:href="#e"/><linearGradient id="t" x1="770.96" y1="319.72" x2="861.63" y2="319.72" xlink:href="#e"/><linearGradient id="u" x1="417.86" y1="101.9" x2="458.07" y2="101.9" xlink:href="#e"/><linearGradient id="v" x1="175.96" y1="399.08" x2="229.2" y2="399.08" xlink:href="#e"/><linearGradient id="w" x1="203.96" y1="432.69" x2="279.58" y2="432.69" xlink:href="#e"/><linearGradient id="x" x1="5.6" y1="194.96" x2="42.3" y2="194.96" xlink:href="#e"/><linearGradient id="y" x1="142.96" y1="111.14" x2="218.98" y2="111.14" xlink:href="#e"/><linearGradient id="a`" x1="233.63" y1="34.78" x2="294.96" y2="34.78" xlink:href="#e"/><linearGradient id="aa" x1="277.25" y1="474.54" x2="437.97" y2="474.54" xlink:href="#e"/><linearGradient id="ab" x1="183.63" y1="166.81" x2="221.65" y2="166.81" xlink:href="#e"/><linearGradient id="ac" x1="226.96" y1="240.69" x2="271.27" y2="240.69" xlink:href="#e"/><linearGradient id="ad" x1="14.3" y1="319.72" x2="104.96" y2="319.72" xlink:href="#e"/><linearGradient id="ae" x1="417.86" y1="101.9" x2="458.07" y2="101.9" xlink:href="#e"/><linearGradient id="af" x1="422.46" y1="185.08" x2="452.46" y2="185.08" xlink:href="#e"/><linearGradient id="ag" x1="699.96" y1="450.12" x2="736" y2="450.12" xlink:href="#e"/><linearGradient id="ah" x1="139.93" y1="450.12" x2="175.96" y2="450.12" xlink:href="#e"/></defs><g id="a"/><g id="b"><g id="c"><g><path class="ba" d="M872.75,220.4c-.69-2.75-.85-5.61-.46-8.41,1.86-13.43,1.88-21.63,1.52-26.29-.24-3.07-1.54-5.96-3.69-8.17l-45.5-46.64c-3.19-3.27-7.57-5.11-12.14-5.11h-23.56c-2.75,0-5.48-.53-8.06-1.51-8.76-3.33-34.51-10.1-79.9,1.51-14-.67-22.67-8.67-27.33-24-3.39-11.13-13.1-25.07-18.17-31.88-2.09-2.81-3.55-6.03-4.25-9.46-1.25-6.1-3.42-16.47-5.58-25.99-3.34-14.67-66.67-38-78-34-9.27,3.27-17.65,9.22-26.24,14.56-3.3,2.05-7.05,3.24-10.93,3.53-14.57,1.07-42.5,8.74-64.5,30.74-13.5,9-28,7-28,7,0,0-14.5,2-28-7-22-22-49.93-29.67-64.5-30.74-3.88-.29-7.63-1.48-10.93-3.53-8.59-5.34-16.97-11.29-26.24-14.56-11.33-4-74.66,19.33-78,34-2.16,9.52-4.33,19.89-5.58,25.99-.7,3.43-2.16,6.65-4.25,9.46-5.07,6.81-14.78,20.75-18.17,31.88-4.66,15.33-13.33,23.33-27.33,24-45.39-11.61-71.14-4.84-79.9-1.51-2.58,.98-5.31,1.51-8.06,1.51h-23.56c-4.57,0-8.95,1.84-12.14,5.11L5.8,177.53c-2.15,2.21-3.45,5.1-3.69,8.17-.36,4.66-.34,12.86,1.52,26.29,.39,2.8,.23,5.66-.46,8.41-4.59,18.36-7.47,59.02,15.44,99.84,8.49,15.13,20.29,28.11,34.23,38.44,73.25,54.29,128.77,13.43,143.12,17.6,.56,.16,1.1,.33,1.63,.51,27.95,9.52,22.68,50.48-6.71,53.28-21.85,2.07-37.85,6.74-48.05,10.66-7.55,2.91-10.92,11.71-7.19,18.89l.21,.39c3.24,6.23,9.06,10.72,15.91,12.27,136.25,30.7,286.2,34.5,286.2,34.5,0,0,149.95-3.8,286.2-34.5,6.85-1.55,12.67-6.04,15.91-12.27l.21-.39c3.73-7.18,.36-15.98-7.19-18.89-10.2-3.92-26.2-8.59-48.05-10.66-29.39-2.8-34.66-43.76-6.71-53.28,.53-.18,1.07-.35,1.63-.51,14.35-4.17,69.87,36.69,143.12-17.6,13.94-10.33,25.74-23.31,34.23-38.44,22.91-40.82,20.03-81.48,15.44-99.84ZM124.49,342.16c-20.57,0-39.6-6.58-55.12-17.74-14.96-16.71-24.05-38.78-24.05-62.98,0-52.18,42.3-94.48,94.49-94.48,20.57,0,39.61,6.57,55.12,17.73h0c14.96,16.72,24.05,38.79,24.05,62.98,0,52.19-42.3,94.49-94.49,94.49Zm119.55-208.25c17.17-49.28,71.04-75.31,120.32-58.14,19.42,6.77,35.24,19.24,46.22,34.88l.58,1.42c8.1,20.37,9.19,43.64,1.41,65.97-17.17,49.28-71.03,75.31-120.31,58.14-19.43-6.77-35.25-19.24-46.23-34.89h.01c-8.63-20.7-9.95-44.53-2-67.38Zm378.25,227.2c-25.33,104-184.33,94.67-184.33,94.67,0,0-159,9.33-184.33-94.67-25.34-104,52-74.66,70-73.33,18,1.33,50.66-4.67,84.66-30,13.42-12.29,22.17-12,29.67-12s16.25-.29,29.67,12c34,25.33,66.66,31.33,84.66,30,18-1.33,95.34-30.67,70,73.33Zm7.6-159.82c-10.98,15.65-26.8,28.12-46.23,34.89-49.28,17.17-103.14-8.86-120.31-58.14-7.78-22.33-6.69-45.6,1.41-65.97l.58-1.42c10.98-15.64,26.8-28.11,46.22-34.88,49.28-17.17,103.15,8.86,120.32,58.14,7.95,22.85,6.63,46.68-2,67.38h.01Zm176.66,123.13c-15.52,11.16-34.55,17.74-55.12,17.74-52.19,0-94.49-42.3-94.49-94.49,0-24.19,9.09-46.26,24.05-62.97h0c15.51-11.17,34.55-17.74,55.12-17.74,52.19,0,94.49,42.3,94.49,94.48,0,24.2-9.09,46.27-24.05,62.98Z"/><g><path class="bb" d="M69.37,324.42l-2.93-2.04c-.48-.33-1.01-.7-1.6-1.11-.56-.44-1.18-.93-1.85-1.45-.67-.52-1.39-1.09-2.15-1.69-.76-.61-1.5-1.33-2.32-2.05-3.3-2.87-7.02-6.7-10.83-11.49-3.81-4.78-7.68-10.59-10.94-17.43-3.29-6.83-6.02-14.67-7.58-23.27-.36-2.15-.8-4.33-.98-6.56-.12-1.11-.24-2.24-.37-3.36-.09-1.13-.12-2.27-.18-3.42-.04-1.17-.14-2.25-.13-3.51,.02-1.13,.03-2.27,.05-3.41-.01-1.12,.12-2.36,.18-3.54,.08-1.2,.14-2.41,.3-3.59,1.01-9.5,3.39-19.24,7.5-28.43,.98-2.32,2.15-4.56,3.31-6.82,1.25-2.2,2.49-4.43,3.9-6.55,2.77-4.27,5.84-8.38,9.26-12.19,6.89-7.57,14.92-14.09,23.66-19.08,2.16-1.29,4.41-2.39,6.64-3.52,2.28-1,4.54-2.04,6.86-2.87,4.61-1.74,9.28-3.15,13.97-4.11,4.67-.99,9.34-1.69,13.93-1.9,2.29-.18,4.56-.16,6.8-.18,.31,0,.5-.02,.9,0l.82,.04c.54,.02,1.08,.05,1.62,.07,1.09,.06,2.13,.06,3.24,.18,2.19,.24,4.38,.36,6.46,.74,1.05,.16,2.08,.32,3.11,.48,1.02,.19,2.03,.42,3.03,.64,4.01,.84,7.8,2.01,11.38,3.23,7.16,2.49,13.35,5.71,18.52,8.98,5.18,3.27,9.31,6.66,12.57,9.57,1.6,1.49,3.04,2.8,4.18,4.06,1.17,1.23,2.18,2.25,2.92,3.16,1.52,1.77,2.33,2.71,2.33,2.71,0,0-.89-.86-2.56-2.48-.81-.83-1.91-1.75-3.17-2.86-1.24-1.13-2.78-2.31-4.45-3.66-3.43-2.62-7.73-5.61-12.96-8.5-5.25-2.86-11.43-5.59-18.43-7.68-3.51-1.01-7.2-1.95-11.08-2.57-.97-.16-1.94-.32-2.93-.48-.99-.12-1.99-.23-2.99-.35-2.02-.29-4.03-.32-6.09-.48-1.02-.08-2.13-.04-3.19-.06-.54,0-1.08-.01-1.63-.02h-.82c-.15-.01-.5,.01-.74,.02-2.13,.1-4.29,.15-6.46,.4-2.18,.16-4.35,.52-6.55,.81-1.1,.17-2.19,.41-3.29,.61l-1.65,.32-1.64,.4c-4.41,1-8.79,2.43-13.09,4.16-4.31,1.72-8.54,3.79-12.62,6.2-4.07,2.41-8.04,5.08-11.72,8.14-3.7,3.04-7.17,6.38-10.39,9.94-3.24,3.55-6.15,7.39-8.78,11.39-1.34,1.99-2.51,4.07-3.71,6.13-1.09,2.12-2.21,4.21-3.15,6.39-3.89,8.63-6.44,17.7-7.55,26.67-.18,1.12-.25,2.23-.35,3.33-.08,1.12-.23,2.16-.25,3.33-.04,1.14-.08,2.28-.13,3.41-.05,1,.01,2.17,.01,3.24,.02,1.09,.01,2.18,.06,3.25,.08,1.08,.16,2.15,.24,3.21,.1,2.14,.45,4.22,.72,6.28,1.24,8.23,3.47,15.87,6.31,22.6,2.85,6.73,6.23,12.58,9.65,17.48,3.44,4.88,6.78,8.93,9.82,11.99,.75,.77,1.44,1.54,2.14,2.19,.7,.66,1.36,1.28,1.97,1.85,.61,.58,1.18,1.11,1.7,1.6,.55,.46,1.05,.88,1.49,1.25,1.78,1.5,2.73,2.29,2.73,2.29Z"/><path class="as" d="M246.04,201.29s-.73-1.01-2.11-2.9c-.34-.47-.73-1-1.15-1.58-.39-.61-.81-1.27-1.27-1.99-.46-.72-.95-1.49-1.48-2.32-.51-.83-.98-1.76-1.52-2.71-2.17-3.82-4.44-8.68-6.46-14.49-2.02-5.8-3.76-12.59-4.57-20.17-.84-7.56-.81-15.91,.58-24.58,.18-1.08,.36-2.17,.54-3.27,.17-1.1,.48-2.18,.71-3.28,.26-1.1,.51-2.2,.77-3.31,.32-1.09,.65-2.19,.97-3.3l.49-1.66c.1-.3,.14-.5,.28-.89l.29-.8c.39-1.07,.78-2.14,1.17-3.22,.41-1.08,.92-2.2,1.37-3.31l.71-1.67,.78-1.62c2.02-4.36,4.5-8.59,7.26-12.7,.71-1.01,1.38-2.07,2.14-3.05,.76-.99,1.51-1.98,2.27-2.98,1.61-1.92,3.21-3.86,4.98-5.67,6.92-7.39,15.2-13.68,24.21-18.64,4.53-2.43,9.27-4.47,14.1-6.16,1.22-.4,2.41-.86,3.64-1.2,1.23-.35,2.45-.7,3.68-1.05,2.48-.59,4.94-1.2,7.44-1.61,9.95-1.86,20.03-1.85,29.54-.59,1.19,.13,2.37,.38,3.54,.56,1.17,.19,2.34,.39,3.49,.67,1.15,.26,2.29,.52,3.43,.77,1.12,.32,2.24,.63,3.35,.95,1.12,.29,2.2,.67,3.28,1.04,1.1,.39,2.11,.69,3.26,1.14,1.02,.41,2.03,.81,3.04,1.22l1.51,.61c.51,.23,1.01,.47,1.52,.7,8.07,3.65,15.03,8.15,20.92,13,5.88,4.85,10.62,10,14.39,14.86,3.79,4.85,6.49,9.5,8.56,13.36,1,1.95,1.91,3.69,2.55,5.27,.68,1.56,1.28,2.88,1.66,3.99,.82,2.19,1.26,3.36,1.26,3.36,0,0-.54-1.12-1.56-3.23-.48-1.06-1.19-2.32-2-3.8-.78-1.5-1.81-3.14-2.94-4.99-2.33-3.65-5.33-7.98-9.3-12.49-3.97-4.5-8.87-9.2-14.74-13.61-5.88-4.36-12.85-8.38-20.5-11.56l-1.43-.61-1.52-.55c-1.02-.37-2.05-.74-3.08-1.11-.91-.32-2.03-.62-3.04-.94-1.04-.31-2.08-.64-3.15-.88-4.23-1.14-8.65-1.92-13.15-2.48-4.51-.54-9.14-.67-13.8-.53-1.16,.06-2.33,.12-3.5,.18-1.17,.12-2.34,.24-3.51,.35-1.18,.08-2.34,.31-3.51,.46l-1.76,.25-1.75,.34c-2.35,.4-4.66,1-6.98,1.57l-3.45,1.02c-1.16,.32-2.27,.77-3.42,1.15-4.53,1.62-8.96,3.57-13.2,5.87-8.49,4.6-16.31,10.45-22.86,17.35-3.29,3.43-6.33,7.06-9,10.88-2.68,3.81-5.11,7.76-7.11,11.84l-.77,1.51-.68,1.52c-.45,1.02-.92,2-1.35,3.05-.42,1.07-.83,2.13-1.25,3.19l-.31,.79c-.06,.14-.17,.49-.25,.73l-.52,1.56c-.35,1.04-.69,2.07-1.04,3.1l-.84,3.12c-.26,1.04-.59,2.06-.79,3.1-.21,1.04-.42,2.07-.63,3.09-1.57,8.22-2,16.19-1.56,23.52,.46,7.33,1.72,14,3.33,19.78,1.64,5.77,3.47,10.72,5.34,14.63,.46,.98,.86,1.93,1.3,2.79,.45,.86,.86,1.66,1.25,2.41,.39,.75,.75,1.44,1.08,2.08,.37,.62,.7,1.18,1,1.68,1.2,2.01,1.84,3.08,1.84,3.08Z"/><path class="av" d="M806.56,324.42s.95-.8,2.73-2.29c.45-.37,.94-.79,1.49-1.25,.52-.49,1.08-1.02,1.7-1.6,.61-.57,1.27-1.19,1.96-1.85,.7-.66,1.38-1.42,2.14-2.19,3.04-3.06,6.37-7.12,9.82-11.99,3.42-4.9,6.8-10.75,9.65-17.48,2.83-6.73,5.06-14.37,6.31-22.6,.27-2.06,.62-4.14,.72-6.28,.08-1.06,.16-2.13,.24-3.21,.04-1.08,.03-2.16,.06-3.25,0-1.07,.06-2.23,.01-3.24-.04-1.13-.08-2.27-.13-3.41-.01-1.17-.17-2.21-.25-3.33-.1-1.1-.17-2.2-.35-3.33-1.11-8.98-3.66-18.05-7.55-26.67-.94-2.17-2.06-4.27-3.15-6.39-1.19-2.06-2.37-4.14-3.71-6.13-2.63-3.99-5.54-7.84-8.78-11.39-3.22-3.57-6.7-6.9-10.39-9.94-3.68-3.06-7.65-5.73-11.72-8.14-4.08-2.4-8.31-4.48-12.62-6.2-4.31-1.73-8.69-3.16-13.09-4.16l-1.64-.4-1.65-.32c-1.1-.2-2.19-.44-3.29-.61-2.2-.29-4.38-.65-6.55-.81-2.17-.25-4.33-.3-6.46-.4-.24,0-.59-.03-.74-.03h-.82c-.54,.01-1.09,.02-1.63,.02-1.07,.03-2.18-.01-3.19,.06-2.05,.16-4.07,.19-6.09,.48-1.01,.12-2,.24-2.99,.35-.98,.16-1.96,.32-2.93,.48-3.88,.61-7.57,1.56-11.08,2.57-7,2.09-13.18,4.83-18.43,7.68-5.23,2.89-9.54,5.88-12.96,8.5-1.68,1.35-3.21,2.53-4.45,3.66-1.26,1.11-2.36,2.03-3.17,2.86-1.67,1.62-2.56,2.48-2.56,2.48,0,0,.81-.94,2.33-2.71,.74-.91,1.75-1.93,2.92-3.16,1.14-1.26,2.58-2.57,4.18-4.06,3.26-2.9,7.38-6.3,12.57-9.57,5.17-3.26,11.36-6.49,18.52-8.98,3.58-1.22,7.37-2.39,11.38-3.23,1-.21,2.01-.45,3.03-.64,1.03-.16,2.07-.32,3.11-.48,2.08-.37,4.27-.5,6.46-.74,1.11-.12,2.15-.12,3.24-.18,.54-.02,1.08-.05,1.62-.07l.82-.04c.4-.02,.59,0,.9,0,2.24,.02,4.51,0,6.8,.18,4.59,.22,9.25,.92,13.93,1.9,4.69,.96,9.36,2.37,13.97,4.11,2.32,.83,4.58,1.87,6.86,2.87,2.22,1.13,4.48,2.23,6.64,3.52,8.74,4.99,16.78,11.52,23.66,19.08,3.42,3.81,6.49,7.92,9.26,12.19,1.41,2.12,2.64,4.35,3.9,6.55,1.15,2.26,2.32,4.5,3.31,6.82,4.12,9.2,6.49,18.94,7.5,28.43,.16,1.18,.22,2.39,.3,3.59,.06,1.18,.2,2.42,.18,3.54,.02,1.14,.03,2.28,.05,3.41,.01,1.26-.09,2.34-.13,3.51-.06,1.15-.09,2.29-.18,3.42-.12,1.13-.25,2.25-.37,3.36-.19,2.23-.63,4.41-.98,6.56-1.56,8.59-4.29,16.44-7.58,23.27-3.26,6.85-7.13,12.65-10.94,17.43-3.81,4.79-7.53,8.62-10.83,11.49-.82,.72-1.56,1.44-2.32,2.05-.77,.6-1.48,1.17-2.15,1.69-.67,.52-1.28,1.01-1.85,1.45-.59,.41-1.12,.78-1.6,1.11-1.91,1.33-2.93,2.04-2.93,2.04Z"/><path class="b`" d="M629.89,201.29s.64-1.07,1.84-3.08c.3-.5,.63-1.06,1-1.68,.33-.64,.69-1.33,1.08-2.08,.39-.75,.81-1.55,1.25-2.41,.44-.86,.84-1.81,1.3-2.79,1.86-3.91,3.69-8.86,5.34-14.63,1.61-5.78,2.87-12.45,3.33-19.78,.44-7.33,.01-15.31-1.56-23.52-.21-1.02-.42-2.06-.63-3.09-.2-1.04-.53-2.06-.79-3.1-.28-1.03-.56-2.07-.84-3.12-.34-1.03-.69-2.06-1.04-3.1l-.52-1.56c-.08-.23-.19-.58-.25-.73l-.31-.79c-.41-1.06-.83-2.12-1.25-3.19-.43-1.05-.9-2.03-1.35-3.05l-.68-1.52-.77-1.51c-2-4.08-4.42-8.02-7.11-11.84-2.68-3.82-5.72-7.45-9-10.88-6.55-6.9-14.38-12.76-22.86-17.35-4.24-2.3-8.68-4.25-13.2-5.87-1.14-.38-2.26-.82-3.42-1.15l-3.45-1.02c-2.32-.57-4.64-1.16-6.98-1.57l-1.75-.34-1.76-.25c-1.17-.15-2.34-.38-3.51-.46-1.17-.12-2.34-.24-3.51-.35-1.17-.06-2.34-.12-3.5-.18-4.66-.14-9.29-.01-13.8,.53-4.5,.56-8.92,1.34-13.15,2.48-1.07,.24-2.11,.57-3.15,.88-1.01,.32-2.13,.61-3.04,.94-1.03,.37-2.06,.74-3.08,1.11l-1.52,.55-1.43,.61c-7.65,3.18-14.62,7.2-20.5,11.56-5.87,4.41-10.77,9.11-14.74,13.61-3.97,4.51-6.97,8.84-9.3,12.49-1.13,1.85-2.16,3.5-2.94,4.99-.81,1.48-1.52,2.73-2,3.8-1.02,2.1-1.56,3.23-1.56,3.23,0,0,.44-1.17,1.26-3.36,.38-1.11,.98-2.42,1.66-3.99,.64-1.58,1.54-3.32,2.55-5.27,2.08-3.86,4.77-8.51,8.56-13.36,3.76-4.86,8.5-10.02,14.39-14.86,5.9-4.85,12.85-9.35,20.92-13,.5-.23,1.01-.47,1.52-.7l1.51-.61c1.01-.4,2.02-.81,3.04-1.22,1.15-.45,2.16-.75,3.26-1.14,1.08-.37,2.16-.75,3.28-1.04,1.11-.31,2.23-.63,3.35-.95,1.14-.26,2.28-.51,3.43-.77,1.15-.28,2.31-.48,3.49-.67,1.18-.18,2.35-.44,3.54-.56,9.51-1.26,19.59-1.27,29.54,.59,2.5,.41,4.96,1.02,7.44,1.61,1.22,.35,2.45,.7,3.68,1.05,1.23,.34,2.43,.8,3.64,1.2,4.83,1.69,9.56,3.73,14.1,6.16,9.01,4.96,17.29,11.25,24.21,18.64,1.77,1.81,3.38,3.75,4.98,5.67,.76,1,1.52,1.99,2.27,2.98,.76,.99,1.43,2.04,2.14,3.05,2.76,4.11,5.24,8.34,7.26,12.7l.78,1.62,.71,1.67c.46,1.11,.96,2.22,1.37,3.31,.39,1.08,.78,2.15,1.17,3.22l.29,.8c.14,.39,.18,.59,.28,.89l.49,1.66c.33,1.11,.65,2.21,.97,3.3,.26,1.11,.52,2.21,.77,3.31,.24,1.1,.54,2.18,.71,3.28,.18,1.1,.36,2.19,.55,3.27,1.39,8.66,1.42,17.01,.58,24.58-.81,7.58-2.55,14.37-4.57,20.17-2.02,5.81-4.28,10.67-6.46,14.49-.54,.96-1.01,1.88-1.52,2.71-.53,.82-1.02,1.6-1.48,2.32-.46,.72-.88,1.38-1.27,1.99-.42,.58-.8,1.11-1.15,1.58-1.37,1.89-2.11,2.9-2.11,2.9Z"/><path class="ay" d="M437.96,463.75c-10.21,.65-20.47,.54-30.7,.05-10.23-.53-20.44-1.58-30.58-3.13-10.14-1.56-20.21-3.66-30.13-6.38-9.9-2.76-19.67-6.11-29.1-10.31-4.71-2.1-9.35-4.39-13.86-6.91-4.51-2.53-8.89-5.31-13.13-8.29-8.49-5.95-16.28-12.96-23.11-20.82-3.39-3.96-6.53-8.13-9.4-12.49-2.84-4.38-5.38-8.95-7.63-13.66-2.23-4.72-4.1-9.6-5.76-14.55-.73-2.5-1.57-4.98-2.16-7.52-.32-1.27-.65-2.51-.95-3.81l-.83-3.75c-2.18-10.11-3.85-20.34-4.47-30.76-.3-5.21-.32-10.46,.13-15.73,.45-5.26,1.34-10.57,3.11-15.71,1.73-5.13,4.4-10.12,8.19-14.27,3.77-4.17,8.67-7.3,13.87-9.19,5.21-1.91,10.66-2.71,16-2.91,5.36-.19,10.65,.23,15.84,.93,5.19,.7,10.3,1.72,15.31,2.74,2.5,.5,5,1.03,7.37,1.39,.59,.09,1.17,.17,1.71,.21l.21,.02s.16,.01,0,0h.12l.48,.03,.96,.04,1.92,.09c.63,.02,1.2-.01,1.8-.01,1.19-.02,2.37,0,3.61-.12,1.23-.1,2.45-.11,3.68-.28l3.68-.42,3.67-.6c4.87-.89,9.73-2.02,14.47-3.55,9.52-2.94,18.73-6.99,27.46-11.89,8.74-4.89,17.04-10.59,24.87-16.89l-.26,.24c1.12-1.05,2.19-2.14,3.36-3.15l1.75-1.52c.59-.5,1.22-.97,1.83-1.45,.6-.49,1.24-.95,1.89-1.39,.65-.44,1.27-.92,1.96-1.32,.68-.41,1.35-.84,2.05-1.23l2.13-1.12,2.22-.99c.77-.28,1.53-.58,2.31-.84,1.57-.48,3.16-.91,4.78-1.16,3.23-.56,6.44-.56,9.36-.56,2.9-.01,6.12,0,9.35,.55,1.62,.25,3.21,.67,4.78,1.16,.78,.25,1.54,.56,2.31,.84l2.22,.99,2.13,1.12c.7,.39,1.36,.82,2.05,1.23,.69,.4,1.31,.88,1.96,1.32,.65,.44,1.29,.9,1.89,1.39,.61,.48,1.24,.95,1.83,1.45l1.75,1.52c1.17,1.01,2.24,2.1,3.36,3.15l-.26-.24c7.82,6.3,16.12,12,24.87,16.89,8.73,4.9,17.94,8.95,27.46,11.89,9.49,2.96,19.38,4.86,29.16,4.95,.61,0,1.22,.03,1.83,.01l1.81-.08c.58-.03,1.26-.04,1.77-.09,.69-.06,1.13-.13,1.73-.21,2.37-.36,4.87-.89,7.36-1.39,5.01-1.03,10.12-2.04,15.31-2.74,5.19-.7,10.48-1.12,15.84-.93,5.34,.19,10.79,.99,16,2.91,5.2,1.89,10.1,5.02,13.87,9.19,3.8,4.15,6.47,9.14,8.19,14.28,1.77,5.14,2.67,10.44,3.12,15.71,.45,5.27,.43,10.53,.12,15.74-.63,10.42-2.3,20.67-4.47,30.75l-.84,3.78-.12,.53-.12,.46-.24,.93-.47,1.86c-.57,2.46-1.43,5.02-2.16,7.53-1.66,4.95-3.53,9.83-5.76,14.55-2.26,4.71-4.79,9.29-7.63,13.66-2.87,4.36-6.02,8.53-9.4,12.49-6.84,7.86-14.62,14.87-23.11,20.82-4.24,2.98-8.62,5.76-13.13,8.29-4.51,2.53-9.15,4.81-13.86,6.91-9.43,4.2-19.2,7.55-29.1,10.31-9.92,2.72-19.99,4.81-30.13,6.38-10.14,1.56-20.35,2.6-30.58,3.13-10.23,.49-20.49,.59-30.7-.05,10.22,.32,20.45-.11,30.63-.93,10.18-.83,20.32-2.07,30.36-3.87,10.04-1.79,19.98-4.11,29.72-7.04,9.73-2.96,19.29-6.5,28.45-10.85,9.15-4.35,17.97-9.4,26.1-15.38,8.16-5.93,15.57-12.84,22.03-20.53,3.2-3.87,6.15-7.93,8.83-12.16,2.66-4.25,5-8.68,7.12-13.22,2.09-4.55,3.82-9.26,5.36-14.03,.66-2.41,1.42-4.71,1.98-7.24l.45-1.86,.22-.93,.11-.47,.09-.41,.78-3.72c2.01-9.93,3.51-19.95,3.99-29.97,.23-5,.18-10-.3-14.92-.49-4.91-1.37-9.76-2.96-14.29-1.56-4.53-3.89-8.72-7.03-12.11-3.13-3.4-7.1-5.92-11.52-7.49-4.42-1.59-9.22-2.28-14.08-2.42-4.87-.14-9.82,.28-14.75,.98-4.94,.7-9.87,1.72-14.87,2.78-2.51,.52-5.01,1.08-7.7,1.51-.66,.1-1.49,.22-2.07,.27-.76,.08-1.37,.08-2.06,.13l-2.02,.11c-.67,.02-1.34,0-2.01,0-5.34-.02-10.64-.5-15.82-1.44-5.19-.93-10.32-2.12-15.32-3.71-10.03-3.08-19.67-7.29-28.78-12.38-9.13-5.07-17.76-10.98-25.89-17.49l-.06-.05-.2-.19c-1.03-.95-2.02-1.97-3.08-2.87l-1.58-1.37c-.53-.44-1.09-.85-1.63-1.28-.54-.44-1.09-.84-1.66-1.22-.57-.38-1.11-.81-1.69-1.14-.58-.34-1.15-.71-1.73-1.04l-1.77-.93-1.8-.8c-.61-.22-1.22-.46-1.84-.66-1.24-.38-2.49-.71-3.78-.9-2.57-.44-5.25-.45-8.22-.44-2.95-.01-5.65,0-8.21,.44-1.29,.19-2.54,.53-3.78,.9-.62,.2-1.22,.44-1.84,.66l-1.8,.8-1.77,.93c-.58,.32-1.15,.7-1.73,1.04-.58,.33-1.13,.76-1.69,1.14-.57,.38-1.12,.78-1.66,1.22-.54,.43-1.09,.84-1.63,1.28l-1.58,1.37c-1.06,.9-2.05,1.92-3.08,2.87l-.2,.19-.06,.05c-8.12,6.51-16.76,12.41-25.89,17.49-9.12,5.09-18.75,9.3-28.78,12.38-5,1.6-10.13,2.78-15.32,3.71l-3.91,.62-3.95,.44c-1.31,.17-2.65,.18-3.97,.28-1.31,.1-2.69,.09-4.06,.1-.68,0-1.38,.02-2.03,0l-1.92-.1-.96-.05-.48-.03-.35-.03-.27-.03c-.73-.07-1.41-.17-2.09-.27-2.69-.43-5.19-.98-7.7-1.51-5-1.06-9.92-2.08-14.87-2.78-4.93-.71-9.88-1.12-14.75-.98-4.86,.14-9.67,.83-14.08,2.42-4.42,1.57-8.39,4.09-11.52,7.49-3.14,3.39-5.47,7.57-7.03,12.11-1.6,4.53-2.49,9.38-2.97,14.29-.48,4.92-.53,9.92-.3,14.92,.48,10.01,1.98,20.06,3.99,29.96l.78,3.75c.26,1.19,.58,2.43,.86,3.64,.54,2.45,1.32,4.84,1.98,7.25,1.54,4.77,3.27,9.47,5.36,14.03,2.12,4.54,4.46,8.97,7.12,13.22,2.69,4.23,5.64,8.29,8.83,12.16,6.46,7.69,13.87,14.6,22.03,20.53,8.13,5.98,16.94,11.03,26.1,15.38,9.16,4.35,18.72,7.88,28.45,10.85,9.75,2.93,19.69,5.24,29.73,7.04,10.04,1.8,20.18,3.04,30.36,3.87,10.18,.82,20.41,1.25,30.63,.93Z"/><path class="bi" d="M150.07,456s2.19,.4,6.31,1.16c4.12,.74,10.15,1.82,17.84,3.19,3.84,.68,8.1,1.43,12.73,2.24,4.64,.79,9.65,1.65,15,2.57,10.72,1.81,22.82,3.76,36.02,5.9,13.21,2.11,27.53,4.27,42.68,6.51,7.59,1.05,15.37,2.2,23.34,3.26,7.98,.99,16.11,2.15,24.4,3.15,4.15,.49,8.33,.98,12.54,1.47,4.21,.49,8.45,1.02,12.73,1.42,4.27,.43,8.57,.86,12.89,1.29,2.16,.22,4.33,.44,6.5,.66,2.17,.18,4.35,.36,6.53,.53,4.36,.36,8.75,.71,13.14,1.07l3.3,.27,3.31,.18c2.21,.12,4.41,.24,6.62,.36,4.42,.22,8.85,.54,13.28,.67,4.43,.09,8.87,.17,13.31,.26,2.2,.02,4.47,.15,6.62,.1l6.68-.1c4.45-.08,8.91-.11,13.34-.23,4.42-.19,8.83-.39,13.22-.58,2.2-.1,4.39-.19,6.58-.29,2.19-.14,4.38-.28,6.57-.42,8.74-.59,17.42-1.09,25.98-1.84,4.28-.34,8.54-.69,12.76-1.03,4.22-.4,8.41-.79,12.57-1.19,4.16-.4,8.28-.8,12.36-1.19,4.08-.43,8.12-.86,12.12-1.28,4-.42,7.95-.84,11.86-1.26,3.9-.45,7.76-.89,11.57-1.33,7.61-.84,15.01-1.78,22.16-2.65,7.16-.84,14.07-1.73,20.7-2.59,6.64-.83,12.98-1.7,19.03-2.5,6.05-.78,11.78-1.55,17.16-2.29,10.77-1.46,20.15-2.81,27.87-3.94,15.44-2.28,24.27-3.58,24.27-3.58,0,0-2.19,.43-6.29,1.22-4.11,.77-10.13,1.96-17.82,3.31-7.69,1.37-17.02,3.02-27.75,4.82-5.36,.92-11.07,1.87-17.09,2.84-6.02,.99-12.36,1.97-18.98,2.96-6.62,1.01-13.51,2.06-20.66,3.06-7.14,1.03-14.53,2.06-22.14,3.04-3.8,.5-7.66,1.01-11.56,1.52-3.91,.48-7.86,.96-11.86,1.45-4,.48-8.04,.96-12.13,1.45-4.09,.43-8.22,.87-12.38,1.31-4.16,.43-8.36,.87-12.59,1.31-4.24,.38-8.5,.77-12.79,1.16-4.29,.37-8.61,.83-12.96,1.11-4.35,.3-8.72,.6-13.11,.91-2.2,.15-4.39,.29-6.6,.44-2.21,.1-4.43,.21-6.64,.31-4.44,.21-8.89,.42-13.34,.63-4.45,.14-8.89,.18-13.35,.28l-6.68,.12-.84,.02h-.88l-1.68-.03-3.36-.07c-4.48-.1-8.96-.21-13.44-.31-4.47-.15-8.92-.49-13.38-.72-2.22-.13-4.45-.26-6.67-.39l-3.33-.19-3.31-.28c-4.42-.38-8.82-.75-13.2-1.12-17.54-1.53-34.72-3.67-51.32-5.82-8.3-1.1-16.45-2.29-24.42-3.44-7.97-1.19-15.75-2.46-23.33-3.64-7.57-1.22-14.93-2.48-22.04-3.69-7.11-1.22-13.97-2.5-20.56-3.68-13.17-2.39-25.22-4.74-35.88-6.9-5.33-1.08-10.31-2.1-14.93-3.04-4.61-.96-8.84-1.85-12.66-2.64-7.64-1.59-13.62-2.97-17.7-3.88-4.08-.93-6.25-1.42-6.25-1.42Z"/><path class="bm" d="M699.96,369.28s-1.65-.79-4.65-1.69c-1.5-.44-3.34-.9-5.47-1.25-2.13-.33-4.54-.56-7.14-.44-2.6,.13-5.39,.52-8.15,1.49-2.75,.98-5.54,2.33-8.05,4.31-2.51,1.96-4.86,4.33-6.9,7.04l-.76,1.02-.19,.26s-.09,.13-.07,.08l-.09,.14-.37,.56c-.47,.74-1.04,1.51-1.43,2.23-.88,1.43-1.72,2.95-2.47,4.51-1.49,3.12-2.57,6.41-3.24,9.72-.68,3.31-.9,6.66-.62,9.88,.24,3.21,.89,6.3,1.88,9.11,1.01,2.8,2.28,5.34,3.75,7.52,1.46,2.17,3.03,4.03,4.6,5.48,1.57,1.46,3.09,2.59,4.42,3.4,1.34,.79,2.45,1.34,3.23,1.65l1.21,.48s-.44-.1-1.27-.28c-.83-.21-2.03-.56-3.51-1.2-1.46-.67-3.2-1.6-4.99-2.96-1.79-1.36-3.7-3.1-5.43-5.3-1.73-2.19-3.37-4.79-4.65-7.76-1.25-2.97-2.19-6.29-2.62-9.81-.43-3.52-.32-7.22,.29-10.89,.61-3.67,1.81-7.29,3.38-10.71,.79-1.7,1.67-3.36,2.67-5,.49-.85,1-1.51,1.5-2.28l.38-.55,.09-.14,.14-.18,.21-.28,.85-1.11c2.28-2.92,4.89-5.57,7.84-7.61,2.92-2.07,6.13-3.56,9.3-4.38,3.17-.85,6.28-1.1,9.09-.93,2.81,.15,5.34,.64,7.49,1.29,2.16,.63,3.97,1.37,5.42,2.06,1.45,.68,2.53,1.33,3.25,1.78,.72,.45,1.09,.73,1.09,.73Z"/><path class="al" d="M627.34,415.78s-.62,1.74-2.13,4.59c-.77,1.41-1.72,3.14-2.97,5.01-1.21,1.9-2.72,3.96-4.47,6.14-1.79,2.14-3.77,4.44-6.12,6.62-2.3,2.25-4.92,4.42-7.75,6.51-.73,.5-1.46,1-2.2,1.5l-1.12,.75-.07,.05-.04,.02c.07-.04-.2,.13,.14-.09l-.13,.1s-.06,.04-.05,.04c.05-.03,.09-.06,.13-.09,.08-.06,.16-.18,.2-.22,.15-.2,.24-.46,.24-.68,0-.43-.14-.76-.57-1.02-.22-.13-.49-.19-.7-.17-.04,0-.09,0-.13,.01h0l.08-.02,.32-.09c.86-.23,1.73-.45,2.6-.68,3.47-.92,7.08-1.77,10.68-2.55,3.62-.74,7.3-1.37,10.95-1.78,3.66-.39,7.28-.56,10.76-.56,3.48,.01,6.83,.2,9.98,.44,3.16,.21,6.12,.56,8.85,.87,2.73,.32,5.23,.66,7.43,1,2.21,.31,4.13,.63,5.71,.9,3.16,.53,4.96,.89,4.96,.89,0,0-1.84,.07-5.04,.1-1.6,0-3.55,.04-5.78,.02-2.23-.01-4.74,0-7.47-.04-2.73,0-5.68,0-8.8,0-3.12,0-6.39,.12-9.75,.26-3.36,.18-6.8,.5-10.28,.94-3.47,.51-7,1.12-10.52,1.86-3.54,.74-7.04,1.55-10.54,2.36-.87,.2-1.75,.41-2.61,.61l-.33,.07-.24,.05c-.15,.03-.31,.05-.46,.07-.65,.05-1.37-.09-1.98-.43-1.2-.71-1.84-1.9-1.82-3.22,.02-.66,.24-1.36,.65-1.91,.09-.14,.27-.33,.41-.47,.08-.08,.16-.15,.24-.22l.08-.06,.13-.09,.31-.2,1.08-.66c.72-.44,1.44-.87,2.15-1.3,2.76-1.85,5.42-3.67,7.78-5.64,2.39-1.93,4.52-3.91,6.48-5.76,1.89-1.92,3.63-3.69,5.06-5.36,1.45-1.66,2.67-3.15,3.66-4.4,.96-1.27,1.73-2.26,2.21-2.97,.49-.71,.75-1.08,.75-1.08Z"/><path class="ar" d="M833.63,148.45s.31,.28,.9,.8c.58,.53,1.46,1.28,2.53,2.28,2.16,1.98,5.22,4.84,8.8,8.35,1.8,1.75,3.74,3.65,5.76,5.7,2.02,2.04,4.17,4.18,6.33,6.46,2.16,2.28,4.42,4.58,6.64,7.08l.42,.47,.21,.24,.24,.3,.24,.3,.12,.15,.06,.08,.03,.04s.15,.24,.09,.15c.1,.19,.19,.33,.31,.57l.35,.78,.24,.67c.17,.44,.28,.87,.42,1.3,.5,1.72,.82,3.45,1.06,5.19,.41,3.49,.39,7.03-.15,10.46l-.2,1.28-.28,1.27c-.17,.84-.44,1.66-.69,2.48-.23,.82-.58,1.6-.88,2.39l-.19,.47-.2,.56-.4,1.11c-.17,.4-.16,.66-.24,.97l-.19,.91-.04,.98-.04,.49,.05,.49c.03,.33,.05,.65,.08,.97,.07,.33,.14,.65,.21,.97,.1,.65,.38,1.3,.56,1.93,.46,1.29,1.01,2.55,1.51,3.82,.51,1.26,.97,2.52,1.39,3.74,.82,2.45,1.25,4.8,1.47,6.87,.1,1.04,.12,2.01,.15,2.91,.01,.9-.07,1.72-.1,2.46-.02,.37-.04,.72-.06,1.05-.05,.33-.09,.63-.13,.92-.09,.57-.16,1.05-.22,1.44-.12,.78-.19,1.19-.19,1.19,0,0-.01-.42-.04-1.21,0-.39-.02-.87-.04-1.44,0-.57-.04-1.21-.13-1.94-.08-.72-.12-1.52-.26-2.38-.18-.85-.28-1.78-.51-2.75-.47-1.94-1.13-4.07-2.11-6.3-.98-2.24-2.32-4.52-3.54-7.28-1.2-2.73-2.09-6.34-.96-9.92l.35-1.13,.18-.57,.22-.65c.23-.71,.52-1.41,.68-2.15,.19-.73,.4-1.47,.52-2.23l.23-1.13,.16-1.15c.44-3.07,.41-6.27,0-9.41-.19-1.57-.47-3.13-.87-4.62-.11-.36-.2-.74-.33-1.08l-.18-.5c-.05-.12-.1-.24-.14-.36-.05-.13-.18-.35-.27-.52-.07-.11,.07,.11,.05,.08l-.02-.02-.04-.04-.07-.09-.15-.18-.14-.18-.2-.23-.39-.46c-2.15-2.46-4.27-4.89-6.32-7.24-2.08-2.33-4.04-4.64-5.92-6.81-1.89-2.16-3.63-4.24-5.25-6.16-3.24-3.83-5.88-7.08-7.71-9.37-.92-1.14-1.62-2.06-2.11-2.67-.48-.62-.74-.95-.74-.95Z"/><path class="bf" d="M656.94,87.78s.27,.29,.77,.83c.49,.55,1.24,1.34,2.12,2.4,.89,1.06,1.95,2.36,3.09,3.92,1.13,1.57,2.4,3.35,3.53,5.52,.58,1.07,1.08,2.33,1.53,3.48,.48,1.15,.94,2.36,1.48,3.57,1.06,2.43,2.28,4.93,3.68,7.41,1.4,2.47,3.08,4.87,5,7,.98,1.03,2.01,2.02,3.16,2.78,.28,.19,.58,.41,.85,.57l1.02,.59c.68,.39,1.3,.7,1.96,1.05,2.66,1.36,5.45,2.45,8.28,3.12,2.83,.63,5.68,.97,8.44,.81,2.75-.15,5.41-.67,7.83-1.5,1.3-.4,2.47-.89,3.77-1.22,1.28-.37,2.5-.64,3.68-.89,2.36-.49,4.55-.7,6.49-.82,1.94-.12,3.63-.09,5.01-.02,2.77,.14,4.32,.48,4.32,.48,0,0-1.58,.01-4.3,.31-2.71,.3-6.56,.93-10.97,2.27-2.22,.68-4.42,1.6-6.95,2.67-2.59,1.11-5.52,1.95-8.63,2.23-3.1,.29-6.37,.15-9.56-.56-3.19-.7-6.3-1.87-9.24-3.32-.72-.39-1.5-.8-2.16-1.2l-1.01-.6c-.4-.24-.73-.5-1.09-.75-1.44-.99-2.65-2.19-3.77-3.41-2.2-2.48-3.82-5.23-5.23-7.92-1.41-2.69-2.46-5.41-3.36-8-.46-1.29-.87-2.56-1.23-3.8-.36-1.26-.65-2.32-1.08-3.37-.85-2.1-1.84-4-2.74-5.67-.92-1.66-1.74-3.11-2.45-4.28-.71-1.18-1.27-2.1-1.65-2.73-.39-.63-.6-.96-.6-.96Z"/><path class="bj" d="M580.96,7.12c2.54,.67,5.05,1.44,7.55,2.24l3.74,1.23,3.71,1.31c2.47,.87,4.92,1.81,7.36,2.76,1.22,.48,2.45,.94,3.65,1.46l3.63,1.52,3.61,1.57c1.2,.53,2.38,1.1,3.57,1.66,1.19,.57,2.38,1.11,3.56,1.71,1.18,.59,2.36,1.16,3.53,1.78l3.47,1.92c1.16,.63,2.29,1.36,3.43,2.03,1.16,.64,2.24,1.49,3.35,2.25,.28,.2,.55,.38,.83,.59l.8,.67,1.6,1.34,.36,.3,.12,.44,.5,1.8c.15,.6,.28,1.2,.41,1.8,.23,1.2,.44,2.4,.61,3.6,.17,1.2,.32,2.4,.44,3.59,.11,1.2,.2,2.39,.29,3.59,.18,2.38,.26,4.76,.41,7.13,.07,1.18,.13,2.37,.25,3.54,.08,.58,.11,1.18,.21,1.76,.07,.59,.22,1.16,.36,1.74-.27-.53-.54-1.08-.73-1.65-.23-.56-.38-1.14-.56-1.72-.31-1.16-.61-2.33-.86-3.5-.49-2.34-.94-4.69-1.36-7.02-.22-1.16-.44-2.33-.68-3.48-.23-1.16-.45-2.31-.72-3.44-.25-1.14-.55-2.26-.86-3.37l-.49-1.65-.54-1.61,.48,.74-1.46-1.1-.73-.55c-.25-.18-.53-.34-.79-.51-1.08-.66-2.1-1.37-3.23-1.99-1.12-.63-2.2-1.3-3.34-1.9l-3.41-1.81c-1.16-.57-2.31-1.18-3.46-1.77-1.14-.61-2.32-1.16-3.48-1.74l-7-3.43-7.04-3.38-3.52-1.7c-1.18-.55-2.35-1.14-3.52-1.71-2.35-1.13-4.7-2.29-7.04-3.46-1.18-.57-2.34-1.18-3.51-1.76-1.17-.59-2.33-1.2-3.5-1.81Z"/><path class="au" d="M437.96,474.96s10.01,.21,25.11,.1c3.77-.02,7.86-.07,12.18-.13,4.32-.05,8.88-.17,13.6-.26,4.71-.14,9.59-.29,14.54-.44,4.95-.19,9.98-.35,15.01-.61,5.03-.23,10.06-.47,15-.78,2.47-.14,4.93-.28,7.35-.43,2.42-.17,4.82-.33,7.17-.5,2.35-.16,4.67-.32,6.94-.48,2.26-.19,4.48-.37,6.63-.55,4.31-.36,8.39-.68,12.15-1.07,3.76-.37,7.21-.7,10.26-1,3.05-.35,5.71-.65,7.9-.9,4.38-.5,6.88-.79,6.88-.79,0,0-2.49,.4-6.84,1.09-2.18,.35-4.82,.76-7.86,1.25-3.04,.43-6.47,.92-10.22,1.45-3.74,.56-7.81,1.05-12.11,1.6-2.15,.27-4.36,.55-6.62,.84-2.26,.26-4.57,.52-6.92,.78-2.35,.27-4.74,.54-7.16,.81-2.42,.25-4.87,.49-7.34,.75-4.94,.52-9.96,.98-14.99,1.43-5.02,.48-10.06,.86-15.01,1.26-4.96,.37-9.83,.73-14.55,1.07-4.72,.3-9.29,.62-13.62,.86-4.33,.25-8.43,.48-12.21,.66-15.12,.77-25.26,1-25.26,1l-.02-7Z"/><path class="bk" d="M474.96,47.12s-.15,.33-.42,.95c-.28,.62-.68,1.53-1.3,2.65-.63,1.1-1.42,2.45-2.6,3.82-1.17,1.36-2.69,2.75-4.58,3.93-1.87,1.22-4.12,2.15-6.54,2.9-2.42,.78-5.06,1.23-7.79,1.6-.68,.06-1.37,.13-2.07,.2-.67,.08-1.48,.11-1.93,.22-.55,.13-1.08,.38-1.52,.73-.22,.18-.43,.37-.61,.59l-.64,.82c-.48,.59-.98,1.16-1.53,1.69-.55,.53-1.2,1.03-1.76,1.44-.56,.41-.88,.74-1.2,1.28l-.11,.2-.16,.28s-.16,.24-.27,.36c-.11,.13-.22,.21-.33,.31-.47,.36-1.06,.55-1.65,.54-.58-.02-1.17-.23-1.62-.62-.22-.19-.42-.42-.56-.67l-.27-.49c-.27-.45-.64-.82-1.21-1.21-.58-.4-1.24-.89-1.79-1.42-.56-.53-1.06-1.1-1.54-1.67l-.66-.84c-.16-.2-.37-.4-.6-.57-.44-.35-.97-.6-1.52-.73-.5-.12-1.27-.15-1.94-.22-.69-.07-1.37-.13-2.04-.19-2.75-.37-5.39-.82-7.81-1.6-2.42-.75-4.67-1.68-6.54-2.9-1.89-1.18-3.42-2.57-4.58-3.93-1.18-1.36-1.97-2.71-2.6-3.82-.62-1.12-1.01-2.03-1.3-2.65l-.42-.95s.18,.31,.52,.9c.34,.59,.85,1.44,1.53,2.5,.71,1.04,1.58,2.3,2.82,3.51,1.23,1.22,2.77,2.42,4.62,3.45,1.84,1.05,4.02,1.81,6.37,2.45,2.35,.66,4.92,.97,7.54,1.28,.68,.05,1.36,.1,2.05,.14,.7,.07,1.33,.04,2.2,.21,.81,.17,1.59,.52,2.27,1.03,.34,.26,.65,.54,.94,.89l.66,.83c.44,.52,.89,1.02,1.37,1.47,.49,.45,1,.82,1.6,1.24,.62,.41,1.35,1.05,1.81,1.85l.26,.46c.03,.07,.08,.11,.13,.16,.09,.09,.23,.13,.37,.14,.14,0,.27-.04,.38-.11l.06-.06s0,.04,.06-.07l.11-.19,.15-.27c.4-.72,1.12-1.43,1.74-1.85,.6-.43,1.11-.81,1.59-1.27,.48-.46,.93-.96,1.36-1.47l.68-.86c.28-.33,.58-.62,.92-.87,.68-.51,1.46-.85,2.27-1.03,.92-.17,1.5-.14,2.2-.21,.68-.05,1.35-.09,2.02-.14,2.65-.31,5.22-.62,7.57-1.28,2.34-.64,4.53-1.4,6.37-2.45,1.84-1.03,3.39-2.23,4.62-3.45,1.24-1.22,2.11-2.48,2.82-3.51,.68-1.06,1.2-1.91,1.53-2.5,.34-.59,.52-.9,.52-.9Z"/><path class="aj" d="M662.3,141.78c.2,.84,.38,1.7,.53,2.55,.16,.86,.27,1.72,.39,2.58,.23,1.73,.38,3.46,.48,5.2,.06,.87,.1,1.74,.1,2.61,0,.87,.05,1.75,.03,2.62-.01,.87-.01,1.75-.04,2.62l-.15,2.62c-.04,.87-.14,1.74-.21,2.61-.08,.87-.14,1.75-.28,2.61l-.36,2.6c-.13,.87-.3,1.73-.45,2.59-.16,.86-.29,1.73-.49,2.58l-.6,2.56c-.18,.86-.44,1.7-.67,2.54l-.7,2.53-2.68-1.23,1.58-2.45,1.69-2.37,1.76-2.31,1.84-2.25c1.26-1.47,2.57-2.9,3.93-4.28,.67-.7,1.38-1.36,2.07-2.04,.68-.69,1.44-1.3,2.15-1.95,.71-.65,1.49-1.24,2.23-1.86,.74-.62,1.53-1.19,2.3-1.77,.77-.59,1.59-1.11,2.39-1.65,.79-.55,1.64-1.03,2.47-1.53,.82-.51,1.7-.93,2.56-1.38,.85-.46,1.75-.82,2.63-1.21,.88-.4,1.81-.67,2.71-1,.92-.29,1.86-.5,2.78-.75-.87,.4-1.76,.75-2.6,1.19-.84,.45-1.7,.84-2.51,1.34-.8,.5-1.64,.93-2.41,1.48-.78,.53-1.58,1.03-2.33,1.61-.76,.56-1.53,1.09-2.25,1.7-.73,.59-1.48,1.16-2.17,1.8-.71,.62-1.44,1.21-2.12,1.86-.68,.65-1.39,1.26-2.04,1.94-.66,.67-1.34,1.32-1.98,2-.64,.69-1.31,1.35-1.93,2.05-.62,.71-1.26,1.4-1.86,2.12l-1.8,2.17-1.75,2.21-1.68,2.26-1.6,2.31-1.54,2.35-5.44,8.27,2.77-9.5,.71-2.45c.23-.82,.49-1.63,.68-2.46l.61-2.48c.23-.82,.39-1.66,.58-2.49,.18-.83,.38-1.66,.53-2.5l.45-2.52c.16-.84,.28-1.69,.41-2.53,.12-.85,.28-1.69,.37-2.54l.31-2.55,.25-2.56c.1-.85,.13-1.71,.2-2.56,.07-.86,.09-1.71,.15-2.57,.06-.86,.08-1.72,.1-2.58,.03-.86,.02-1.72,.04-2.58,0-1.72-.02-3.45-.14-5.18Z"/><path class="be" d="M604.66,242.12c1.01-.36,2.06-.62,3.03-1.05,.98-.43,1.96-.78,2.9-1.3,.95-.47,1.9-.95,2.81-1.49,.92-.52,1.84-1.04,2.73-1.63,.9-.57,1.79-1.14,2.65-1.75,.87-.6,1.75-1.19,2.59-1.83,.84-.64,1.71-1.24,2.53-1.92,.82-.67,1.67-1.3,2.48-1.98l2.43-2.04,2.37-2.11,2.32-2.16c.77-.72,1.51-1.47,2.27-2.21,.76-.74,1.47-1.51,2.21-2.27,.74-.75,1.42-1.56,2.13-2.33,.72-.77,1.38-1.59,2.07-2.38,.68-.8,1.31-1.63,1.96-2.45l4.81-5.98-2.25,7.32c-.38,1.25-.74,2.52-1.04,3.81-.31,1.29-.57,2.59-.83,3.9-.51,2.62-.92,5.27-1.26,7.93-.33,2.66-.62,5.34-.86,8.01-.24,2.68-.4,5.36-.53,8.05-.14,2.69-.21,5.38-.22,8.07,0,2.69,.02,5.38,.18,8.07,.15,2.68,.37,5.37,.82,8.02,.2,1.33,.48,2.64,.84,3.94,.38,1.29,.81,2.57,1.5,3.74-.83-1.08-1.44-2.32-1.97-3.58-.5-1.27-.92-2.58-1.27-3.91-.68-2.65-1.17-5.35-1.51-8.06-.17-1.36-.31-2.72-.43-4.08-.12-1.36-.23-2.72-.28-4.09-.13-2.73-.19-5.46-.18-8.19,.03-2.73,.13-5.46,.29-8.18,.15-2.73,.39-5.45,.71-8.17,.32-2.72,.71-5.43,1.21-8.14,.24-1.35,.55-2.7,.88-4.04,.32-1.34,.72-2.68,1.14-4.02l2.56,1.35c-.69,.84-1.36,1.71-2.07,2.54-.72,.81-1.42,1.65-2.17,2.44-.76,.78-1.49,1.58-2.26,2.33-.78,.75-1.53,1.53-2.33,2.26-1.58,1.48-3.19,2.92-4.84,4.31l-2.52,2.03-2.58,1.96c-.86,.65-1.75,1.26-2.63,1.88-.87,.63-1.8,1.19-2.7,1.78-.9,.6-1.84,1.14-2.76,1.69-.92,.57-1.88,1.06-2.84,1.56-.95,.52-1.93,.97-2.91,1.42-.97,.48-1.98,.85-2.99,1.24-.99,.41-2.05,.69-3.08,1-1.03,.31-2.1,.44-3.14,.67Z"/><path class="ai" d="M770.96,364.65l1.46-.44c.96-.28,2.36-.69,4.14-1.21,3.56-1.07,8.61-2.67,14.47-5.07,2.93-1.2,6.06-2.6,9.29-4.22,3.24-1.6,6.56-3.48,9.91-5.54,3.38-2.02,6.65-4.44,9.95-6.91,1.59-1.31,3.26-2.55,4.8-3.97,.78-.69,1.57-1.37,2.34-2.08l2.25-2.18,1.13-1.09,1.08-1.14,2.16-2.27c1.37-1.57,2.75-3.13,4.04-4.73,2.54-3.24,4.99-6.49,7.06-9.83,1.05-1.66,2.09-3.29,2.99-4.96,.92-1.66,1.89-3.24,2.65-4.88,.78-1.63,1.62-3.18,2.3-4.74,.69-1.56,1.35-3.07,1.98-4.52,.61-1.46,1.1-2.9,1.63-4.24,.52-1.35,1.03-2.62,1.4-3.86,.4-1.23,.78-2.37,1.13-3.43,.18-.53,.35-1.04,.51-1.53,.14-.49,.27-.96,.4-1.41,1.02-3.58,1.6-5.62,1.6-5.62,0,0-.37,2.1-1.02,5.76-.09,.46-.18,.94-.27,1.45-.12,.5-.24,1.02-.37,1.57-.27,1.09-.56,2.27-.87,3.54-.28,1.27-.69,2.59-1.12,3.99-.44,1.39-.87,2.87-1.39,4.39-.56,1.5-1.14,3.07-1.75,4.69-.6,1.63-1.4,3.23-2.13,4.93-.71,1.7-1.62,3.36-2.5,5.1-.84,1.75-1.89,3.43-2.91,5.17-2.06,3.46-4.43,6.91-7.04,10.24-1.31,1.66-2.72,3.27-4.11,4.9l-2.2,2.35-1.1,1.18-1.16,1.12-2.34,2.23c-.8,.72-1.62,1.41-2.43,2.12-1.59,1.44-3.31,2.71-4.96,4.04-3.4,2.53-6.86,4.87-10.35,6.87-.86,.53-1.73,1.01-2.6,1.48-.87,.47-1.73,.95-2.59,1.38-1.74,.85-3.43,1.71-5.12,2.44-3.35,1.54-6.61,2.77-9.64,3.81-3.02,1.07-5.86,1.85-8.37,2.53-2.51,.67-4.73,1.14-6.55,1.52-1.82,.37-3.27,.61-4.25,.79-.98,.19-1.5,.29-1.5,.29Z"/><path class="an" d="M417.86,76.78c.6,.81,1.27,1.57,1.9,2.36,.63,.79,1.24,1.6,1.84,2.41,1.21,1.63,2.34,3.31,3.46,5,1.1,1.71,2.14,3.45,3.16,5.21,1.01,1.76,1.94,3.57,2.86,5.39,1.84,3.63,3.39,7.4,4.83,11.22,1.38,3.84,2.55,7.75,3.52,11.72l-2.93,.03c.48-1.99,.89-4,1.43-5.98,.26-.99,.5-1.99,.79-2.97l.87-2.95c.3-.98,.64-1.95,.96-2.93,.31-.98,.67-1.94,1.03-2.9,.35-.97,.7-1.93,1.11-2.88,.4-.95,.77-1.9,1.21-2.84,.44-.93,.83-1.88,1.3-2.8,.47-.92,.89-1.85,1.41-2.74,.51-.89,.98-1.81,1.54-2.68,.54-.88,1.06-1.76,1.66-2.6l.88-1.27,.93-1.23c.6-.83,1.29-1.6,1.96-2.38,.71-.74,1.38-1.52,2.15-2.2,.74-.71,1.55-1.34,2.34-1.98-.69,.75-1.39,1.48-2.01,2.29-.66,.76-1.23,1.6-1.83,2.41-.54,.85-1.15,1.65-1.65,2.53l-.78,1.29-.73,1.32c-.5,.87-.95,1.77-1.4,2.66-.47,.88-.86,1.82-1.29,2.72-.43,.91-.79,1.85-1.2,2.76-.41,.92-.74,1.87-1.11,2.8-.38,.93-.69,1.89-1.03,2.83-.35,.94-.67,1.89-.97,2.85-.31,.95-.63,1.91-.91,2.88-.28,.97-.58,1.92-.84,2.9l-.79,2.91c-.27,.97-.49,1.95-.74,2.93-.51,1.95-.89,3.93-1.34,5.89l-1.42,6.27-1.5-6.24c-.47-1.93-.94-3.86-1.5-5.77-.53-1.92-1.17-3.81-1.78-5.7-1.25-3.78-2.71-7.49-4.27-11.17-.78-1.84-1.62-3.65-2.48-5.46-.85-1.81-1.75-3.6-2.69-5.37-.92-1.78-1.89-3.54-2.88-5.29l-1.52-2.61c-.5-.88-1.05-1.72-1.53-2.62Z"/><path class="ap" d="M175.96,369.28s.36-.27,1.09-.73c.72-.45,1.8-1.1,3.25-1.78,1.44-.69,3.25-1.44,5.42-2.06,2.16-.65,4.68-1.14,7.49-1.29,2.81-.18,5.92,.07,9.09,.93,3.17,.83,6.38,2.31,9.3,4.38,2.95,2.04,5.56,4.7,7.84,7.61l.85,1.11,.21,.28,.14,.18,.09,.14,.38,.55c.5,.76,1.01,1.43,1.5,2.28,.99,1.64,1.88,3.29,2.67,5,1.57,3.42,2.76,7.03,3.38,10.71,.61,3.67,.72,7.37,.29,10.89-.44,3.52-1.37,6.83-2.62,9.81-1.27,2.97-2.91,5.56-4.65,7.76-1.73,2.2-3.64,3.94-5.43,5.3-1.8,1.37-3.54,2.29-4.99,2.96-1.48,.63-2.68,.99-3.51,1.2-.83,.18-1.27,.28-1.27,.28l1.21-.48c.78-.32,1.89-.86,3.23-1.65,1.33-.81,2.85-1.94,4.42-3.4,1.58-1.46,3.14-3.31,4.6-5.48,1.46-2.17,2.73-4.72,3.75-7.52,1-2.8,1.65-5.89,1.88-9.11,.28-3.21,.06-6.57-.62-9.88-.67-3.31-1.74-6.6-3.24-9.72-.74-1.56-1.59-3.08-2.47-4.51-.39-.72-.96-1.49-1.43-2.23l-.37-.56-.09-.14s-.05-.06-.07-.08l-.19-.26-.76-1.02c-2.04-2.71-4.39-5.08-6.9-7.04-2.51-1.98-5.3-3.33-8.05-4.31-2.76-.98-5.56-1.36-8.15-1.49-2.6-.12-5.02,.11-7.14,.44-2.13,.35-3.97,.81-5.47,1.25-3,.9-4.65,1.69-4.65,1.69Z"/><path class="bh" d="M248.58,415.78s.26,.38,.75,1.08c.48,.71,1.25,1.7,2.21,2.97,.99,1.25,2.21,2.75,3.66,4.4,1.44,1.67,3.18,3.44,5.06,5.36,1.96,1.86,4.09,3.84,6.48,5.76,2.35,1.97,5.02,3.79,7.78,5.64,.71,.43,1.43,.86,2.15,1.3l1.08,.66,.31,.2,.13,.09,.08,.06c.08,.07,.16,.14,.24,.22,.15,.14,.32,.33,.41,.47,.41,.55,.63,1.26,.65,1.91,.03,1.32-.61,2.51-1.82,3.22-.61,.34-1.33,.48-1.98,.43-.15-.02-.31-.04-.46-.07l-.24-.05-.33-.07c-.87-.2-1.74-.41-2.61-.61-3.5-.81-7.01-1.62-10.54-2.36-3.52-.75-7.05-1.36-10.52-1.86-3.48-.44-6.92-.76-10.28-.94-3.36-.14-6.63-.25-9.75-.26-3.12,0-6.08,0-8.8,0-2.73,.05-5.24,.03-7.47,.04-2.23,.02-4.17-.01-5.78-.02-3.2-.02-5.04-.1-5.04-.1,0,0,1.8-.36,4.96-.89,1.58-.27,3.5-.59,5.71-.9,2.21-.34,4.7-.67,7.43-1,2.73-.32,5.7-.66,8.85-.87,3.15-.25,6.5-.43,9.98-.44,3.48,0,7.1,.17,10.76,.56,3.65,.41,7.33,1.04,10.95,1.78,3.6,.78,7.21,1.63,10.68,2.55,.87,.23,1.73,.45,2.6,.68l.32,.09,.08,.02h0s-.09-.02-.13-.01c-.2-.02-.48,.04-.7,.17-.44,.27-.57,.59-.57,1.02,0,.22,.1,.48,.25,.68,.04,.04,.12,.16,.2,.22,.04,.04,.09,.07,.13,.09,.01,0-.03-.03-.05-.04l-.13-.1c.34,.23,.07,.05,.14,.09l-.04-.02-.07-.05-1.12-.75c-.74-.5-1.47-1-2.2-1.5-2.83-2.09-5.46-4.26-7.75-6.51-2.36-2.18-4.34-4.49-6.12-6.62-1.75-2.17-3.25-4.23-4.47-6.14-1.26-1.87-2.2-3.6-2.97-5.01-1.51-2.86-2.13-4.59-2.13-4.59Z"/><path class="bc" d="M42.3,148.45s-.26,.33-.74,.95c-.49,.62-1.18,1.54-2.11,2.67-1.83,2.29-4.47,5.54-7.71,9.37-1.61,1.92-3.36,4-5.25,6.16-1.88,2.17-3.84,4.48-5.92,6.81-2.05,2.35-4.16,4.77-6.32,7.24l-.39,.46-.2,.23-.14,.18-.15,.18-.07,.09-.04,.04-.02,.02s.12-.2,.05-.08c-.09,.17-.22,.39-.27,.52-.04,.12-.09,.24-.14,.36l-.18,.5c-.13,.34-.22,.72-.33,1.08-.41,1.48-.68,3.05-.87,4.62-.41,3.14-.43,6.34,0,9.41l.16,1.15,.23,1.13c.12,.76,.33,1.49,.52,2.23,.17,.74,.46,1.44,.68,2.15l.22,.65,.18,.57,.35,1.13c1.12,3.58,.24,7.19-.96,9.92-1.21,2.76-2.56,5.04-3.54,7.28-.97,2.23-1.64,4.36-2.11,6.3-.23,.97-.33,1.9-.51,2.75-.14,.86-.18,1.66-.26,2.38-.08,.72-.13,1.37-.13,1.94-.01,.57-.03,1.05-.04,1.44-.03,.79-.04,1.21-.04,1.21,0,0-.07-.41-.19-1.19-.06-.39-.13-.87-.22-1.44-.04-.28-.08-.59-.13-.92-.02-.33-.04-.68-.06-1.05-.03-.74-.11-1.56-.1-2.46,.04-.89,.05-1.87,.15-2.91,.23-2.07,.65-4.42,1.47-6.87,.42-1.22,.88-2.47,1.39-3.74,.51-1.26,1.05-2.53,1.51-3.82,.18-.64,.46-1.29,.56-1.93,.07-.32,.14-.65,.21-.97l.08-.97,.05-.49-.04-.49-.04-.98-.19-.91c-.07-.31-.07-.58-.24-.97l-.4-1.11-.2-.56-.19-.47c-.3-.79-.65-1.57-.88-2.39-.25-.82-.52-1.63-.69-2.48l-.28-1.27-.2-1.28c-.53-3.43-.56-6.97-.15-10.46,.24-1.74,.57-3.47,1.06-5.19,.13-.43,.25-.86,.42-1.3l.25-.67,.35-.78c.12-.25,.21-.38,.31-.57-.06,.09,.1-.16,.09-.15l.03-.04,.06-.08,.12-.15,.24-.3,.24-.3,.21-.24,.42-.47c2.22-2.51,4.48-4.8,6.64-7.08,2.16-2.28,4.3-4.42,6.33-6.46,2.01-2.05,3.96-3.95,5.76-5.7,3.58-3.51,6.65-6.36,8.8-8.35,1.07-1,1.94-1.75,2.53-2.28,.59-.52,.9-.8,.9-.8Z"/><path class="ak" d="M218.98,87.78s-.21,.33-.6,.96c-.38,.63-.94,1.56-1.65,2.73-.71,1.18-1.53,2.62-2.45,4.28-.9,1.67-1.89,3.57-2.74,5.67-.43,1.05-.73,2.11-1.08,3.37-.37,1.24-.77,2.5-1.23,3.8-.91,2.59-1.96,5.3-3.36,8-1.4,2.69-3.02,5.44-5.23,7.92-1.12,1.22-2.33,2.42-3.77,3.41-.37,.25-.69,.5-1.09,.75l-1.01,.6c-.67,.4-1.44,.81-2.16,1.2-2.94,1.46-6.05,2.62-9.24,3.32-3.19,.71-6.46,.85-9.56,.56-3.11-.28-6.04-1.12-8.63-2.23-2.53-1.07-4.73-1.99-6.95-2.67-4.4-1.34-8.26-1.97-10.97-2.27-2.72-.3-4.3-.31-4.3-.31,0,0,1.55-.34,4.32-.48,1.38-.07,3.08-.1,5.01,.02,1.94,.11,4.13,.33,6.49,.82,1.18,.25,2.4,.51,3.68,.89,1.31,.34,2.47,.82,3.77,1.22,2.43,.83,5.08,1.35,7.83,1.5,2.76,.16,5.61-.18,8.44-.81,2.83-.66,5.62-1.76,8.28-3.12,.66-.35,1.28-.65,1.96-1.05l1.02-.59c.27-.16,.56-.38,.85-.57,1.15-.76,2.18-1.75,3.16-2.78,1.91-2.13,3.59-4.53,5-7,1.4-2.48,2.63-4.98,3.68-7.41,.54-1.21,1-2.42,1.48-3.57,.45-1.14,.95-2.4,1.53-3.48,1.13-2.17,2.39-3.96,3.53-5.52,1.13-1.57,2.2-2.86,3.09-3.92,.88-1.06,1.62-1.86,2.12-2.4,.5-.54,.77-.83,.77-.83Z"/><path class="aq" d="M294.96,7.12c-1.16,.61-2.32,1.22-3.5,1.81-1.17,.59-2.33,1.2-3.51,1.76-2.34,1.17-4.68,2.32-7.04,3.46-1.17,.57-2.34,1.16-3.52,1.71l-3.52,1.7-7.04,3.38-7,3.43c-1.16,.58-2.34,1.13-3.48,1.74-1.15,.59-2.29,1.2-3.46,1.77l-3.41,1.81c-1.14,.6-2.22,1.27-3.34,1.9-1.13,.63-2.15,1.33-3.23,1.99-.26,.17-.54,.33-.79,.51l-.73,.55-1.46,1.1,.48-.74-.54,1.61-.49,1.65c-.31,1.11-.6,2.23-.86,3.37-.27,1.14-.49,2.29-.72,3.44-.24,1.15-.46,2.31-.68,3.48-.42,2.33-.87,4.68-1.36,7.02-.25,1.17-.54,2.34-.86,3.5-.18,.58-.33,1.16-.56,1.72-.19,.57-.46,1.12-.73,1.65,.14-.59,.28-1.15,.36-1.74,.11-.58,.13-1.18,.21-1.76,.11-1.18,.17-2.36,.25-3.54,.15-2.37,.22-4.75,.41-7.13,.09-1.19,.17-2.39,.29-3.59,.12-1.2,.27-2.39,.44-3.59,.16-1.2,.38-2.4,.61-3.6,.13-.6,.25-1.2,.41-1.8l.5-1.8,.12-.44,.36-.3,1.6-1.34,.8-.67c.27-.21,.55-.39,.83-.59,1.11-.76,2.19-1.6,3.35-2.25,1.14-.67,2.27-1.4,3.43-2.03l3.47-1.92c1.16-.62,2.35-1.19,3.53-1.78,1.18-.6,2.37-1.14,3.56-1.71,1.19-.56,2.37-1.13,3.57-1.66l3.61-1.57,3.63-1.52c1.2-.52,2.43-.98,3.65-1.46,2.44-.95,4.89-1.9,7.36-2.76l3.71-1.31,3.74-1.23c2.5-.8,5.01-1.56,7.55-2.24Z"/><path class="bd" d="M437.96,481.96s-10.14-.23-25.26-1c-3.78-.18-7.88-.41-12.21-.66-4.33-.24-8.9-.56-13.62-.86-4.72-.35-9.6-.71-14.55-1.07-4.95-.41-9.98-.79-15.01-1.26-5.03-.45-10.05-.91-14.99-1.43-2.47-.25-4.92-.5-7.34-.75-2.42-.27-4.81-.54-7.16-.81-2.35-.27-4.66-.53-6.92-.78-2.26-.29-4.47-.57-6.62-.84-4.3-.55-8.37-1.04-12.11-1.6-3.74-.53-7.18-1.02-10.22-1.45-3.03-.48-5.68-.9-7.86-1.25-4.35-.69-6.84-1.09-6.84-1.09,0,0,2.5,.29,6.88,.79,2.19,.25,4.85,.55,7.9,.9,3.06,.3,6.5,.63,10.26,1,3.76,.39,7.84,.71,12.15,1.07,2.16,.18,4.37,.36,6.63,.55,2.27,.16,4.58,.32,6.94,.48,2.35,.16,4.75,.33,7.17,.5,2.42,.14,4.88,.28,7.35,.43,4.95,.31,9.97,.55,15,.78,5.03,.26,10.06,.42,15.01,.61,4.95,.15,9.82,.3,14.54,.44,4.72,.09,9.27,.22,13.6,.26,4.32,.06,8.41,.12,12.18,.13,15.1,.11,25.11-.1,25.11-.1l-.02,7Z"/><path class="ax" d="M213.63,141.78c-.12,1.73-.13,3.46-.14,5.18,.02,.86,0,1.72,.04,2.58,.02,.86,.04,1.72,.1,2.58,.05,.86,.07,1.72,.15,2.57,.07,.86,.1,1.71,.2,2.56l.25,2.56,.31,2.55c.09,.85,.25,1.69,.37,2.54,.14,.84,.25,1.69,.41,2.53l.45,2.52c.15,.84,.36,1.67,.53,2.5,.19,.83,.35,1.67,.58,2.49l.61,2.48c.19,.83,.45,1.64,.68,2.46l.71,2.45,2.77,9.5-5.44-8.27-1.54-2.35-1.6-2.31-1.68-2.26-1.75-2.21-1.8-2.17c-.6-.72-1.24-1.41-1.86-2.12-.62-.71-1.29-1.37-1.93-2.05-.64-.69-1.32-1.33-1.98-2-.65-.68-1.36-1.3-2.04-1.94-.68-.65-1.41-1.25-2.12-1.86-.7-.64-1.44-1.21-2.17-1.8-.72-.61-1.49-1.14-2.25-1.7-.75-.58-1.54-1.08-2.33-1.61-.77-.55-1.61-.98-2.41-1.48-.8-.51-1.67-.89-2.51-1.34-.85-.43-1.73-.79-2.6-1.19,.92,.25,1.86,.45,2.78,.75,.9,.34,1.83,.61,2.71,1,.88,.39,1.78,.75,2.63,1.21,.86,.45,1.74,.86,2.56,1.38,.83,.5,1.67,.98,2.47,1.53,.8,.54,1.62,1.06,2.39,1.65,.77,.58,1.56,1.15,2.3,1.77,.74,.62,1.52,1.21,2.23,1.86,.72,.65,1.48,1.26,2.15,1.95,.69,.68,1.4,1.34,2.07,2.04,1.35,1.39,2.67,2.81,3.93,4.28l1.84,2.25,1.76,2.31,1.69,2.37,1.58,2.45-2.68,1.23-.7-2.53c-.23-.85-.49-1.68-.67-2.54l-.6-2.56c-.2-.85-.33-1.72-.49-2.58-.15-.86-.32-1.72-.45-2.59l-.36-2.6c-.14-.86-.2-1.74-.28-2.61-.07-.87-.18-1.74-.21-2.61l-.15-2.62c-.03-.87-.03-1.75-.04-2.62-.02-.87,.02-1.75,.03-2.62,0-.87,.05-1.74,.1-2.61,.1-1.74,.25-3.48,.48-5.2,.12-.86,.23-1.72,.39-2.58,.15-.86,.33-1.71,.53-2.55Z"/><path class="bg" d="M271.27,242.12c-1.05-.23-2.11-.36-3.14-.67-1.03-.31-2.09-.59-3.08-1-1.01-.38-2.03-.76-2.99-1.24-.98-.45-1.96-.9-2.91-1.42-.96-.5-1.92-.99-2.84-1.56-.93-.55-1.87-1.09-2.76-1.69-.9-.59-1.83-1.15-2.7-1.78-.88-.62-1.77-1.23-2.63-1.88l-2.58-1.96-2.52-2.03c-1.65-1.39-3.26-2.83-4.84-4.31-.8-.73-1.55-1.51-2.33-2.26-.78-.75-1.51-1.56-2.26-2.33-.75-.78-1.44-1.63-2.17-2.44-.71-.82-1.38-1.69-2.07-2.54l2.56-1.35c.43,1.34,.82,2.68,1.14,4.02,.33,1.34,.64,2.69,.88,4.04,.5,2.71,.89,5.42,1.21,8.14,.33,2.72,.57,5.44,.71,8.17,.16,2.73,.26,5.45,.29,8.18,.01,2.73-.05,5.46-.18,8.19-.05,1.36-.16,2.73-.28,4.09-.12,1.36-.26,2.72-.43,4.08-.34,2.71-.82,5.41-1.51,8.06-.35,1.32-.77,2.63-1.27,3.91-.53,1.26-1.14,2.5-1.97,3.58,.69-1.17,1.12-2.46,1.5-3.74,.36-1.29,.64-2.61,.84-3.94,.45-2.65,.66-5.33,.82-8.02,.16-2.68,.18-5.38,.18-8.07,0-2.69-.07-5.38-.22-8.07-.13-2.69-.29-5.37-.53-8.05-.24-2.68-.52-5.35-.86-8.01-.34-2.66-.75-5.31-1.26-7.93-.26-1.31-.52-2.62-.83-3.9-.3-1.29-.66-2.56-1.04-3.81l-2.25-7.32,4.81,5.98c.66,.81,1.28,1.65,1.96,2.45,.69,.79,1.35,1.6,2.07,2.38,.71,.77,1.4,1.58,2.13,2.33,.74,.75,1.45,1.53,2.21,2.27,.76,.74,1.5,1.49,2.27,2.21l2.32,2.16,2.37,2.11,2.43,2.04c.81,.68,1.66,1.31,2.48,1.98,.82,.68,1.69,1.28,2.53,1.92,.84,.65,1.72,1.23,2.59,1.83,.87,.61,1.76,1.18,2.65,1.75,.88,.59,1.8,1.11,2.73,1.63,.91,.54,1.86,1.02,2.81,1.49,.94,.51,1.92,.87,2.9,1.3,.97,.44,2.02,.69,3.03,1.05Z"/><path class="aw" d="M104.96,364.65s-.52-.1-1.5-.29c-.98-.18-2.42-.42-4.25-.79-1.82-.38-4.04-.85-6.55-1.52-2.51-.67-5.35-1.46-8.37-2.53-3.03-1.04-6.29-2.27-9.64-3.81-1.69-.73-3.38-1.59-5.12-2.44-.86-.44-1.72-.91-2.59-1.38-.87-.47-1.74-.95-2.6-1.48-3.5-2-6.95-4.34-10.35-6.87-1.65-1.33-3.37-2.6-4.96-4.04-.81-.71-1.63-1.4-2.43-2.12l-2.34-2.23-1.16-1.12-1.1-1.18-2.2-2.35c-1.39-1.63-2.8-3.24-4.11-4.9-2.61-3.34-4.98-6.78-7.04-10.24-1.02-1.74-2.08-3.42-2.91-5.17-.87-1.73-1.79-3.39-2.5-5.1-.73-1.69-1.53-3.3-2.13-4.93-.6-1.62-1.19-3.19-1.75-4.69-.52-1.52-.96-2.99-1.39-4.39-.43-1.4-.84-2.72-1.12-3.99-.31-1.26-.6-2.44-.87-3.54-.13-.55-.26-1.07-.37-1.57-.1-.51-.19-.99-.27-1.45-.65-3.67-1.02-5.76-1.02-5.76,0,0,.58,2.04,1.6,5.62,.13,.45,.26,.92,.4,1.41,.16,.49,.33,.99,.51,1.53,.35,1.06,.72,2.21,1.13,3.43,.37,1.23,.87,2.51,1.4,3.86,.53,1.34,1.02,2.78,1.63,4.24,.64,1.45,1.3,2.95,1.98,4.52,.67,1.56,1.51,3.11,2.3,4.74,.76,1.64,1.73,3.23,2.65,4.88,.9,1.67,1.94,3.3,2.99,4.96,2.08,3.34,4.52,6.59,7.06,9.83,1.29,1.61,2.67,3.16,4.04,4.73l2.16,2.27,1.08,1.14,1.13,1.09,2.25,2.18c.77,.71,1.56,1.39,2.34,2.08,1.54,1.41,3.2,2.66,4.8,3.97,3.3,2.47,6.57,4.89,9.95,6.91,3.35,2.06,6.67,3.94,9.91,5.54,3.23,1.63,6.36,3.02,9.29,4.22,5.86,2.4,10.91,4.01,14.47,5.07,1.78,.52,3.19,.93,4.14,1.21l1.46,.44Z"/><path class="at" d="M458.07,76.78c-.48,.89-1.03,1.74-1.53,2.62l-1.52,2.61c-.99,1.75-1.97,3.51-2.88,5.29-.93,1.77-1.83,3.56-2.69,5.37-.85,1.81-1.69,3.62-2.48,5.46-1.56,3.68-3.02,7.39-4.27,11.17-.61,1.89-1.25,3.78-1.78,5.7-.56,1.91-1.04,3.84-1.5,5.77l-1.5,6.24-1.42-6.27c-.45-1.96-.83-3.94-1.34-5.89-.25-.98-.47-1.96-.74-2.93l-.79-2.91c-.26-.97-.56-1.93-.84-2.9-.27-.97-.59-1.92-.91-2.88-.31-.96-.63-1.91-.97-2.85-.34-.95-.65-1.9-1.03-2.83-.37-.93-.7-1.88-1.11-2.8-.41-.92-.77-1.86-1.2-2.76-.43-.91-.82-1.84-1.29-2.72-.45-.89-.9-1.8-1.4-2.66l-.73-1.32-.78-1.29c-.5-.87-1.11-1.68-1.65-2.53-.6-.8-1.17-1.65-1.83-2.41-.62-.8-1.32-1.54-2.01-2.29,.79,.64,1.6,1.27,2.34,1.98,.77,.68,1.44,1.46,2.15,2.2,.66,.78,1.35,1.55,1.96,2.38l.93,1.23,.88,1.27c.6,.84,1.12,1.73,1.66,2.6,.56,.87,1.02,1.78,1.54,2.68,.52,.89,.94,1.83,1.41,2.74,.47,.92,.87,1.86,1.3,2.8,.44,.93,.81,1.89,1.21,2.84,.4,.95,.75,1.91,1.11,2.88,.35,.96,.72,1.93,1.03,2.9,.32,.98,.66,1.95,.96,2.93l.87,2.95c.29,.99,.52,1.98,.79,2.97,.54,1.98,.96,3.99,1.43,5.98l-2.93-.03c.98-3.96,2.14-7.88,3.52-11.72,1.43-3.82,2.99-7.59,4.83-11.22,.91-1.82,1.84-3.63,2.86-5.39,1.01-1.76,2.06-3.5,3.16-5.21,1.11-1.7,2.25-3.37,3.46-5,.6-.81,1.22-1.62,1.84-2.41,.62-.8,1.3-1.55,1.9-2.36Z"/><path class="am" d="M422.46,206.28c1.05-1.21,1.9-2.58,2.73-3.95,.39-.7,.8-1.38,1.17-2.1,.37-.71,.74-1.42,1.09-2.14,.36-.72,.69-1.44,1.02-2.17,.33-.73,.65-1.46,.95-2.2,.63-1.47,1.19-2.97,1.75-4.46,.53-1.51,1.08-3.01,1.55-4.53,.24-.76,.5-1.51,.72-2.28l.68-2.3c.46-1.53,.84-3.08,1.26-4.62l1.13-4.65h0l1.7-7.03,1.22,7.12c.27,1.56,.51,3.13,.82,4.68,.28,1.56,.62,3.11,.95,4.66,.35,1.54,.72,3.08,1.13,4.61,.2,.77,.43,1.52,.65,2.28,.21,.76,.47,1.51,.71,2.26,.23,.76,.52,1.49,.78,2.24,.25,.75,.57,1.47,.86,2.21,.6,1.47,1.26,2.91,1.97,4.32,.38,.69,.73,1.41,1.14,2.09,.4,.68,.8,1.38,1.24,2.04,.42,.68,.88,1.33,1.34,1.98,.45,.66,.96,1.27,1.44,1.91-.53-.6-1.09-1.17-1.59-1.8-.51-.61-1.03-1.23-1.5-1.88-.5-.63-.95-1.29-1.41-1.95-.47-.66-.87-1.35-1.32-2.02-.83-1.38-1.62-2.78-2.34-4.22-.35-.73-.73-1.44-1.05-2.18-.32-.74-.68-1.47-.97-2.22-.3-.75-.63-1.49-.9-2.25-.28-.76-.58-1.51-.84-2.27-.54-1.52-1.04-3.05-1.52-4.59-.46-1.54-.92-3.09-1.33-4.65-.43-1.55-.81-3.12-1.2-4.68l2.92,.1h0l-1.51,4.62c-.55,1.52-1.06,3.06-1.64,4.57l-.87,2.27c-.28,.76-.61,1.5-.91,2.25-.6,1.5-1.27,2.98-1.92,4.45-.69,1.46-1.37,2.93-2.12,4.36-.36,.72-.74,1.44-1.13,2.14-.38,.71-.78,1.42-1.19,2.11-.4,.7-.83,1.39-1.26,2.07-.42,.69-.89,1.35-1.34,2.02-.93,1.31-1.89,2.62-3.04,3.75Z"/><path class="bl" d="M699.96,434.78s.22,0,.64,.03c.42,.03,1.03,.07,1.8,.17,1.55,.19,3.75,.5,6.36,1.02,1.31,.26,2.72,.55,4.21,.93,1.49,.36,3.05,.76,4.65,1.25,1.6,.49,3.26,.99,4.91,1.63,1.65,.63,3.32,1.3,4.97,2.09,1.63,.82,3.24,1.72,4.75,2.85,.75,.59,1.48,1.2,2.1,2.02,.33,.37,.6,.85,.86,1.32,.11,.25,.2,.53,.3,.8l.07,.2v.03l.03,.08v.04l.02,.08,.06,.31c.07,.42,.16,.78,.21,1.24,.05,.46,.1,.91,.11,1.35,0,.43-.02,.86-.02,1.29-.05,.42-.09,.84-.14,1.25-.25,1.64-.82,3.11-1.51,4.34-.68,1.24-1.48,2.23-2.24,3.05-.77,.8-1.49,1.44-2.11,1.92-.61,.49-1.13,.83-1.48,1.06-.35,.23-.53,.35-.53,.35,0,0,.62-.65,1.59-1.84,.5-.58,1.04-1.34,1.63-2.2,.57-.88,1.12-1.91,1.58-3.07,.45-1.16,.75-2.46,.84-3.84,0-.35,0-.7,.01-1.05-.03-.35-.06-.71-.09-1.07l-.17-1.04c-.04-.34-.18-.78-.27-1.17l-.07-.3-.02-.08v-.04c-.02-.06,0,.06,0,.04h0l-.04-.1-.16-.37c-.18-.25-.32-.51-.58-.77-.45-.51-1.07-.99-1.68-1.47-1.3-.93-2.79-1.74-4.33-2.48-1.53-.76-3.12-1.45-4.7-2.09-1.59-.63-3.15-1.27-4.69-1.82-1.54-.56-3.04-1.1-4.45-1.61-1.43-.5-2.77-.97-4.02-1.41-2.5-.87-4.59-1.59-6.05-2.1-.73-.26-1.31-.46-1.7-.59-.39-.14-.61-.19-.61-.19Z"/><path class="ao" d="M175.96,434.78s-.22,.05-.61,.19c-.39,.14-.97,.34-1.7,.59-1.46,.51-3.55,1.23-6.05,2.1-1.24,.44-2.59,.91-4.02,1.41-1.42,.51-2.91,1.05-4.45,1.61-1.54,.55-3.11,1.2-4.69,1.82-1.58,.64-3.18,1.32-4.7,2.09-1.54,.74-3.04,1.55-4.33,2.48-.62,.48-1.24,.96-1.68,1.47-.26,.25-.4,.51-.58,.77l-.16,.37-.04,.09h0s.02-.09,0-.03v.04l-.03,.08-.07,.3c-.09,.39-.22,.83-.27,1.17l-.17,1.04c-.03,.36-.06,.72-.09,1.07,0,.35,0,.71,.01,1.05,.09,1.38,.39,2.68,.84,3.84,.46,1.16,1.01,2.19,1.58,3.07,.59,.86,1.13,1.62,1.63,2.2,.98,1.19,1.59,1.84,1.59,1.84l-.53-.35c-.35-.23-.86-.57-1.48-1.06-.62-.48-1.35-1.11-2.11-1.92-.76-.81-1.56-1.81-2.24-3.05-.69-1.23-1.26-2.7-1.51-4.34-.05-.41-.09-.83-.14-1.25,0-.42-.02-.85-.02-1.29,.01-.44,.06-.9,.11-1.35,.04-.47,.14-.82,.21-1.24l.06-.31v-.08l.02-.04,.02-.08v-.03l.07-.2c.09-.27,.18-.55,.3-.8,.26-.47,.53-.95,.86-1.32,.62-.82,1.36-1.43,2.1-2.02,1.51-1.13,3.12-2.03,4.75-2.85,1.65-.78,3.32-1.46,4.97-2.09,1.65-.64,3.31-1.14,4.91-1.63,1.6-.5,3.17-.89,4.65-1.25,1.48-.37,2.9-.67,4.21-.93,2.61-.53,4.82-.84,6.36-1.02,.77-.1,1.39-.14,1.8-.17,.42-.03,.64-.03,.64-.03Z"/></g></g></g></g></svg>