<svg xmlns="http://www.w3.org/2000/svg" viewBox="0 0 127 127"><defs><style>.cls-1{fill:#71f099;}.cls-2{fill:#fefae0;}.cls-3{fill:#fff;stroke:#fff;}.cls-3,.cls-4{stroke-miterlimit:10;}.cls-4{fill:#41658a;stroke:#41658a;}.cls-5{fill:#3da35d;}</style></defs><g id="Layer_2" data-name="Layer 2"><g id="Layer_1-2" data-name="Layer 1"><circle class="cls-1" cx="63.5" cy="63.5" r="63"/><ellipse class="cls-2" cx="70.58" cy="34" rx="14.08" ry="14.91"/><path class="cls-3" d="M61.42,115.5s29.24-13.34,18.51-38.36c0,0-28.24-21.58-2-31.36,0,0,.08-2.58-6.84-4.51s-23.66,7.29-23.66,7.29S37.52,58.24,45.3,63.8,61,71.58,61.51,78.25s-4,8.9-4,8.9Z"/><path class="cls-4" d="M13,101c-1-3.84,4.53-16,4.53-16C31.05,82,32,73,32,73s-9-1-9-16S40,42,40,42c17,3,14,28,14,28l-7,6c-1,4,9.75,8.42,9.75,8.42,8.75,6.43,6.75,40.74,6.75,40.74L55,125l-1-23c-1,0-4,23-4,23a68.77,68.77,0,0,1-11.22-4A69.72,69.72,0,0,1,23,111Z"/><path class="cls-5" d="M63.5,127A63.5,63.5,0,1,1,127,63.5,63.58,63.58,0,0,1,63.5,127Zm0-126A62.5,62.5,0,1,0,126,63.5,62.57,62.57,0,0,0,63.5,1Z"/></g></g></svg>