<?xml version="1.0" encoding="UTF-8"?><svg id="a" xmlns="http://www.w3.org/2000/svg" xmlns:xlink="http://www.w3.org/1999/xlink" viewBox="0 0 832.87 873"><defs><style>.d{clip-rule:evenodd;}.d,.e,.f{fill:#71f099;}.g{fill:#fff;}.h{fill:#222e50;}.h,.f{fill-rule:evenodd;}.i{clip-path:url(#c);}</style><clipPath id="c"><path class="d" d="M798.5,250.4c22.09,50.81,34.37,106.86,34.37,165.8,0,23.04-1.9,45.63-5.5,67.65-100.12-46.61-216.93-73.87-336.58-81.82h.21l307.5-151.63ZM6.1,483.79c-3.69-22.25-5.59-44.84-5.64-67.59C0,186.34,186.8,0,416.66,0c170.9,0,317.71,103.02,381.8,250.33l-334.93,141.06c-1.81-3.41-3.99-6.61-6.47-9.53L644.35,70.44l-204.37,298.12c-3.94-1.93-8.16-3.39-12.58-4.3L416.66,3.58l-10.74,360.68c-4.42,.91-8.63,2.37-12.58,4.3L188.97,70.44l187.28,311.43c-2.48,2.92-4.66,6.11-6.47,9.53L34.86,250.33l-.03,.08,307.5,151.64,.71-.05c-119.77,7.9-236.71,35.16-336.94,81.79Z"/></clipPath></defs><circle id="b" class="g" cx="416.66" cy="416.61" r="416.2"/><g><path class="f" d="M798.5,250.4c22.09,50.81,34.37,106.86,34.37,165.8,0,23.04-1.9,45.63-5.5,67.65-100.12-46.61-216.93-73.87-336.58-81.82h.21l307.5-151.63ZM6.1,483.79c-3.69-22.25-5.59-44.84-5.64-67.59C0,186.34,186.8,0,416.66,0c170.9,0,317.71,103.02,381.8,250.33l-334.93,141.06c-1.81-3.41-3.99-6.61-6.47-9.53L644.35,70.44l-204.37,298.12c-3.94-1.93-8.16-3.39-12.58-4.3L416.66,3.58l-10.74,360.68c-4.42,.91-8.63,2.37-12.58,4.3L188.97,70.44l187.28,311.43c-2.48,2.92-4.66,6.11-6.47,9.53L34.86,250.33l-.03,.08,307.5,151.64,.71-.05c-119.77,7.9-236.71,35.16-336.94,81.79Z"/><g class="i"><rect class="e" width="832.87" height="483.86"/></g></g><path class="h" d="M343.55,417.27c-244.78,69.61-23.48,56.21,77.13,123.69,96.28,64.59-380.18,20.12-416.86,133.46-2.98-38.46,30.73-62.65,41.79-69.44-19.16-38.27-32.48-78.93-39.46-120.81,100.56-38.17,217.58-60.47,337.39-66.9"/><path class="h" d="M416.66,832.41c-39.7,0-78.48-5.67-115.02-16.09-27.56-7.85-51.42,36.04-53.84,56.68-.03-23.85,.74-40.69,7.29-58.36,48.84-107.77,399.33-170.28,382.95-242.82-17.5-77.47-216.08-86.71-260.75-105.16-44.67-18.45,31.47-36.13,85.83-50.5l-1.57-.1c129.64,4.26,257.28,26.99,365.75,68.18-32.47,197.5-203.95,348.18-410.64,348.18"/></svg>