<?xml version="1.0" encoding="UTF-8"?><svg xmlns="http://www.w3.org/2000/svg" viewBox="0 0 369.56 323.09"><defs><style>.d,.e,.f,.g{fill:#0b0c0b;}.e{stroke:#414042;}.e,.f{stroke-width:.25px;}.e,.f,.g{stroke-miterlimit:10;}.f{stroke:#58595b;}.g{stroke:#231f20;stroke-width:.5px;}</style></defs><g id="a"/><g id="b"><g id="c"><g><path class="d" d="M221.97,27.58s-57.91,1.01-62.91,.01c-4.38-.88-3.85,42.98-2.76,55.35,3.39,6.8,8.56,13.16,12.34,19.05,3.37,5.26,6.91,10.49,11.54,14.74,1.47,1.35,3.19,3.05,5.03,4.66,.41,.01,.81,0,1.2-.1,1.35-.65,2.67-1.35,3.93-2.16,3.57-2.28,6.02-5.64,9.14-8.43,2.78-2.49,5.37-5.52,8.13-8.26,.07-.12,.15-.25,.24-.36,2.23-2.89,4.16-5.86,6.5-8.5,2.8-9.31,5.34-18.78,6.55-28.35,.84-6.6,1.95-13.12,2.06-19.79,.07-4.28,0-8.56,.09-12.83-.63-2.99-1.09-5.04-1.09-5.04Z"/><ellipse class="d" cx="179.06" cy="58.59" rx="3.5" ry="6.5"/><ellipse class="d" cx="204.06" cy="58.59" rx="3.5" ry="6.5"/><path class="d" d="M166.19,44.25s1.93,3.45,1.39,3.77,12.97-1.06,15.42,0c.11-3.89,1.56-3.77,1.56-3.77,0,0-9.56-1.36-18.37,0Z"/><path class="d" d="M199.19,44.25s1.93,3.45,1.39,3.77,12.97-1.06,15.42,0c.11-3.89,1.56-3.77,1.56-3.77,0,0-9.56-1.36-18.37,0Z"/><path class="d" d="M167.64,110.97s.42,16.62-2.58,17.62,24.63,36,43.31,0c-.31-13-3.31-15.57,.19-18.29"/><path class="d" d="M153.31,63.24s-3.54,20.29,3.1,29.05c2.46,10.63,4.8,18.77,8.98,20.82,2.23,6.03,11.84,13.63,15.25,14.31s16.66,1.8,20.93-3.17,19.03-18.71,17.05-22.7c3.95-2.95,6.92-15.15,.95-20.74-6.03-5.65-22.18,2.26-22.18,2.26,0,0-15.32-1.36-18.39-.38s-15.25-3.62-18.07-3.05-.2-16.2-7.63-16.4Z"/><line class="g" x1="164.84" y1="201.28" x2="155.54" y2="216.69"/><line class="g" x1="170.19" y1="204.24" x2="160.19" y2="220.24"/><line class="g" x1="155.54" y1="201.28" x2="175.56" y2="216.69"/><line class="g" x1="151.08" y1="208.98" x2="165.55" y2="220.24"/><path class="d" d="M157.13,67.52c-2.26-10.42-2.23-21.34,.1-31.75,.57-2.55,1.43-5.29,3.59-6.74,3.15-2.12,7.48-.53,10.53,1.74s5.81,5.24,9.51,6.09c.05-2.97-.6-5.95-1.88-8.63,6.66,5.33,14.51,9.17,22.81,11.16-2.64-4.21-6.07-7.92-10.05-10.88,8.51,4.81,17.78,8.25,27.37,10.16-2.16-3.46-4.8-6.63-7.82-9.38l24.2,11.43c-1.88-13.46-10.09-25.83-21.58-33.1S187.91-1.79,174.73,1.52c-7.89,1.98-15.37,5.9-21.02,11.74-7.21,7.47-11.14,18.01-10.56,28.37s12.42,43.84,20.42,50.46"/><path class="d" d="M100.5,211.33s.06,.05,.08,.07h0c-.01-.1-.03-.19-.03-.31-.03,.08-.04,.16-.06,.24Z"/><path class="d" d="M257.46,160.25s-7.46-13.97-8.09-13.97c-.63,0-10.25-10.09-15.25-11.44-5.01-1.35-26.01-12.25-26.01-12.25,0,0-.47,21.83-20.3,20.17-20-1.67-21.41-17.47-20.67-20.23,0,0-31.29,15.18-35.26,15.88-3.98,.7-8.8,7.62-8.8,7.62,0,0-11.14,17.43-14.16,20.48-3.03,3.06-2.69,20.41-16.37,37.01,2.57,2.97,5.26,5.56,7.94,7.8,.02-.08,.03-.16,.06-.24,0,.11,.02,.21,.03,.31,2.28-.81,4.43-1.76,5.97-3.31-.92,1.85-1,4.54-1.8,6.52h0c8.47,6.04,16.13,8.58,18.79,8.53,3.92-.07,12.93-18.45,12.93-18.45,0,0-7.18,110.72-6.69,115.94,.49,5.21,98,1.32,102.84-3.99,.64-7.72,1-113.43,1-113.43,0,0,5.98,18.61,5.92,19.93-.06,1.32,32.5-6.01,40-20.6-10.48-13.1-22.1-42.29-22.1-42.29Z"/><polygon class="d" points="100.58 211.4 100.59 211.4 100.59 211.4 100.58 211.4"/><path class="e" d="M143.09,224.75s-13.27,52.19-9.4,61.27"/><path class="e" d="M217.56,206.29c2,.81-8,48.25,5.5,56.03"/><path class="e" d="M232.89,312.09s-69.25,17.66-102.79,2.33"/><path class="e" d="M245.56,177.57s-15.84,12.88-11.92,27.2"/><path class="e" d="M128.31,182.91s12.2,13.56,9.73,18.37"/><path class="d" d="M162.56,198.09l2.99-2.44s5.27,4.81,4.64,5.63-1.41,3.98-2.52,5.4-3.89,5.2-6,2.31-2.6-6.52-3.36-7.7,4.25-3.19,4.25-3.19Z"/><line class="f" x1="207.08" y1="177.57" x2="198.56" y2="185.09"/><line class="f" x1="210.56" y1="180.09" x2="201.56" y2="188.09"/><line class="f" x1="202.82" y1="176.39" x2="210.56" y2="186.02"/><line class="f" x1="197.6" y1="181.33" x2="206.06" y2="189.43"/><path class="d" d="M43.92,161.07s-5.44-3.64-5.7-4.28-2.97-2.55-3.77-2.87-6.41-3.06-6.41-3.06c0,0-2.5,1.38-.91,4.28,1.6,2.9,3.79,3.96,6.1,5.33s4.93,3.67,4.93,3.67c0,0-3.99,.69-5.53,.79s-5.97-.38-5.97-.38c0,0-23.96-4.48-24-1.83,.83,1.8,2.72,2.65,2.72,2.65,0,0-7.55-1.9-4.77,2.1,2.9,1.8,4.42,1.93,4.42,1.93,0,0-2.45,1.01,.52,4.15,2.97,3.15,9.01,2.35,7.42,3.35-1.96,1.22,.64,1.87,1.57,3.2s15.62,5.48,16.33,6.22,13.12,3.37,17.98,2.48c4.86-.89,5.62-19.19,4.36-20.59s-7.92-7.49-9.29-7.15Z"/><path class="d" d="M123.56,218.04s-9.42,32.19-18.15,27.75-66.5-61.52-65.85-65.69,11-10,11-10l73,47.94Z"/><path class="d" d="M325.64,165.07s5.44-3.64,5.7-4.28,2.97-2.55,3.77-2.87,6.41-3.06,6.41-3.06c0,0,2.5,1.38,.91,4.28-1.6,2.9-3.79,3.96-6.1,5.33s-4.93,3.67-4.93,3.67c0,0,3.99,.69,5.53,.79s5.97-.38,5.97-.38c0,0,23.96-4.48,24-1.83-.83,1.8-2.72,2.65-2.72,2.65,0,0,7.55-1.9,4.77,2.1-2.9,1.8-4.42,1.93-4.42,1.93,0,0,2.45,1.01-.52,4.15-2.97,3.15-9.01,2.35-7.42,3.35,1.96,1.22-.64,1.87-1.57,3.2s-15.62,5.48-16.33,6.22-13.12,3.37-17.98,2.48c-4.86-.89-5.62-19.19-4.36-20.59s7.92-7.49,9.29-7.15Z"/><path class="d" d="M246,222.04s9.42,32.19,18.15,27.75,66.5-61.52,65.85-65.69-11-10-11-10l-73,47.94Z"/></g></g></g></svg>