<?xml version="1.0" encoding="UTF-8"?><svg xmlns="http://www.w3.org/2000/svg" viewBox="0 0 913.38 618.8"><defs><style>.d{fill:#f4a964;}.e{fill:#fff;}.f{opacity:.5;}.g{fill:#fdbb59;opacity:.51;}.h{fill:#35b44f;}.i{opacity:.35;}.j{fill:#168e45;}.k{fill:#eaeaea;}.l{fill:#41a5dc;}.m{fill:#f99e43;}.n{fill:#1c7b3e;}.o{fill:#d07228;}</style></defs><g id="a"/><g id="b"><g id="c"><g><path class="l" d="M306,581.14c1,15,0,19,0,19,0,0,97,36,300,8,1-13,0-22.17,0-22.17-102,1.17-300-4.83-300-4.83Z"/><path class="e" d="M0,157.14c11,344,291,426,291,426,80,22,597,111,621-426C467,170.14,0,157.14,0,157.14Z"/><path class="k" d="M0,146.1c27-119.01,661.33-258.48,912,0C951.67,322.76,126,411.09,0,173.69v-27.58Z"/><path class="m" d="M28.28,197.11c77.2-89.83,476.47-243.01,868.71-16.5,5.12,2.96,6.52,9.75,2.93,14.45-44.17,57.89-160.93,84.77-160.93,84.77-192,55.3-363,38.3-363,38.3C124,305.14,56.33,231.93,29.7,211.25c-4.43-3.44-5.07-9.89-1.41-14.14Z"/><ellipse class="d" cx="455.63" cy="191.64" rx="354.47" ry="104.5"/><path class="g" d="M557,114.14c-193-10-390,28-396,64,22,43,64,56,78,56-51-42-102-92,270-113,32-8,48-7,48-7Z"/><g class="f"><path class="o" d="M217.92,119.84s8.04-18.37,28.71-13.78c10.34,7.46,14.74,13.78,14.74,13.78,0,0-21.63,13.78-27.37,12.63s-16.08-12.63-16.08-12.63Z"/><path class="o" d="M231.7,129.54c1.02-11.52,26.49-12.57,26.49-12.57,0,0,5.85,4.19,5.1,6.81s-19.36,11.52-23.44,11-8.15-5.24-8.15-5.24Z"/></g><g class="f"><path class="h" d="M219.23,209.15s8.04-18.37,28.71-13.78c10.34,7.46,14.74,13.78,14.74,13.78,0,0-21.63,13.78-27.37,12.63s-16.08-12.63-16.08-12.63Z"/><path class="n" d="M233.01,218.85c1.02-11.52,26.49-12.57,26.49-12.57,0,0,5.85,4.19,5.1,6.81s-19.36,11.52-23.44,11-8.15-5.24-8.15-5.24Z"/></g><g class="i"><path class="h" d="M604.88,134.5s8.04-18.37,28.71-13.78c10.34,7.46,14.74,13.78,14.74,13.78,0,0-21.63,13.78-27.37,12.63s-16.08-12.63-16.08-12.63Z"/><path class="n" d="M618.66,144.19c1.02-11.52,26.49-12.57,26.49-12.57,0,0,5.85,4.19,5.1,6.81s-19.36,11.52-23.44,11-8.15-5.24-8.15-5.24Z"/></g><g><path class="o" d="M90,196.67s8.04-18.37,28.71-13.78c10.34,7.46,14.74,13.78,14.74,13.78,0,0-21.63,13.78-27.37,12.63s-16.08-12.63-16.08-12.63Z"/><path class="o" d="M103.78,206.37c1.02-11.52,26.49-12.57,26.49-12.57,0,0,5.85,4.19,5.1,6.81s-19.36,11.52-23.44,11-8.15-5.24-8.15-5.24Z"/></g><g class="f"><path class="h" d="M741.28,165.51s8.04-18.37,28.71-13.78c10.34,7.46,14.74,13.78,14.74,13.78,0,0-21.63,13.78-27.37,12.63s-16.08-12.63-16.08-12.63Z"/><path class="n" d="M755.06,175.2c1.02-11.52,26.49-12.57,26.49-12.57,0,0,5.85,4.19,5.1,6.81s-19.36,11.52-23.44,11-8.15-5.24-8.15-5.24Z"/></g><g class="f"><path class="h" d="M457.31,281.18s8.04-18.37,28.71-13.78c10.34,7.46,14.74,13.78,14.74,13.78,0,0-21.63,13.78-27.37,12.63s-16.08-12.63-16.08-12.63Z"/><path class="n" d="M471.09,290.88c1.02-11.52,26.49-12.57,26.49-12.57,0,0,5.85,4.19,5.1,6.81s-19.36,11.52-23.44,11-8.15-5.24-8.15-5.24Z"/></g><g><path class="j" d="M516.9,80.14c-30,22-29,30-29,30-6-11-13-14-16,12-19-10-22-4-17,15-21-8-34,33,10,53,67-5,69-20,48-22,16-7,12-21,0-20,16-8,8-17,4-20,3-37,0-48,0-48Z"/><path class="j" d="M319.61,160.18c25.88,26.72,33.67,24.64,33.67,24.64-10.08,7.44-12.1,14.79,14.07,14.22-7.32,20.19-.97,22.34,17.18,14.8-5.06,21.89,37.32,29.19,51.14-17.13-14.08-65.69-29.21-65.63-28.33-44.56-9.11-14.9-22.44-9.03-19.81,2.72-10.11-14.76-17.93-5.61-20.36-1.24-37.06,2.07-47.55,6.54-47.55,6.54Z"/><path class="j" d="M625.19,198.53c-34.27-14.48-40.62-9.52-40.62-9.52,6.37-10.79,5.36-18.34-18.51-7.59-1.15-21.44-7.84-20.94-21.59-6.91-3.9-22.13-45.76-12.27-40.38,35.76,38.64,54.96,52.55,48.99,43.5,29.93,14.21,10.15,24.18-.46,17.17-10.25,15.07,9.64,18.7-1.85,19.22-6.82,33.31-16.39,41.21-24.61,41.21-24.61Z"/><path class="j" d="M461.8,188.64c-14.9,24.5-56.9,51.5-56.9,51.5,0,0-6-1.96,0,2.52s52-31.52,94-31.52l9,4-4.28-12.77-30.72,.77s-3.93-12-1.96-13-9.14-1.5-9.14-1.5Z"/><polygon class="j" points="431 208.52 431 224.88 438.9 221.14 434.95 193.44 431 208.52"/></g></g></g></g></svg>