<?xml version="1.0" encoding="UTF-8"?><svg xmlns="http://www.w3.org/2000/svg" xmlns:xlink="http://www.w3.org/1999/xlink" viewBox="0 0 338.49 563.01"><defs><style>.f{fill:#959799;}.g{fill:#a8bcdb;stroke:#4a342d;stroke-miterlimit:10;stroke-width:.25px;}.h{fill:#be1e2d;}.i{fill:#010101;opacity:.11;}.j{fill:#896c50;}.k{fill:#49332c;}.l{fill:#f89724;}.m{fill:#96acce;}.n{fill:#c66b28;}.o{fill:#fff;opacity:.25;}.p{fill:url(#d);}.q{fill:url(#e);}.r{fill:#4a342d;}.s{fill:#fcb772;}.t{fill:#f4c7a7;}.u{fill:#58595b;}</style><linearGradient id="d" x1="226.9" y1="556.71" x2="299.64" y2="556.71" gradientTransform="matrix(1, 0, 0, 1, 0, 0)" gradientUnits="userSpaceOnUse"><stop offset="0" stop-color="#545454"/><stop offset=".33" stop-color="#a9a9a9"/><stop offset=".51" stop-color="#585858"/><stop offset=".72" stop-color="#6e6f72"/><stop offset="1" stop-color="#737373"/></linearGradient><linearGradient id="e" x1="-20.51" y1="676.16" x2="44.75" y2="676.16" gradientTransform="translate(694.92 519.53) rotate(97.19)" xlink:href="#d"/></defs><g id="a"/><g id="b"><g id="c"><g><g><path class="h" d="M228.13,543.18s-.86,1.67,.18,3.59c.68,2.36-.28,2.92-.28,2.92,0,0,.04,3.77-.52,4.03s2.67,1.2,4.06,1.16c1.37-.03,18.4,2,18.4,2,0,0,15.26,1.88,16.36,1.77s3.77,.87,15.27-.24c9.88-.95,17.2-3.52,17.19-3.67s1.52-1.08-1.91-1.87c-4.19-.57-4.35-.41-5.74-.84s-3.67-.68-4.62-1.18c.98-.45,.92-1.47-.19-1.57s-11.37-2.88-11.37-2.88c0,0-9.93-4.12-10.43-4.22s-1.97,.55-1.97,.55c0,0-3.88-1.98-4.41-1.99s-4.73-.84-8.2,4.68c-.4,.81,.23,1.59,.23,1.59,0,0-13.97-4.18-13.81-4.51s-8.25,.66-8.25,.66Z"/><path class="p" d="M227.12,553.74s-.54,.67,.05,1,6.01,1.42,8.49,1.24c2.62,.46,8.26,.88,8.26,.88l10.76,1.11s10.46,1.63,11.94,1.56c2.07,.32,11.67,0,12.49-.17,.81-.18,8.41-1.14,8.76-1.34s6.1-1.15,6.99-1.47c.87-.32,3.99-.8,4.56-1.51s-.11-1.21-.31-1.09c-.18,.49-.03,.54-1.08,.94s-7.1,2.16-9.75,2.38c-3.03,.49-5.89,1.14-7.38,1.22s-8.07,.64-10.25,.52-12.77-1.04-14.44-1.37c-1.7-.34-16.25-1.42-16.44-1.84s-8.64-.89-8.64-.89c0,0-4.37-.69-4.01-1.17Z"/><path class="j" d="M226.58,554.46s.27,3.35,.5,3.68c.27,.38,8.25,1.82,11.02,1.57,2.69-.25,19.31,2.01,19.65,2.16s12.78,1.39,14.33,1.08c2.55,.43,15.92-1.37,17.5-2.06,2.43-.33,9.29-2.37,9.51-2.54s1.22-1.02,1.22-1.02c0,0,.03-3.01-.49-2.96-.18,.81-.87,1.15-3.12,1.72-2.33,.6-9.17,2-10.74,2.29-1.61,.3-9.82,1.88-15.55,1.3-6.19-.62-13.74-1.01-16.58-1.52-2.94-.54-15.75-2.12-18.17-2.16-2.49-.04-9.66-1.5-9.66-1.5"/></g><path class="t" d="M217.98,50.79c-2.27,12.89,10.61,39.42,8.34,40.18s-8.88-1.35-8.61,9.18-1.25,24.93-5.04,26.45-34.12,6.82-46.25-19.71c-39.42-49.28-19.71-90.97,3.79-96.28,23.5-5.31,45.49,7.58,45.49,7.58l2.27,32.6Z"/><ellipse cx="210.02" cy="55.34" rx="4.17" ry="7.58"/><path class="t" d="M170.7,102.16c-5.24,20.96-14.17,35.81-14.17,35.81,20.28,3.49,39.5,15.33,39.5,15.33,4.37-13.59,20.48-31.06,20.48-31.06l-45.81-20.09Z"/><path class="k" d="M196.47,44.86s3.43,2.58,2.97,3.11,13.34-6.16,16.28-6.11c-1.36-3.74,.18-4.18,.18-4.18,0,0-10.5,2.37-19.43,7.17Z"/><path class="r" d="M153.66,81.26c-.27,3.91-.54,7.9,.49,11.68s3.61,7.37,7.36,8.52l1.8-3.53c1.07,8.27,4.67,16.2,10.2,22.46,1.38-.94,2.32-2.5,2.49-4.16,1.27,4.32,3.76,8.27,7.11,11.29,1.63,1.47,3.71,2.78,5.88,2.42,2.16-.36,3.79-3.27,2.28-4.86l5.97,6.55c1.82,2,3.7,4.04,6.1,5.28,2.4,1.25,5.47,1.56,7.74,.08,2.26-1.48,3.1-5.05,1.22-6.99l9.28,3.2c.4,.14,.82,.27,1.23,.17,.53-.14,.87-.67,1.08-1.18,1.85-4.45-1.76-9.19-2.34-13.97-.45-3.74,.98-7.41,2.39-10.9,1.14,.82,2.23-1.12,2.32-2.53,.24-3.88,.12-8.55-3.17-10.63-3.49-2.21-7.93,.02-11.81,1.44-6.36,2.34-13.56,2.35-19.92,.03-3.28-1.2-6.48-3.02-9.97-3.01-2.3,0-4.53,.83-6.82,1.09s-4.92-.22-6.22-2.12c-.55-.8-.82-1.82-1.57-2.44-.84-.69-2.03-.69-3.11-.69-5.61-.02-12.54-2.31-13.14-7.89"/><path class="r" d="M179,92.17c-4.93-.09-9.13-3.63-11.05-7.73s-2.02-8.68-2.01-13.13c.02-13.04,.77-26.5,6.91-38.3,1.52-2.92,3.4-5.75,6.06-7.91,9.54-7.72,24.44-4.16,36.47-.17l-4.05-7.58c10.5,2.35,20.66,5.93,30.14,10.63C229.9,10.55,206.66,1.83,184.22,.21c-16.12-1.16-35.02,2.25-42.55,15.18-6.72,11.53-1.61,25.45,1.59,38.16,2.41,9.57,3.69,19.44,7.76,28.54s11.59,17.61,22.05,20.26l.48-8.44"/><path class="f" d="M220.9,334.07c-38.7-8.61-90.29-4.92-90.29-4.92,0,20.92,7.54,37.28,7.54,37.28-11.84,46.39-3.24,53.64-7.54,64.16-1.16,2.83-2.31,6.33-3.52,10.14,11.41,9.61,21.9,19.31,32.26,29.49,5.46-23.84,23.62-78.6,27.16-85.7,14.33,16,44.43,59.06,45.86,71.36,1.43,12.3-8.6,84.53-4.3,92.1,17.2-1.05,28.66,2.64,32.96-3.51,7.17-30.76,10.03-87.36,10.03-87.36,2.87-13.53-50.16-123.04-50.16-123.04Z"/><path class="t" d="M159.29,234.1c30.14-4.5,103.77-48.41,109.82-45.83,7.04,4.1,19.24-3.89,24.28-2.84s8.57,3.1,10.09,2.1-11.57-7.67-13.09-6.67c6.1-4,15.66,.63,17.19-.37,2.05-3.52-12.09-5.15-12.09-5.15,5.57-1.47,14.67-.9,15.19-3.42-4-6.1-20.71-1.68-20.71-1.68,.53-2.52,17.24-6.94,18.76-7.94,5.1-5.52-16.66-2.15-18.66-5.2-23.34,10.94-31.43,11.89-30.43,13.41-20.76,4.89-72.43,19.15-72.43,19.15l-30.61,20.06s-8.15,20.87-4.11,23.53,6.8,.86,6.8,.86Z"/><path class="m" d="M125.65,250.11c36.85,6.35,47.99,3.41,47.99,3.41,.22-3.41,.61-6.55,1.1-9.4,2.14-12.38,6.2-19.35,6.2-19.35-34.33-5.83-44.94-5.41-44.94-5.41l-10.35,30.75Z"/><path class="g" d="M160.17,132c-30.16,27.28-34.45,84.14-34.45,84.14-11.49,47.39,0,119.56,0,119.56,37.34,9.68,95.45-1.7,95.45-1.7-24.41-66.43-12.16-172.43-27.96-185.35-14.04-11.65-33.04-16.65-33.04-16.65Z"/><path class="u" d="M195.2,339.54c.32,4.12-1.21,7.92-2.91,11.59s-3.32,7.08-4.26,10.93c-1.96,7.97-1.82,16.37-4.83,24.09-.29,.75,.92,1.07,1.21,.33,3.06-7.86,2.87-16.42,4.94-24.52,1.02-4,2.88-7.61,4.56-11.36,1.57-3.5,2.85-7.16,2.55-11.06-.06-.8-1.31-.8-1.25,0h0Z"/><path class="g" d="M155.84,181.03c-18.62,33.63,21.92,69.9,21.92,69.9,21.74-10.4,33.18-22.75,33.18-22.75-35.3-47.04-55.1-47.15-55.1-47.15Z"/><path class="f" d="M158.02,464.71c6.62,18.46-16.8,31.45-31.23,27.49-14.43-3.95-95.76-28.52-99.63-32.75s19.37-29.08,15.49-32.75,28.11-5.08,40.66,5.65,3.87,10.16,24.22,12.42,19.35-4.8,19.35-4.8l31.14,24.74Z"/><g><path class="h" d="M52.81,424.4s-1.36-1.76-3.95-2.06c-2.89-.88-3-2.03-3-2.03,0,0-4.08-2.3-4.08-2.92s-2.66,1.5-3.34,2.69c-.67,1.17-11.62,14.2-11.62,14.2,0,0-9.87,11.64-10.31,12.64s-2.87,2.62-7.59,12.96c-4.05,8.87-5.05,16.6-4.89,16.68s.38,1.94,2.99-.45c2.77-3.17,2.67-3.4,3.85-4.3,1.21-.92,2.62-2.66,3.64-3.15-.02,1.1,1.11,1.68,1.79,.81s8.94-7.77,8.94-7.77c0,0,9.54-5.79,9.9-6.15s.43-1.99,.43-1.99c0,0,4.13-2.03,4.41-2.47s3.33-3.45-.83-9.76c-.66-.84-1.84-.79-1.84-.79,0,0,11.69-9.14,11.95-8.81s3.53-7.33,3.53-7.33Z"/><path class="q" d="M41.96,417.05s-.45-.87-1.11-.58-4.62,4.17-5.71,6.36c-1.84,1.91-5.19,6.39-5.19,6.39l-6.73,8.34s-7.14,7.77-7.82,9.05c-1.41,1.54-6.01,9.78-6.23,10.58-.23,.79-3.1,7.76-3.06,8.18s-1.9,5.83-2.01,6.77c-.11,.93-1.19,3.84-.72,4.75s1.36,.66,1.33,.41c-.43-.45-.57-.36-.45-1.48s1.32-7.29,2.45-9.64c1.03-2.84,1.8-5.64,2.48-6.95s3.46-7.17,4.71-8.92c1.28-1.81,7.68-10.07,8.9-11.27,1.24-1.22,9.89-12.75,10.43-12.66s5.4-6.7,5.4-6.7c0,0,2.99-3.24,3.32-2.64Z"/><path class="j" d="M41.46,416.16s-3.75-1.84-4.22-1.85c-.56,0-6.21,5.8-7.36,8.28-1.11,2.41-12.1,14.96-12.43,15.16s-8.07,9.87-8.53,11.35c-1.78,1.88-6.71,14.2-6.78,15.95-.89,2.24-2.22,9.26-2.15,9.55s.47,1.66,.47,1.66c0,0,3.23,1.89,3.44,1.42-.78-.65-.79-1.44-.25-3.68,.55-2.33,2.56-8.92,3.06-10.43,.51-1.54,3.03-9.4,6.59-13.85,3.85-4.81,8.15-10.91,10.17-12.97,2.09-2.14,10.38-11.91,11.67-13.91,1.33-2.06,6.58-7.18,6.58-7.18"/></g><g><path class="l" d="M337.28,168.84c.18,.28,.34,.57,.49,.86,4.27,8.82-11.12,19.55-33.87,34.16-12.51,8.03-24.16,15.82-33.13,16.92-4.39,.54-7.94-.22-10.24-2.72-.17-.18-.33-.37-.47-.57-.06-.08-.13-.16-.19-.25-.08-.12-.17-.24-.25-.36-.05-.07-.09-.14-.13-.22-1.37-2.19-2.21-4.45-2.59-6.75-.91-5.44-.12-12.35,2.95-17.76,1.32-2.32,2.89-4.6,4.65-6.8,2.78-3.48,6.01-6.76,9.35-9.73,3.27-2.91,6.64-5.51,9.82-7.66,.34-.24,.68-.46,1.01-.68,.33-.22,.67-.44,.99-.64,.2-.13,.4-.26,.61-.37,3.04-1.88,6.49-3.49,10.12-4.76,3.78-1.33,7.76-2.3,11.71-2.85,8.01-1.12,17.47,2.05,23.08,4.89,2.55,1.29,4.65,3.04,6.1,5.3Z"/><path class="o" d="M286.27,166.25c1.74,5.1,.73,15.18-4.71,21.91-8.34,10.34-23.45,23.79-24.67,21.74-.91-5.44-.12-12.35,2.95-17.76,1.32-2.32,2.89-4.6,4.65-6.8,2.78-3.48,6.01-6.76,9.35-9.73,3.27-2.91,6.64-5.51,9.82-7.66,.34-.24,.68-.46,1.01-.68,.33-.22,.67-.44,.99-.64,.2-.13,.4-.26,.61-.37Z"/><path class="i" d="M337.28,168.84c5.77,8.99-9.88,19.93-33.39,35.03-12.51,8.03-24.16,15.82-33.13,16.92,18.24-10.06,32.48-21.66,40.94-40.07,2.37-5.14,6-14.62-3.59-22.09,7.98-1.11,17.44,2.06,23.06,4.9,2.55,1.29,4.65,3.04,6.1,5.3Z"/><path class="n" d="M298.75,174.2c.35,.51,.37,.95-.02,1.25-.02,.02-.05,.04-.08,.06-2.29,1.47-9.6-1.09-15.68-1.72-2.59-.27-6.03,.67-9.12,1.82,.92-.83,1.86-1.63,2.8-2.4,1.8-1.49,3.6-2.87,5.36-4.12,.56-.39,1.11-.77,1.65-1.14,.48-.02,.9,0,1.26,.05,5.61,.72,12.41,4.1,13.82,6.2Z"/><path class="s" d="M298.73,175.45s-.05,.04-.08,.06c-2.29,1.47-7.33-.28-13.4-.91-2.59-.27-8.31-.14-11.39,1.02,.92-.83,1.86-1.63,2.8-2.4,1.8-1.49,3.6-2.87,5.36-4.12,6.49,.55,14.55,3.95,16.71,6.36Z"/><path class="n" d="M319.27,167.08c.39,.69,.43,1.23,0,1.52-.1,.07-.22,.12-.36,.15-2.76,.79-11.7-4.54-17.37-6.33-1.74-.55-3.48-.83-5.14-.92,1.46-.51,2.95-.97,4.45-1.37,1.92-.52,3.87-.93,5.81-1.25,.48-.09,.96-.16,1.44-.23,4.54,1.96,9.86,6.08,11.17,8.43Z"/><path class="s" d="M318.74,168.46c.06,.1,.12,.2,.16,.29-2.76,.79-11.7-4.54-17.37-6.33-1.74-.55-3.48-.83-5.14-.92,1.46-.51,2.95-.97,4.45-1.37,1.92-.52,2.88-.8,4.82-1.12,4.92,2.51,11.51,6.88,13.08,9.46Z"/><path class="n" d="M283.8,191.28c.26,.47,.23,.87-.2,1.14-.09,.06-.19,.12-.3,.16-2.59,1.11-9.54-1.27-15.37-1.88-2.3-.24-5.28,.47-8.08,1.44,.3-.53,.61-1.05,.94-1.57,.6-.98,1.26-1.94,1.94-2.89,.56-.8,1.16-1.58,1.77-2.34,2.14-.37,4.12-.59,5.38-.43,5.75,.74,12.78,4.29,13.92,6.36Z"/><path class="s" d="M283.3,192.58c-2.59,1.11-8.64-.49-14.47-1.1-2.3-.24-6.18-.31-8.98,.66,.3-.53,.61-1.05,.94-1.57,.6-.98,1.26-1.94,1.94-2.89,1.9-.39,3.6-.61,4.78-.53,5.82,.41,12.8,3.12,15.79,5.42Z"/></g><g><path class="t" d="M185.8,246.76c9.37,9.24,30.14,29.42,33.37,29.24,24-3,46-26.24,50-30,10-7,17-18,17-18-13-9-13-8-13-8-6.07,9.23-26.68,22.92-33.83,30.12-2.89,2.91-7.45,3.38-10.84,1.07-10.29-7-20.65-20.03-20.65-20.03l-22.05,15.6Z"/><path class="t" d="M273.82,206.68s3.67-5.42,3.67-6.11,1.79-3.48,2.41-4.07,4.78-5.25,4.78-5.25c0,0,2.84,.34,2.45,3.63-.39,3.29-2.03,5.09-3.64,7.24s-3.19,5.26-3.19,5.26c0,0,3.96-.87,5.42-1.35s5.39-2.6,5.39-2.6c0,0,20.51-13.17,21.55-10.73-.09,1.98-1.53,3.48-1.53,3.48,0,0,6.28-4.6,5.21,.15-2.01,2.76-3.37,3.45-3.37,3.45,0,0,2.64,.01,1.08,4.04-1.56,4.03-7.47,5.57-5.61,5.9,2.27,.39,.11,1.98-.25,3.56s-12.41,10.95-12.78,11.91-10.89,8.06-15.73,9.06c-4.84,1-12.43-15.66-11.79-17.44s4.52-9.92,5.92-10.12Z"/></g></g></g></g></svg>